<svg version="1.1" id="Layer_1" xmlns="http://www.w3.org/2000/svg" xmlns:xlink="http://www.w3.org/1999/xlink" x="0px" y="0px"
	 width="100%" viewBox="0 0 148 148" enable-background="new 0 0 148 148" xml:space="preserve">
<path fill="#000000" opacity="1.000000" stroke="none" 
	d="
M149.000000,53.000000 
	C149.000000,85.306435 149.000000,117.112862 149.000000,148.959656 
	C99.735283,148.959656 50.470531,148.959656 1.102888,148.959656 
	C1.102888,99.777138 1.102888,50.553993 1.102888,1.165423 
	C50.332878,1.165423 99.666397,1.165423 149.000000,1.165423 
	C149.000000,18.195774 149.000000,35.347885 149.000000,53.000000 
M141.339371,121.931076 
	C141.556870,120.471123 141.962067,119.011436 141.964157,117.551178 
	C142.007263,87.586807 142.019394,57.622345 141.968399,27.658024 
	C141.965714,26.079836 141.350235,24.502693 140.935013,22.229265 
	C139.651566,21.489208 138.368134,20.749149 136.498810,19.370802 
	C120.352692,19.252493 104.206566,19.134186 87.697769,18.275658 
	C87.297882,15.372408 86.898003,12.469158 86.462761,9.309126 
	C85.014816,9.243468 83.694275,8.978977 82.437111,9.158424 
	C70.661430,10.839290 58.883385,12.511921 47.132408,14.355101 
	C35.694111,16.149235 24.316607,18.357697 12.850566,19.934536 
	C8.481509,20.535379 7.999587,22.740896 8.010062,26.349192 
	C8.102933,58.338120 8.170053,90.327957 7.978397,122.315933 
	C7.951168,126.860512 9.686852,128.307877 13.792413,128.992294 
	C34.700226,132.477768 55.567745,136.204285 76.461334,139.776428 
	C79.763023,140.340897 83.125801,140.548050 87.060928,140.987457 
	C87.060928,135.109299 87.060928,130.136292 87.535667,124.988937 
	C87.693581,124.929947 87.851501,124.870949 88.942879,124.915436 
	C103.750725,124.943115 118.558678,125.001305 133.366287,124.953552 
	C134.929321,124.948517 136.490356,124.320602 138.661560,123.920517 
	C139.337814,123.506142 140.014084,123.091759 140.735565,122.714012 
	C140.735565,122.714012 140.762482,122.668228 141.339371,121.931076 
z"/>
<path fill="#19724B" opacity="1.000000" stroke="none" 
	d="
M87.060928,125.163277 
	C87.060928,130.136292 87.060928,135.109299 87.060928,140.987457 
	C83.125801,140.548050 79.763023,140.340897 76.461334,139.776428 
	C55.567745,136.204285 34.700226,132.477768 13.792413,128.992294 
	C9.686852,128.307877 7.951168,126.860512 7.978397,122.315933 
	C8.170053,90.327957 8.102933,58.338120 8.010062,26.349192 
	C7.999587,22.740896 8.481509,20.535379 12.850566,19.934536 
	C24.316607,18.357697 35.694111,16.149235 47.132408,14.355101 
	C58.883385,12.511921 70.661430,10.839290 82.437111,9.158424 
	C83.694275,8.978977 85.014816,9.243468 86.462761,9.309126 
	C86.898003,12.469158 87.297882,15.372408 88.013756,18.811237 
	C88.515572,19.564835 88.703468,19.781059 89.294296,20.129948 
	C100.470703,20.506773 111.245483,20.866932 122.022141,20.936277 
	C126.638283,20.965977 131.258331,20.390471 136.178741,20.071476 
	C136.682144,20.038366 136.883408,20.023729 137.084686,20.009090 
	C138.368134,20.749149 139.651566,21.489208 140.947632,22.832439 
	C140.942673,23.605928 140.925095,23.776243 140.755280,24.121540 
	C140.400742,24.530273 140.199310,24.764791 139.616852,25.001474 
	C138.470993,25.006729 137.707077,25.010588 136.673538,25.020145 
	C136.224197,25.029844 136.044449,25.033846 135.404755,25.022480 
	C120.633347,24.999020 106.321869,24.973900 92.010460,24.992693 
	C87.423851,24.998714 85.106949,28.074133 87.422012,31.860138 
	C88.322243,33.332344 91.627754,33.937450 93.814476,33.889194 
	C97.918159,33.798645 99.980621,34.786896 99.863716,39.405800 
	C99.754639,43.715569 98.170525,45.211147 93.870163,45.071140 
	C91.579987,44.996582 87.229362,43.035286 87.318588,47.582558 
	C87.402039,51.835739 91.663864,50.119347 94.029037,50.093372 
	C99.015274,50.038628 99.612595,52.871986 99.805710,56.814472 
	C100.031921,61.432999 97.405090,62.074009 93.807831,61.882759 
	C92.812485,61.829838 91.659889,61.570068 90.847000,61.961224 
	C89.487549,62.615379 88.343330,63.716839 87.108521,64.630020 
	C88.272026,65.442802 89.335197,66.588371 90.626389,66.977654 
	C92.002533,67.392555 93.598419,67.168587 95.091095,67.088257 
	C98.167320,66.922722 99.609283,68.163986 99.777740,71.395149 
	C100.066490,76.933647 99.425415,77.813141 93.923759,77.923767 
	C92.593117,77.950523 91.110771,77.627625 89.974464,78.112717 
	C88.824478,78.603653 87.103493,80.083267 87.249710,80.799805 
	C87.553581,82.288773 88.645790,84.163567 89.933685,84.762909 
	C91.451401,85.469170 93.526031,85.110397 95.347191,85.005371 
	C99.094803,84.789238 99.700272,87.076157 99.779564,90.082901 
	C99.864937,93.320030 98.813667,95.169212 95.205276,94.937744 
	C92.637329,94.773026 90.050293,94.905792 87.440315,94.905792 
	C87.903610,100.597092 87.900589,100.836143 94.648872,100.921494 
	C99.331299,100.980705 98.937614,103.897530 99.031548,106.976105 
	C99.123215,109.980309 98.786339,112.001083 94.864372,112.025330 
	C88.071571,112.067337 88.073021,112.301544 87.622765,119.268585 
	C87.380180,119.962166 87.226303,120.424889 87.063675,121.314980 
	C87.056923,122.882652 87.058922,124.022964 87.060928,125.163277 
M48.990974,58.629124 
	C48.063725,60.866764 47.136475,63.104404 45.686207,66.604187 
	C44.034122,62.242432 42.822483,59.206089 41.730049,56.127449 
	C38.958515,48.316830 38.765106,48.207348 30.091698,50.898067 
	C32.546490,56.337017 34.798824,61.839378 37.485283,67.120918 
	C39.715179,71.504845 39.856022,75.227554 36.949203,79.553558 
	C33.861622,84.148590 31.725113,89.382690 29.178473,94.327652 
	C36.124134,97.846733 38.027645,96.956009 40.176228,90.421814 
	C41.427769,86.615662 43.226807,82.989540 44.779503,79.282417 
	C47.583168,83.395287 49.198608,87.346016 50.726776,91.330231 
	C53.706554,99.099052 53.937183,99.217522 62.045849,95.950226 
	C59.391998,90.427345 56.961952,84.808678 54.038036,79.459984 
	C51.624481,75.044891 51.133663,71.158974 53.831627,66.545097 
	C57.154816,60.862019 59.714912,54.732719 62.921413,48.145885 
	C60.592747,48.145885 59.133373,48.084225 57.680672,48.156578 
	C51.455521,48.466621 51.601467,54.257450 48.990974,58.629124 
z"/>
<path fill="#1A704C" opacity="1.000000" stroke="none" 
	d="
M87.298294,125.076111 
	C87.058922,124.022964 87.056923,122.882652 87.524185,121.334412 
	C104.292259,120.941414 120.591080,120.956345 137.275085,120.972305 
	C138.429840,120.968742 139.199402,120.964149 140.148697,121.389267 
	C140.449066,122.105110 140.569702,122.391243 140.690338,122.677383 
	C140.014084,123.091759 139.337814,123.506142 138.298813,123.945175 
	C137.936066,123.969826 137.820633,123.957085 137.448822,123.821945 
	C124.350616,123.459221 111.624832,123.156631 98.897446,123.055618 
	C95.625023,123.029640 92.347565,123.638603 88.893845,124.096535 
	C88.477654,124.425903 88.242371,124.617493 88.009430,124.811943 
	C87.851501,124.870949 87.693581,124.929947 87.298294,125.076111 
z"/>
<path fill="#315E4A" opacity="1.000000" stroke="none" 
	d="
M140.907501,23.946558 
	C140.925095,23.776243 140.942673,23.605928 140.990143,23.180340 
	C141.350235,24.502693 141.965714,26.079836 141.968399,27.658024 
	C142.019394,57.622345 142.007263,87.586807 141.964157,117.551178 
	C141.962067,119.011436 141.556870,120.471123 141.082550,121.772736 
	C140.852997,89.058449 140.880249,56.502502 140.907501,23.946558 
z"/>
<path fill="#116543" opacity="1.000000" stroke="none" 
	d="
M140.755280,24.121540 
	C140.880249,56.502502 140.852997,89.058449 140.794113,122.141312 
	C140.762482,122.668228 140.735565,122.714012 140.712952,122.695694 
	C140.569702,122.391243 140.449066,122.105110 140.156952,120.925217 
	C139.989899,88.354332 139.994339,56.677208 139.998779,25.000078 
	C140.199310,24.764791 140.400742,24.530273 140.755280,24.121540 
z"/>
<path fill="#276B4F" opacity="1.000000" stroke="none" 
	d="
M88.476151,124.863693 
	C88.242371,124.617493 88.477654,124.425903 89.354202,124.106262 
	C105.935631,123.969254 121.878128,123.963165 137.820633,123.957085 
	C137.820633,123.957085 137.936066,123.969826 137.994202,123.975754 
	C136.490356,124.320602 134.929321,124.948517 133.366287,124.953552 
	C118.558678,125.001305 103.750725,124.943115 88.476151,124.863693 
z"/>
<path fill="#24674C" opacity="1.000000" stroke="none" 
	d="
M136.791748,19.689945 
	C136.883408,20.023729 136.682144,20.038366 135.724518,20.057880 
	C119.609901,20.040335 104.251671,20.017912 88.893433,19.995489 
	C88.703468,19.781059 88.515572,19.564835 88.195099,19.181347 
	C104.206566,19.134186 120.352692,19.252493 136.791748,19.689945 
z"/>
<path fill="#000000" opacity="1.000000" stroke="none" 
	d="
M87.711472,119.037743 
	C88.073021,112.301544 88.071571,112.067337 94.864372,112.025330 
	C98.786339,112.001083 99.123215,109.980309 99.031548,106.976105 
	C98.937614,103.897530 99.331299,100.980705 94.648872,100.921494 
	C87.900589,100.836143 87.903610,100.597092 87.440315,94.905792 
	C90.050293,94.905792 92.637329,94.773026 95.205276,94.937744 
	C98.813667,95.169212 99.864937,93.320030 99.779564,90.082901 
	C99.700272,87.076157 99.094803,84.789238 95.347191,85.005371 
	C93.526031,85.110397 91.451401,85.469170 89.933685,84.762909 
	C88.645790,84.163567 87.553581,82.288773 87.249710,80.799805 
	C87.103493,80.083267 88.824478,78.603653 89.974464,78.112717 
	C91.110771,77.627625 92.593117,77.950523 93.923759,77.923767 
	C99.425415,77.813141 100.066490,76.933647 99.777740,71.395149 
	C99.609283,68.163986 98.167320,66.922722 95.091095,67.088257 
	C93.598419,67.168587 92.002533,67.392555 90.626389,66.977654 
	C89.335197,66.588371 88.272026,65.442802 87.108521,64.630020 
	C88.343330,63.716839 89.487549,62.615379 90.847000,61.961224 
	C91.659889,61.570068 92.812485,61.829838 93.807831,61.882759 
	C97.405090,62.074009 100.031921,61.432999 99.805710,56.814472 
	C99.612595,52.871986 99.015274,50.038628 94.029037,50.093372 
	C91.663864,50.119347 87.402039,51.835739 87.318588,47.582558 
	C87.229362,43.035286 91.579987,44.996582 93.870163,45.071140 
	C98.170525,45.211147 99.754639,43.715569 99.863716,39.405800 
	C99.980621,34.786896 97.918159,33.798645 93.814476,33.889194 
	C91.627754,33.937450 88.322243,33.332344 87.422012,31.860138 
	C85.106949,28.074133 87.423851,24.998714 92.010460,24.992693 
	C106.321869,24.973900 120.633347,24.999020 135.442108,25.487907 
	C135.949799,29.455065 135.960526,32.941425 135.970444,36.427788 
	C136.047943,63.652134 136.125290,90.876480 136.195404,118.314499 
	C136.188126,118.528168 136.251617,118.951012 135.937103,119.265274 
	C120.228065,119.688400 104.833572,119.806778 89.438858,119.868980 
	C88.864197,119.871307 88.287315,119.327202 87.711472,119.037743 
M124.745026,77.815353 
	C129.001190,75.753342 126.616112,72.033882 126.561630,69.103043 
	C126.548096,68.374763 123.548882,67.210030 121.866676,67.101128 
	C117.589874,66.824265 113.281044,67.084633 108.986343,67.029076 
	C105.065620,66.978348 104.914444,69.619095 105.040291,72.418449 
	C105.158333,75.044250 104.149124,78.603912 109.925476,77.860779 
	C114.600677,77.847443 119.275879,77.834106 124.745026,77.815353 
M126.556190,85.281013 
	C120.620522,84.855499 114.688148,84.262459 108.746407,84.145355 
	C107.552994,84.121841 105.203186,86.069489 105.313110,86.829697 
	C105.704872,89.538948 102.662743,93.665787 108.884651,94.829048 
	C113.172264,94.863228 117.474762,94.687729 121.743294,94.990715 
	C125.987831,95.292023 127.429588,93.445862 126.949112,89.495155 
	C126.810280,88.353584 126.786674,87.197998 126.556190,85.281013 
M110.279015,51.077576 
	C109.513969,51.050671 108.748932,51.023766 107.681625,50.599064 
	C107.109932,50.721245 106.538246,50.843426 105.593567,51.186016 
	C105.333504,51.370731 105.214836,51.622177 105.112259,52.832527 
	C105.103050,54.661880 104.661682,56.637539 105.216362,58.275997 
	C105.691399,59.679218 107.238159,61.634380 108.430672,61.722351 
	C113.726028,62.112999 119.066956,62.003677 124.384720,61.847523 
	C125.194305,61.823750 125.968781,60.603813 126.869194,59.063259 
	C126.833000,56.712551 126.796806,54.361847 126.688812,51.620434 
	C126.536804,51.358845 126.311127,51.250107 125.148720,51.236656 
	C123.420433,51.155685 121.692146,51.074715 119.796684,50.688656 
	C119.541862,50.790672 119.287033,50.892689 118.347420,51.063705 
	C117.889664,51.041771 117.431908,51.019836 116.802269,50.690125 
	C116.543365,50.792477 116.284470,50.894829 115.220810,51.076584 
	C114.143982,51.049450 113.067162,51.022320 111.808754,50.699596 
	C111.553253,50.803253 111.297760,50.906906 110.279015,51.077576 
M124.827148,100.347054 
	C119.683159,100.287643 114.535637,100.325333 109.396294,100.138321 
	C105.232872,99.986816 104.901703,102.582130 105.030869,105.681686 
	C105.151688,108.580589 104.308632,112.029778 109.112633,111.948944 
	C113.927040,111.867928 118.750259,112.068092 123.555077,111.839500 
	C124.686790,111.785652 126.702888,110.497528 126.696899,109.790924 
	C126.671196,106.762238 126.042114,103.738678 124.827148,100.347054 
M123.151390,44.945923 
	C129.017365,44.924065 126.489891,40.461716 126.900711,37.671352 
	C127.387329,34.366196 125.189384,33.907848 122.551712,33.953411 
	C118.072098,34.030792 113.580841,34.165985 109.112289,33.933868 
	C105.113312,33.726143 104.899979,36.024853 105.067970,38.982128 
	C105.233223,41.891350 104.391701,45.234287 109.278358,44.982224 
	C113.581154,44.760281 117.905602,44.957932 123.151390,44.945923 
z"/>
<path fill="#000000" opacity="1.000000" stroke="none" 
	d="
M49.148285,58.288757 
	C51.601467,54.257450 51.455521,48.466621 57.680672,48.156578 
	C59.133373,48.084225 60.592747,48.145885 62.921413,48.145885 
	C59.714912,54.732719 57.154816,60.862019 53.831627,66.545097 
	C51.133663,71.158974 51.624481,75.044891 54.038036,79.459984 
	C56.961952,84.808678 59.391998,90.427345 62.045849,95.950226 
	C53.937183,99.217522 53.706554,99.099052 50.726776,91.330231 
	C49.198608,87.346016 47.583168,83.395287 44.779503,79.282417 
	C43.226807,82.989540 41.427769,86.615662 40.176228,90.421814 
	C38.027645,96.956009 36.124134,97.846733 29.178473,94.327652 
	C31.725113,89.382690 33.861622,84.148590 36.949203,79.553558 
	C39.856022,75.227554 39.715179,71.504845 37.485283,67.120918 
	C34.798824,61.839378 32.546490,56.337017 30.091698,50.898067 
	C38.765106,48.207348 38.958515,48.316830 41.730049,56.127449 
	C42.822483,59.206089 44.034122,62.242432 45.686207,66.604187 
	C47.136475,63.104404 48.063725,60.866764 49.148285,58.288757 
z"/>
<path fill="#12724C" opacity="1.000000" stroke="none" 
	d="
M136.251617,118.951012 
	C136.251617,118.951012 136.188126,118.528168 136.323730,117.911896 
	C136.645721,115.480713 136.993774,113.665840 136.994354,111.850861 
	C137.003540,82.905396 136.968262,53.959919 136.943146,25.014446 
	C137.707077,25.010588 138.470993,25.006729 139.616852,25.001474 
	C139.994339,56.677208 139.989899,88.354332 139.977203,120.495514 
	C139.199402,120.964149 138.429840,120.968742 137.212997,120.716766 
	C136.594330,119.957130 136.422974,119.454071 136.251617,118.951012 
z"/>
<path fill="#37624E" opacity="1.000000" stroke="none" 
	d="
M136.673538,25.020145 
	C136.968262,53.959919 137.003540,82.905396 136.994354,111.850861 
	C136.993774,113.665840 136.645721,115.480713 136.331009,117.698227 
	C136.125290,90.876480 136.047943,63.652134 135.970444,36.427788 
	C135.960526,32.941425 135.949799,29.455065 135.902069,25.503273 
	C136.044449,25.033846 136.224197,25.029844 136.673538,25.020145 
z"/>
<path fill="#346B53" opacity="1.000000" stroke="none" 
	d="
M135.937103,119.265274 
	C136.422974,119.454071 136.594330,119.957130 136.827789,120.715729 
	C120.591080,120.956345 104.292259,120.941414 87.532936,120.907051 
	C87.226303,120.424889 87.380180,119.962166 87.622765,119.268585 
	C88.287315,119.327202 88.864197,119.871307 89.438858,119.868980 
	C104.833572,119.806778 120.228065,119.688400 135.937103,119.265274 
z"/>
<path fill="#0F6744" opacity="1.000000" stroke="none" 
	d="
M89.294296,20.129948 
	C104.251671,20.017912 119.609901,20.040335 135.422363,20.076355 
	C131.258331,20.390471 126.638283,20.965977 122.022141,20.936277 
	C111.245483,20.866932 100.470703,20.506773 89.294296,20.129948 
z"/>
<path fill="#0D6842" opacity="1.000000" stroke="none" 
	d="
M137.448822,123.821945 
	C121.878128,123.963165 105.935631,123.969254 89.532776,123.965607 
	C92.347565,123.638603 95.625023,123.029640 98.897446,123.055618 
	C111.624832,123.156631 124.350616,123.459221 137.448822,123.821945 
z"/>
<path fill="#1D6C49" opacity="1.000000" stroke="none" 
	d="
M125.230057,100.530151 
	C126.042114,103.738678 126.671196,106.762238 126.696899,109.790924 
	C126.702888,110.497528 124.686790,111.785652 123.555077,111.839500 
	C118.750259,112.068092 113.927040,111.867928 109.112633,111.948944 
	C104.308632,112.029778 105.151688,108.580589 105.030869,105.681686 
	C104.901703,102.582130 105.232872,99.986816 109.396294,100.138321 
	C114.535637,100.325333 119.683159,100.287643 125.230057,100.530151 
z"/>
<path fill="#1B6F4A" opacity="1.000000" stroke="none" 
	d="
M105.237564,51.940353 
	C105.214836,51.622177 105.333504,51.370731 106.115921,51.095016 
	C107.086815,51.001629 107.535347,50.999245 107.983887,50.996857 
	C108.748932,51.023766 109.513969,51.050671 110.897675,51.048378 
	C111.516335,51.019176 111.990334,50.995186 111.990334,50.995186 
	C113.067162,51.022320 114.143982,51.049450 115.860191,51.044289 
	C116.499573,51.011990 116.974152,50.997906 116.974152,50.997902 
	C117.431908,51.019836 117.889664,51.041771 118.922546,51.036644 
	C119.497673,51.009583 119.963860,50.993740 119.963860,50.993740 
	C121.692146,51.074715 123.420433,51.155685 125.694702,51.394779 
	C126.402878,51.718258 126.576187,51.871002 126.760605,52.011139 
	C126.796806,54.361847 126.833000,56.712551 126.424042,59.600986 
	C123.875984,60.426575 121.779518,60.897549 119.669106,60.971725 
	C108.403984,61.367661 108.402779,61.333359 105.237564,51.940353 
z"/>
<path fill="#196E49" opacity="1.000000" stroke="none" 
	d="
M126.710251,86.048836 
	C126.786674,87.197998 126.810280,88.353584 126.949112,89.495155 
	C127.429588,93.445862 125.987831,95.292023 121.743294,94.990715 
	C117.474762,94.687729 113.172264,94.863228 108.261337,94.525787 
	C106.196106,88.114204 107.196381,85.340073 111.524651,85.220840 
	C116.575081,85.081703 121.647415,85.737785 126.710251,86.048836 
z"/>
<path fill="#1A754D" opacity="1.000000" stroke="none" 
	d="
M123.951080,77.820770 
	C119.275879,77.834106 114.600677,77.847443 109.188927,77.618210 
	C107.836273,75.489052 106.406532,73.367218 106.862396,71.790581 
	C107.224823,70.537094 109.805176,69.591034 111.560234,69.164787 
	C113.442596,68.707634 115.511803,68.975166 117.498528,69.000389 
	C124.745247,69.092369 125.898018,70.681374 123.951080,77.820770 
z"/>
<path fill="#2B5F48" opacity="1.000000" stroke="none" 
	d="
M122.685936,44.958103 
	C117.905602,44.957932 113.581154,44.760281 109.278358,44.982224 
	C104.391701,45.234287 105.233223,41.891350 105.067970,38.982128 
	C104.899979,36.024853 105.113312,33.726143 109.112289,33.933868 
	C113.580841,34.165985 118.072098,34.030792 122.551712,33.953411 
	C125.189384,33.907848 127.387329,34.366196 126.900711,37.671352 
	C126.489891,40.461716 129.017365,44.924065 122.685936,44.958103 
M119.858704,35.906704 
	C116.872421,35.952351 113.800369,35.592262 110.932610,36.198532 
	C109.260086,36.552116 107.914459,38.451965 106.421761,39.656128 
	C107.809181,41.032059 109.029510,43.301834 110.618622,43.598904 
	C113.986389,44.228474 117.549805,43.933136 121.026573,43.819954 
	C123.880707,43.727043 125.816254,42.372684 125.672531,39.203396 
	C125.524017,35.928341 123.191826,35.730034 119.858704,35.906704 
z"/>
<path fill="#215C44" opacity="1.000000" stroke="none" 
	d="
M124.348053,77.818054 
	C125.898018,70.681374 124.745247,69.092369 117.498528,69.000389 
	C115.511803,68.975166 113.442596,68.707634 111.560234,69.164787 
	C109.805176,69.591034 107.224823,70.537094 106.862396,71.790581 
	C106.406532,73.367218 107.836273,75.489052 108.724350,77.577713 
	C104.149124,78.603912 105.158333,75.044250 105.040291,72.418449 
	C104.914444,69.619095 105.065620,66.978348 108.986343,67.029076 
	C113.281044,67.084633 117.589874,66.824265 121.866676,67.101128 
	C123.548882,67.210030 126.548096,68.374763 126.561630,69.103043 
	C126.616112,72.033882 129.001190,75.753342 124.348053,77.818054 
z"/>
<path fill="#2D634D" opacity="1.000000" stroke="none" 
	d="
M126.633224,85.664925 
	C121.647415,85.737785 116.575081,85.081703 111.524651,85.220840 
	C107.196381,85.340073 106.196106,88.114204 107.792358,94.472549 
	C102.662743,93.665787 105.704872,89.538948 105.313110,86.829697 
	C105.203186,86.069489 107.552994,84.121841 108.746407,84.145355 
	C114.688148,84.262459 120.620522,84.855499 126.633224,85.664925 
z"/>
<path fill="#18563B" opacity="1.000000" stroke="none" 
	d="
M105.174911,52.386440 
	C108.402779,61.333359 108.403984,61.367661 119.669106,60.971725 
	C121.779518,60.897549 123.875984,60.426575 126.369186,60.037926 
	C125.968781,60.603813 125.194305,61.823750 124.384720,61.847523 
	C119.066956,62.003677 113.726028,62.112999 108.430672,61.722351 
	C107.238159,61.634380 105.691399,59.679218 105.216362,58.275997 
	C104.661682,56.637539 105.103050,54.661880 105.174911,52.386440 
z"/>
<path fill="#18563B" opacity="1.000000" stroke="none" 
	d="
M107.832756,50.797962 
	C107.535347,50.999245 107.086815,51.001629 106.302414,50.984810 
	C106.538246,50.843426 107.109932,50.721245 107.832756,50.797962 
z"/>
<path fill="#18563B" opacity="1.000000" stroke="none" 
	d="
M126.724709,51.815788 
	C126.576187,51.871002 126.402878,51.718258 126.126236,51.423565 
	C126.311127,51.250107 126.536804,51.358845 126.724709,51.815788 
z"/>
<path fill="#18563B" opacity="1.000000" stroke="none" 
	d="
M119.880272,50.841198 
	C119.963860,50.993740 119.497673,51.009583 119.264938,51.002144 
	C119.287033,50.892689 119.541862,50.790672 119.880272,50.841198 
z"/>
<path fill="#18563B" opacity="1.000000" stroke="none" 
	d="
M116.888214,50.844017 
	C116.974152,50.997906 116.499573,51.011990 116.262573,51.004585 
	C116.284470,50.894829 116.543365,50.792477 116.888214,50.844017 
z"/>
<path fill="#18563B" opacity="1.000000" stroke="none" 
	d="
M111.899544,50.847389 
	C111.990334,50.995186 111.516335,51.019176 111.279297,51.014870 
	C111.297760,50.906906 111.553253,50.803253 111.899544,50.847389 
z"/>
<path fill="#17734C" opacity="1.000000" stroke="none" 
	d="
M120.275131,35.888885 
	C123.191826,35.730034 125.524017,35.928341 125.672531,39.203396 
	C125.816254,42.372684 123.880707,43.727043 121.026573,43.819954 
	C117.549805,43.933136 113.986389,44.228474 110.618622,43.598904 
	C109.029510,43.301834 107.809181,41.032059 106.421761,39.656128 
	C107.914459,38.451965 109.260086,36.552116 110.932610,36.198532 
	C113.800369,35.592262 116.872421,35.952351 120.275131,35.888885 
z"/>
</svg>