<svg version="1.1" id="Layer_1" xmlns="http://www.w3.org/2000/svg" xmlns:xlink="http://www.w3.org/1999/xlink" x="0px" y="0px"
	 width="100%" viewBox="0 0 171 148" enable-background="new 0 0 171 148" xml:space="preserve">
<path fill="#000000" opacity="1.000000" stroke="none" 
	d="
M1.000000,65.000000 
	C1.000000,43.333336 1.000000,22.166674 1.000000,1.000009 
	C57.999985,1.000006 114.999969,1.000006 171.999969,1.000003 
	C171.999969,50.333313 171.999969,99.666626 171.999985,148.999954 
	C115.000031,148.999969 58.000065,148.999969 1.000050,148.999985 
	C1.000000,121.166664 1.000000,93.333336 1.000000,65.000000 
M52.449970,80.073517 
	C48.684181,72.226250 44.196442,64.632088 41.334297,56.468025 
	C37.709732,46.129204 28.086903,45.423332 20.076357,40.173885 
	C20.076357,64.783081 20.067453,88.090599 20.109163,111.398026 
	C20.110817,112.322945 20.308090,113.764244 20.897778,114.090233 
	C25.957294,116.887299 31.128370,119.482567 37.273926,122.659027 
	C37.273926,109.922348 37.273926,98.390923 37.273926,85.952225 
	C44.554199,99.988121 52.012135,113.020844 58.156738,126.645844 
	C62.928482,137.226685 72.841789,140.248276 81.939270,146.557175 
	C81.939270,143.679092 81.938744,141.896942 81.939354,140.114792 
	C81.945961,120.792633 81.491119,101.453888 82.184914,82.156425 
	C82.465462,74.352997 80.334465,69.831131 72.944351,67.458626 
	C69.401619,66.321281 66.129936,64.339607 62.381920,62.573742 
	C62.381920,75.513649 62.381920,87.295364 62.381920,99.077072 
	C62.020855,99.140182 61.659786,99.203285 61.298721,99.266388 
	C58.480991,93.087410 55.663258,86.908440 52.449970,80.073517 
M119.970329,107.704063 
	C119.970329,105.433365 119.970329,103.162674 119.970329,100.066139 
	C110.315300,104.907784 101.295128,109.380768 92.355179,114.008705 
	C91.632431,114.382843 91.096695,115.816589 91.087830,116.763687 
	C90.996552,126.526978 91.031799,136.291458 91.031799,147.188721 
	C100.828285,142.191544 109.879562,137.643265 118.821564,132.889435 
	C119.580093,132.486176 119.910713,130.713715 119.926605,129.570190 
	C120.023537,122.597862 119.971848,115.623466 119.970329,107.704063 
M91.022331,100.050713 
	C91.117607,101.273911 91.212883,102.497101 91.342995,104.167572 
	C95.987404,101.910393 100.112701,99.980934 104.168633,97.915283 
	C109.262596,95.320953 116.329582,93.817177 118.809113,89.630280 
	C121.461632,85.151283 119.827477,78.099052 119.950325,72.167625 
	C120.046791,67.510490 119.969688,62.849770 119.969688,57.765480 
	C111.074814,62.174412 103.204071,66.288811 95.133652,69.964813 
	C92.155251,71.321457 90.852661,72.836029 90.955544,76.195709 
	C91.189583,83.838570 91.027275,91.493576 91.022331,100.050713 
M152.984573,106.425346 
	C152.984573,99.039986 152.984573,91.654625 152.984573,83.419731 
	C144.512268,87.683510 136.860336,91.485123 129.284500,95.432793 
	C128.618179,95.779999 128.109634,97.080360 128.102493,97.942757 
	C128.020767,107.828918 128.050461,117.715996 128.050461,128.290710 
	C134.293610,125.265419 139.704758,122.278343 145.395798,119.986183 
	C151.324509,117.598305 154.510880,114.044731 152.984573,106.425346 
M128.030853,61.645649 
	C128.030853,69.352196 128.030853,77.058746 128.030853,86.113472 
	C136.690598,81.527496 144.279068,77.557724 151.789871,73.446106 
	C152.448944,73.085312 152.928070,71.797417 152.935150,70.935577 
	C153.014786,61.244133 152.985519,51.551796 152.985519,41.137135 
	C146.627228,44.357071 141.184479,47.609917 135.365692,49.912426 
	C130.145538,51.978058 126.802246,54.585163 128.030853,61.645649 
M72.061798,45.566017 
	C68.777603,47.456715 65.493408,49.347412 61.517319,51.636425 
	C69.860718,55.817024 77.426186,59.643639 85.041359,63.368629 
	C85.810448,63.744831 87.051933,63.858894 87.783340,63.500713 
	C95.911110,59.520390 103.981491,55.422890 112.084389,51.348480 
	C111.661232,50.568768 111.581001,50.156181 111.345734,50.027851 
	C108.626923,48.544849 105.638245,47.433056 103.191605,45.596180 
	C93.062927,37.991814 82.974693,37.306503 72.061798,45.566017 
M43.736080,42.859901 
	C46.589741,43.850853 50.130913,46.436531 52.177063,45.554405 
	C60.658943,41.897732 68.689117,37.193302 77.391098,32.606907 
	C69.501686,28.531794 62.318386,24.781067 55.082153,21.135418 
	C54.190723,20.686312 52.796059,20.340250 52.007687,20.720325 
	C43.683704,24.733320 35.435497,28.903498 26.199297,33.512962 
	C32.522606,36.857517 37.804413,39.651196 43.736080,42.859901 
M98.286453,32.483841 
	C106.346657,36.685059 114.402092,40.895508 122.479614,45.063164 
	C122.935341,45.298298 123.686035,45.407497 124.108414,45.195213 
	C131.422348,41.519234 138.706284,37.783585 146.897079,33.601276 
	C138.037750,29.128868 130.245087,25.067871 122.303841,21.321812 
	C121.100899,20.754356 119.011391,21.261921 117.666115,21.937561 
	C111.291763,25.138968 105.033318,28.571161 98.286453,32.483841 
M102.920799,19.472115 
	C105.147766,18.216919 107.374733,16.961723 110.439629,15.234242 
	C102.394188,11.268248 94.884277,7.550457 87.347137,3.888710 
	C86.878029,3.660805 86.100334,3.678071 85.626068,3.909241 
	C78.373077,7.444520 71.146706,11.034427 63.197918,14.965843 
	C71.381638,19.271618 78.598053,23.184769 85.956566,26.809462 
	C87.010056,27.328394 88.898560,26.763163 90.145447,26.166466 
	C94.254234,24.200212 98.245827,21.989044 102.920799,19.472115 
z"/>
<path fill="#4D75C9" opacity="1.000000" stroke="none" 
	d="
M52.647751,80.401489 
	C55.663258,86.908440 58.480991,93.087410 61.298721,99.266388 
	C61.659786,99.203285 62.020855,99.140182 62.381920,99.077072 
	C62.381920,87.295364 62.381920,75.513649 62.381920,62.573742 
	C66.129936,64.339607 69.401619,66.321281 72.944351,67.458626 
	C80.334465,69.831131 82.465462,74.352997 82.184914,82.156425 
	C81.491119,101.453888 81.945961,120.792633 81.939354,140.114792 
	C81.938744,141.896942 81.939270,143.679092 81.939270,146.557175 
	C72.841789,140.248276 62.928482,137.226685 58.156738,126.645844 
	C52.012135,113.020844 44.554199,99.988121 37.273926,85.952225 
	C37.273926,98.390923 37.273926,109.922348 37.273926,122.659027 
	C31.128370,119.482567 25.957294,116.887299 20.897778,114.090233 
	C20.308090,113.764244 20.110817,112.322945 20.109163,111.398026 
	C20.067453,88.090599 20.076357,64.783081 20.076357,40.173885 
	C28.086903,45.423332 37.709732,46.129204 41.334297,56.468025 
	C44.196442,64.632088 48.684181,72.226250 52.647751,80.401489 
z"/>
<path fill="#4FA8CB" opacity="1.000000" stroke="none" 
	d="
M119.970032,108.176910 
	C119.971848,115.623466 120.023537,122.597862 119.926605,129.570190 
	C119.910713,130.713715 119.580093,132.486176 118.821564,132.889435 
	C109.879562,137.643265 100.828285,142.191544 91.031799,147.188721 
	C91.031799,136.291458 90.996552,126.526978 91.087830,116.763687 
	C91.096695,115.816589 91.632431,114.382843 92.355179,114.008705 
	C101.295128,109.380768 110.315300,104.907784 119.970329,100.066139 
	C119.970329,103.162674 119.970329,105.433365 119.970032,108.176910 
z"/>
<path fill="#4FA8CB" opacity="1.000000" stroke="none" 
	d="
M91.024200,99.597183 
	C91.027275,91.493576 91.189583,83.838570 90.955544,76.195709 
	C90.852661,72.836029 92.155251,71.321457 95.133652,69.964813 
	C103.204071,66.288811 111.074814,62.174412 119.969688,57.765480 
	C119.969688,62.849770 120.046791,67.510490 119.950325,72.167625 
	C119.827477,78.099052 121.461632,85.151283 118.809113,89.630280 
	C116.329582,93.817177 109.262596,95.320953 104.168633,97.915283 
	C100.112701,99.980934 95.987404,101.910393 91.342995,104.167572 
	C91.212883,102.497101 91.117607,101.273911 91.024200,99.597183 
z"/>
<path fill="#50A9CB" opacity="1.000000" stroke="none" 
	d="
M152.984314,106.911240 
	C154.510880,114.044731 151.324509,117.598305 145.395798,119.986183 
	C139.704758,122.278343 134.293610,125.265419 128.050461,128.290710 
	C128.050461,117.715996 128.020767,107.828918 128.102493,97.942757 
	C128.109634,97.080360 128.618179,95.779999 129.284500,95.432793 
	C136.860336,91.485123 144.512268,87.683510 152.984573,83.419731 
	C152.984573,91.654625 152.984573,99.039986 152.984314,106.911240 
z"/>
<path fill="#4FA8CB" opacity="1.000000" stroke="none" 
	d="
M128.030838,61.169846 
	C126.802246,54.585163 130.145538,51.978058 135.365692,49.912426 
	C141.184479,47.609917 146.627228,44.357071 152.985519,41.137135 
	C152.985519,51.551796 153.014786,61.244133 152.935150,70.935577 
	C152.928070,71.797417 152.448944,73.085312 151.789871,73.446106 
	C144.279068,77.557724 136.690598,81.527496 128.030853,86.113472 
	C128.030853,77.058746 128.030853,69.352196 128.030838,61.169846 
z"/>
<path fill="#4EA7CA" opacity="1.000000" stroke="none" 
	d="
M72.372505,45.350136 
	C82.974693,37.306503 93.062927,37.991814 103.191605,45.596180 
	C105.638245,47.433056 108.626923,48.544849 111.345734,50.027851 
	C111.581001,50.156181 111.661232,50.568768 112.084389,51.348480 
	C103.981491,55.422890 95.911110,59.520390 87.783340,63.500713 
	C87.051933,63.858894 85.810448,63.744831 85.041359,63.368629 
	C77.426186,59.643639 69.860718,55.817024 61.517319,51.636425 
	C65.493408,49.347412 68.777603,47.456715 72.372505,45.350136 
z"/>
<path fill="#4FA7C9" opacity="1.000000" stroke="none" 
	d="
M43.411148,42.652390 
	C37.804413,39.651196 32.522606,36.857517 26.199297,33.512962 
	C35.435497,28.903498 43.683704,24.733320 52.007687,20.720325 
	C52.796059,20.340250 54.190723,20.686312 55.082153,21.135418 
	C62.318386,24.781067 69.501686,28.531794 77.391098,32.606907 
	C68.689117,37.193302 60.658943,41.897732 52.177063,45.554405 
	C50.130913,46.436531 46.589741,43.850853 43.411148,42.652390 
z"/>
<path fill="#4FA8CA" opacity="1.000000" stroke="none" 
	d="
M98.510010,32.202488 
	C105.033318,28.571161 111.291763,25.138968 117.666115,21.937561 
	C119.011391,21.261921 121.100899,20.754356 122.303841,21.321812 
	C130.245087,25.067871 138.037750,29.128868 146.897079,33.601276 
	C138.706284,37.783585 131.422348,41.519234 124.108414,45.195213 
	C123.686035,45.407497 122.935341,45.298298 122.479614,45.063164 
	C114.402092,40.895508 106.346657,36.685059 98.510010,32.202488 
z"/>
<path fill="#4FA7C9" opacity="1.000000" stroke="none" 
	d="
M102.601608,19.672022 
	C98.245827,21.989044 94.254234,24.200212 90.145447,26.166466 
	C88.898560,26.763163 87.010056,27.328394 85.956566,26.809462 
	C78.598053,23.184769 71.381638,19.271618 63.197918,14.965843 
	C71.146706,11.034427 78.373077,7.444520 85.626068,3.909241 
	C86.100334,3.678071 86.878029,3.660805 87.347137,3.888710 
	C94.884277,7.550457 102.394188,11.268248 110.439629,15.234242 
	C107.374733,16.961723 105.147766,18.216919 102.601608,19.672022 
z"/>
</svg>