<svg version="1.1" id="Layer_1" xmlns="http://www.w3.org/2000/svg" xmlns:xlink="http://www.w3.org/1999/xlink" x="0px" y="0px"
	 width="100%" viewBox="0 0 158 148" enable-background="new 0 0 158 148" xml:space="preserve">
<path fill="#000000" opacity="1.000000" stroke="none" 
	d="
M89.000000,149.000000 
	C59.357178,149.000000 30.214355,149.000000 1.035767,149.000000 
	C1.035767,99.730865 1.035767,50.461697 1.035767,1.096265 
	C53.559277,1.096265 106.118790,1.096265 158.839142,1.096265 
	C158.839142,50.332916 158.839142,99.666405 158.839142,149.000000 
	C135.795395,149.000000 112.647697,149.000000 89.000000,149.000000 
M98.550674,105.272896 
	C98.294960,105.466095 98.127792,105.718063 97.128647,106.049141 
	C93.769775,106.095276 90.410896,106.141411 86.455856,106.066254 
	C86.051804,106.052475 85.647743,106.038696 84.807808,105.349548 
	C84.555817,115.611076 84.303825,125.872612 84.051834,136.134140 
	C84.685333,136.041595 85.318825,135.949066 86.871712,135.919769 
	C90.937752,135.290649 95.003792,134.661530 99.504250,133.616226 
	C99.609650,133.038361 99.715050,132.460495 99.855461,130.961197 
	C99.855095,122.679939 99.854729,114.398689 99.719032,105.651749 
	C99.542664,105.361069 99.291237,105.168236 98.550674,105.272896 
M61.245033,15.627004 
	C61.164570,25.392502 61.070797,35.157978 61.054947,44.923584 
	C61.054348,45.293266 61.808144,45.664177 63.111633,46.020187 
	C67.094017,45.984783 71.076408,45.949383 75.936638,45.987122 
	C76.289200,45.050461 76.938560,44.116749 76.947891,43.176674 
	C77.031006,34.806412 77.031326,26.434776 76.963051,18.064304 
	C76.955208,17.102983 76.378517,16.146301 75.133759,15.169040 
	C71.132881,15.178285 67.132004,15.187530 62.509884,15.099719 
	C62.301277,15.098683 62.092674,15.097648 61.245033,15.627004 
M62.817871,110.919319 
	C66.877518,110.610474 70.937172,110.301636 75.761101,109.759056 
	C76.157730,109.087738 76.891579,108.420380 76.899513,107.744492 
	C76.992577,99.815910 77.045105,91.884834 76.904823,83.958023 
	C76.886833,82.941704 75.716545,81.945770 74.188545,80.874367 
	C70.485512,80.638252 66.782478,80.402130 62.490643,80.090050 
	C62.293331,80.090942 62.096020,80.091843 61.238148,80.600441 
	C61.157791,86.673889 60.951065,92.749222 61.041737,98.820122 
	C61.101669,102.832809 61.588650,106.839127 62.817871,110.919319 
M73.058510,56.017277 
	C69.142113,56.017277 65.225723,56.017277 61.004925,56.017277 
	C61.004925,59.668346 60.792553,62.803181 61.100346,65.886086 
	C61.240570,67.290611 62.369148,69.723297 63.116997,69.749336 
	C66.761497,69.876251 70.428833,69.347435 74.436852,68.996803 
	C74.436852,68.996803 74.746979,68.828407 75.651085,68.724190 
	C75.764801,65.130531 75.974586,61.534847 75.899170,57.945156 
	C75.886368,57.335472 74.649193,56.751507 73.058510,56.017277 
M85.920715,71.958145 
	C87.870773,71.972267 89.863014,72.243629 91.759750,71.932579 
	C93.921349,71.578110 95.997780,70.704269 98.383377,69.677742 
	C98.580246,69.434219 98.808098,69.224335 99.446144,68.771866 
	C99.674904,68.538803 99.804016,68.259636 99.860176,67.006104 
	C99.846558,59.039734 99.832939,51.073364 99.875923,42.530933 
	C99.243507,42.066055 98.611092,41.601177 97.067345,41.117180 
	C93.735649,41.173458 90.403954,41.229740 86.595184,41.279068 
	C86.180489,41.493633 85.765800,41.708199 84.828850,41.306229 
	C84.551575,42.127926 84.039330,42.947906 84.033310,43.771587 
	C83.971840,52.187443 83.960289,60.604179 84.034782,69.019791 
	C84.043304,69.982407 84.661919,70.939629 85.920715,71.958145 
M36.987175,142.587494 
	C37.328896,143.371185 37.670616,144.154892 38.922436,144.972168 
	C42.892406,144.656708 46.862373,144.341248 51.417782,144.375809 
	C51.611767,143.441711 51.974499,142.507782 51.975319,141.573517 
	C52.003712,109.318977 52.008213,77.064392 51.956924,44.809910 
	C51.954998,43.599499 51.363628,42.390026 50.852451,40.837215 
	C50.559963,40.953850 50.267471,41.070488 49.052608,41.127056 
	C45.015602,41.134464 40.978592,41.141872 36.119297,41.435379 
	C36.079605,74.118706 36.033062,106.802025 36.040146,139.485336 
	C36.040321,140.292816 36.634586,141.100143 36.987175,142.587494 
M109.034370,7.061747 
	C108.689026,8.199728 108.043945,9.337185 108.041954,10.475767 
	C107.985550,42.792953 107.984039,75.110268 108.032021,107.427475 
	C108.033730,108.578194 108.629715,109.728020 109.875069,110.935722 
	C114.217102,110.632286 118.559143,110.328850 123.502449,110.237320 
	C123.673706,109.452667 123.994225,108.668106 123.994720,107.883339 
	C124.015030,75.557884 124.016495,43.232399 123.964195,10.907002 
	C123.962181,9.662502 123.407951,8.418897 122.540016,7.107516 
	C122.348366,7.108329 122.156708,7.109143 121.058159,7.038721 
	C117.705154,7.049630 114.352142,7.060539 110.447105,7.039527 
	C110.263374,7.055200 110.079643,7.070873 109.034370,7.061747 
M87.845787,95.335518 
	C100.110199,97.283195 99.115265,95.841866 98.984406,86.908897 
	C98.965286,85.603333 98.856537,84.299095 98.879616,82.138786 
	C94.057838,81.613678 89.236069,81.088562 84.005943,80.518982 
	C84.005943,85.364845 83.900452,89.142334 84.053535,92.909317 
	C84.122856,94.615311 84.274452,96.932716 87.845787,95.335518 
M99.513107,71.421249 
	C99.513107,71.421249 99.557175,71.505600 99.513107,71.421249 
z"/>
<path fill="#120752" opacity="1.000000" stroke="none" 
	d="
M36.941586,41.149277 
	C40.978592,41.141872 45.015602,41.134464 49.515373,41.455750 
	C49.992882,42.186337 50.007629,42.588226 50.015957,43.457405 
	C50.308006,48.930157 50.606468,53.935627 50.940262,59.287422 
	C50.946175,60.096191 50.916756,60.558632 50.640533,61.351063 
	C50.261898,63.491013 50.017647,65.300842 50.015392,67.110962 
	C49.988880,88.386124 49.999878,109.661339 49.998405,130.936539 
	C49.997566,143.044952 49.995434,143.044952 38.016151,142.510834 
	C38.008141,110.952492 38.018692,79.860435 37.962509,48.768513 
	C37.959026,46.839970 37.430984,44.912376 37.067352,42.684982 
	C36.972336,41.973511 36.956959,41.561394 36.941586,41.149277 
z"/>
<path fill="#120753" opacity="1.000000" stroke="none" 
	d="
M110.999138,7.071449 
	C114.352142,7.060539 117.705154,7.049630 121.522392,7.531774 
	C121.991638,39.660152 122.024139,71.295555 121.934784,102.930618 
	C121.929306,104.871422 120.997932,108.465714 120.434341,108.478340 
	C116.944481,108.556526 112.896217,111.057449 109.997772,106.531883 
	C109.976814,73.338699 109.954514,40.614246 109.938408,7.927425 
	C109.944611,7.965061 109.869148,7.953870 110.091545,7.852931 
	C110.601883,7.585083 110.830276,7.358234 110.999138,7.071449 
z"/>
<path fill="#130752" opacity="1.000000" stroke="none" 
	d="
M87.052025,106.187538 
	C90.410896,106.141411 93.769775,106.095276 97.813614,106.038765 
	C98.498573,106.028389 98.948814,106.032516 99.175415,106.051514 
	C99.402016,106.070511 99.854370,106.117432 99.854370,106.117432 
	C99.854729,114.398689 99.855095,122.679939 99.603470,131.484253 
	C99.257607,132.682327 99.163719,133.357361 99.069832,134.032410 
	C95.003792,134.661530 90.937752,135.290649 86.422379,135.708496 
	C85.973045,135.497208 85.959801,135.135880 85.877861,134.927368 
	C85.668770,134.440796 85.482605,134.210464 85.197029,133.762970 
	C85.219032,133.330795 85.281441,133.163437 85.688805,132.832306 
	C86.355057,131.118088 86.929688,129.571671 86.954384,128.016525 
	C87.069916,120.741516 87.033897,113.464096 87.052025,106.187538 
M98.548950,109.509346 
	C98.548950,109.509346 98.485352,109.539574 98.548950,109.509346 
z"/>
<path fill="#130752" opacity="1.000000" stroke="none" 
	d="
M99.819328,43.106995 
	C99.832939,51.073364 99.846558,59.039734 99.670677,67.618370 
	C99.264854,68.463448 99.126778,68.735924 99.066940,69.048073 
	C98.808098,69.224335 98.580246,69.434219 97.775032,69.848145 
	C95.841080,70.012955 94.486343,69.826103 93.194984,70.033615 
	C88.018509,70.865433 86.623146,68.593842 86.897133,63.649406 
	C87.309113,56.214539 87.047493,48.742348 87.072258,41.286022 
	C90.403954,41.229740 93.735649,41.173458 97.582169,41.412231 
	C98.671104,42.173851 99.245216,42.640423 99.819328,43.106995 
z"/>
<path fill="#130752" opacity="1.000000" stroke="none" 
	d="
M63.131119,15.196775 
	C67.132004,15.187530 71.132881,15.178285 75.600449,15.480916 
	C75.999664,16.190481 75.932182,16.588171 75.619202,17.321224 
	C75.269524,26.101835 75.165352,34.547081 74.677307,43.157459 
	C72.338707,43.550724 70.374504,43.717789 68.431160,44.019272 
	C63.913013,44.720207 62.734467,42.654526 62.921795,38.387341 
	C63.234104,31.273113 63.005619,24.135143 63.018650,16.703835 
	C63.065353,15.999258 63.098236,15.598017 63.131119,15.196775 
z"/>
<path fill="#130752" opacity="1.000000" stroke="none" 
	d="
M63.079445,80.166008 
	C66.782478,80.402130 70.485512,80.638252 74.603333,81.381424 
	C74.989494,90.901100 74.960861,99.913704 74.485107,108.946045 
	C72.715073,108.974442 71.392120,108.995430 70.069275,108.989693 
	C63.420383,108.960854 62.999527,108.561646 63.003029,101.993240 
	C63.006905,94.717491 63.052189,87.441750 63.079445,80.166008 
z"/>
<path fill="#E60588" opacity="1.000000" stroke="none" 
	d="
M98.789261,82.994240 
	C98.856537,84.299095 98.965286,85.603333 98.984406,86.908897 
	C99.115265,95.841866 100.110199,97.283195 87.437958,94.735680 
	C86.737381,91.690742 86.234360,89.245094 86.240807,86.800789 
	C86.244019,85.583435 87.076462,83.382378 87.712090,83.315277 
	C91.374962,82.928642 95.091141,83.047005 98.789261,82.994240 
z"/>
<path fill="#0A0242" opacity="1.000000" stroke="none" 
	d="
M109.996429,107.000610 
	C112.896217,111.057449 116.944481,108.556526 120.434341,108.478340 
	C120.997932,108.465714 121.929306,104.871422 121.934784,102.930618 
	C122.024139,71.295555 121.991638,39.660152 121.975830,7.567392 
	C122.156708,7.109143 122.348366,7.108329 122.792427,7.592421 
	C122.996948,42.060020 122.949066,76.042717 122.901184,110.025414 
	C118.559143,110.328850 114.217102,110.632286 109.427078,110.520042 
	C109.042709,109.071045 109.106323,108.037727 109.376556,107.003197 
	C109.583183,107.001984 109.996429,107.000610 109.996429,107.000610 
z"/>
<path fill="#FECA02" opacity="1.000000" stroke="none" 
	d="
M74.746979,68.828407 
	C74.746979,68.828407 74.436852,68.996803 73.947754,68.757004 
	C71.341850,68.343117 69.225243,68.031166 67.108200,68.028275 
	C64.160683,68.024269 63.089584,66.638023 62.962486,63.775566 
	C62.695438,57.761047 63.310608,57.011051 69.513901,56.998367 
	C70.998878,56.995331 72.483879,57.012054 74.234764,57.328281 
	C74.582764,61.367382 74.664871,65.097893 74.746979,68.828407 
z"/>
<path fill="#06013E" opacity="1.000000" stroke="none" 
	d="
M38.019569,142.977142 
	C49.995434,143.044952 49.997566,143.044952 49.998405,130.936539 
	C49.999878,109.661339 49.988880,88.386124 50.015392,67.110962 
	C50.017647,65.300842 50.261898,63.491013 50.679646,61.816757 
	C50.921158,89.310234 50.876751,116.667999 50.832340,144.025787 
	C46.862373,144.341248 42.892406,144.656708 38.464539,144.629211 
	C38.010948,143.849899 38.015259,143.413513 38.019569,142.977142 
z"/>
<path fill="#BFBBD4" opacity="1.000000" stroke="none" 
	d="
M109.169937,107.004410 
	C109.106323,108.037727 109.042709,109.071045 108.963913,110.491318 
	C108.629715,109.728020 108.033730,108.578194 108.032021,107.427475 
	C107.984039,75.110268 107.985550,42.792953 108.041954,10.475767 
	C108.043945,9.337185 108.689026,8.199728 109.493500,7.291935 
	C109.952621,7.522123 109.869148,7.953870 109.869148,7.953870 
	C109.869148,7.953870 109.944611,7.965061 109.577133,8.175285 
	C109.196419,41.258476 109.183182,74.131447 109.169937,107.004410 
z"/>
<path fill="#38335B" opacity="1.000000" stroke="none" 
	d="
M123.201813,110.131363 
	C122.949066,76.042717 122.996948,42.060020 123.077942,7.626100 
	C123.407951,8.418897 123.962181,9.662502 123.964195,10.907002 
	C124.016495,43.232399 124.015030,75.557884 123.994720,107.883339 
	C123.994225,108.668106 123.673706,109.452667 123.201813,110.131363 
z"/>
<path fill="#534F71" opacity="1.000000" stroke="none" 
	d="
M51.125061,144.200790 
	C50.876751,116.667999 50.921158,89.310234 50.926453,61.486771 
	C50.916756,60.558632 50.946175,60.096191 50.978382,58.827484 
	C50.935043,53.010517 50.888920,47.999821 50.898983,42.690216 
	C50.985760,41.987579 51.016350,41.583851 51.046940,41.180119 
	C51.363628,42.390026 51.954998,43.599499 51.956924,44.809910 
	C52.008213,77.064392 52.003712,109.318977 51.975319,141.573517 
	C51.974499,142.507782 51.611767,143.441711 51.125061,144.200790 
z"/>
<path fill="#060035" opacity="1.000000" stroke="none" 
	d="
M38.016151,142.510834 
	C38.015259,143.413513 38.010948,143.849899 38.009487,144.612427 
	C37.670616,144.154892 37.328896,143.371185 36.989418,141.784393 
	C37.043442,108.315651 37.095219,75.649994 37.146996,42.984341 
	C37.430984,44.912376 37.959026,46.839970 37.962509,48.768513 
	C38.018692,79.860435 38.008141,110.952492 38.016151,142.510834 
z"/>
<path fill="#E6E6FF" opacity="1.000000" stroke="none" 
	d="
M37.067352,42.684982 
	C37.095219,75.649994 37.043442,108.315651 36.971718,141.444427 
	C36.634586,141.100143 36.040321,140.292816 36.040146,139.485336 
	C36.033062,106.802025 36.079605,74.118706 36.530441,41.292328 
	C36.956959,41.561394 36.972336,41.973511 37.067352,42.684982 
z"/>
<path fill="#0D0343" opacity="1.000000" stroke="none" 
	d="
M86.833725,41.282547 
	C87.047493,48.742348 87.309113,56.214539 86.897133,63.649406 
	C86.623146,68.593842 88.018509,70.865433 93.194984,70.033615 
	C94.486343,69.826103 95.841080,70.012955 97.638954,70.037346 
	C95.997780,70.704269 93.921349,71.578110 91.759750,71.932579 
	C89.863014,72.243629 87.870773,71.972267 85.502289,71.546005 
	C85.172943,61.396839 85.262032,51.659801 85.351112,41.922768 
	C85.765800,41.708199 86.180489,41.493633 86.833725,41.282547 
z"/>
<path fill="#F4CA1C" opacity="1.000000" stroke="none" 
	d="
M73.968872,57.019695 
	C72.483879,57.012054 70.998878,56.995331 69.513901,56.998367 
	C63.310608,57.011051 62.695438,57.761047 62.962486,63.775566 
	C63.089584,66.638023 64.160683,68.024269 67.108200,68.028275 
	C69.225243,68.031166 71.341850,68.343117 73.773376,68.783936 
	C70.428833,69.347435 66.761497,69.876251 63.116997,69.749336 
	C62.369148,69.723297 61.240570,67.290611 61.100346,65.886086 
	C60.792553,62.803181 61.004925,59.668346 61.004925,56.017277 
	C65.225723,56.017277 69.142113,56.017277 73.520248,56.302521 
	C73.981995,56.587769 73.968872,57.019695 73.968872,57.019695 
z"/>
<path fill="#06002B" opacity="1.000000" stroke="none" 
	d="
M74.932236,108.926315 
	C74.960861,99.913704 74.989494,90.901100 75.049088,81.414444 
	C75.716545,81.945770 76.886833,82.941704 76.904823,83.958023 
	C77.045105,91.884834 76.992577,99.815910 76.899513,107.744492 
	C76.891579,108.420380 76.157730,109.087738 75.367172,109.609077 
	C74.959572,109.281502 74.945900,109.103905 74.932236,108.926315 
z"/>
<path fill="#D74094" opacity="1.000000" stroke="none" 
	d="
M98.834442,82.566513 
	C95.091141,83.047005 91.374962,82.928642 87.712090,83.315277 
	C87.076462,83.382378 86.244019,85.583435 86.240807,86.800789 
	C86.234360,89.245094 86.737381,91.690742 87.059433,94.574722 
	C84.274452,96.932716 84.122856,94.615311 84.053535,92.909317 
	C83.900452,89.142334 84.005943,85.364845 84.005943,80.518982 
	C89.236069,81.088562 94.057838,81.613678 98.834442,82.566513 
z"/>
<path fill="#080138" opacity="1.000000" stroke="none" 
	d="
M74.485107,108.946045 
	C74.945900,109.103905 74.959572,109.281502 74.985031,109.725945 
	C70.937172,110.301636 66.877518,110.610474 62.370869,110.427734 
	C61.915482,99.988342 61.907097,90.040535 61.898712,80.092735 
	C62.096020,80.091843 62.293331,80.090942 62.785042,80.128029 
	C63.052189,87.441750 63.006905,94.717491 63.003029,101.993240 
	C62.999527,108.561646 63.420383,108.960854 70.069275,108.989693 
	C71.392120,108.995430 72.715073,108.974442 74.485107,108.946045 
z"/>
<path fill="#0B023F" opacity="1.000000" stroke="none" 
	d="
M63.004829,17.007170 
	C63.005619,24.135143 63.234104,31.273113 62.921795,38.387341 
	C62.734467,42.654526 63.913013,44.720207 68.431160,44.019272 
	C70.374504,43.717789 72.338707,43.550724 74.860870,43.155937 
	C75.428314,42.989277 75.796799,43.001068 75.875687,43.315872 
	C75.655975,44.391773 75.357384,45.152878 75.058792,45.913982 
	C71.076408,45.949383 67.094017,45.984783 62.581795,45.562759 
	C62.082809,35.733685 62.113663,26.362040 62.359600,16.994526 
	C62.574680,16.998657 63.004829,17.007170 63.004829,17.007170 
z"/>
<path fill="#0A0242" opacity="1.000000" stroke="none" 
	d="
M86.753937,106.126892 
	C87.033897,113.464096 87.069916,120.741516 86.954384,128.016525 
	C86.929688,129.571671 86.355057,131.118088 85.601868,132.370651 
	C85.194550,123.390160 85.219124,114.707542 85.243690,106.024918 
	C85.647743,106.038696 86.051804,106.052475 86.753937,106.126892 
z"/>
<path fill="#DAD8EE" opacity="1.000000" stroke="none" 
	d="
M85.089981,41.614498 
	C85.262032,51.659801 85.172943,61.396839 85.040756,71.516617 
	C84.661919,70.939629 84.043304,69.982407 84.034782,69.019791 
	C83.960289,60.604179 83.971840,52.187443 84.033310,43.771587 
	C84.039330,42.947906 84.551575,42.127926 85.089981,41.614498 
z"/>
<path fill="#DBDAF0" opacity="1.000000" stroke="none" 
	d="
M85.025749,105.687233 
	C85.219124,114.707542 85.194550,123.390160 85.256912,132.534439 
	C85.281441,133.163437 85.219032,133.330795 85.135117,134.021301 
	C85.395676,134.741592 85.677734,134.938736 85.959801,135.135880 
	C85.959801,135.135880 85.973045,135.497208 85.962685,135.676880 
	C85.318825,135.949066 84.685333,136.041595 84.051834,136.134140 
	C84.303825,125.872612 84.555817,115.611076 85.025749,105.687233 
z"/>
<path fill="#E0E0FD" opacity="1.000000" stroke="none" 
	d="
M75.497711,45.950554 
	C75.357384,45.152878 75.655975,44.391773 75.966652,42.854523 
	C75.940727,33.714203 75.902718,25.350031 75.864700,16.985861 
	C75.932182,16.588171 75.999664,16.190481 76.066353,15.490130 
	C76.378517,16.146301 76.955208,17.102983 76.963051,18.064304 
	C77.031326,26.434776 77.031006,34.806412 76.947891,43.176674 
	C76.938560,44.116749 76.289200,45.050461 75.497711,45.950554 
z"/>
<path fill="#5C5780" opacity="1.000000" stroke="none" 
	d="
M62.144520,16.990395 
	C62.113663,26.362040 62.082809,35.733685 62.131172,45.569923 
	C61.808144,45.664177 61.054348,45.293266 61.054947,44.923584 
	C61.070797,35.157978 61.164570,25.392502 61.603806,15.677870 
	C62.023224,16.149290 62.083874,16.569841 62.144520,16.990395 
z"/>
<path fill="#5B577D" opacity="1.000000" stroke="none" 
	d="
M61.568428,80.346588 
	C61.907097,90.040535 61.915482,99.988342 61.904152,110.392220 
	C61.588650,106.839127 61.101669,102.832809 61.041737,98.820122 
	C60.951065,92.749222 61.157791,86.673889 61.568428,80.346588 
z"/>
<path fill="#E8C843" opacity="1.000000" stroke="none" 
	d="
M74.234764,57.328281 
	C73.968872,57.019695 73.981995,56.587769 73.979828,56.371716 
	C74.649193,56.751507 75.886368,57.335472 75.899170,57.945156 
	C75.974586,61.534847 75.764801,65.130531 75.199036,68.776299 
	C74.664871,65.097893 74.582764,61.367382 74.234764,57.328281 
z"/>
<path fill="#08012E" opacity="1.000000" stroke="none" 
	d="
M99.847626,42.818962 
	C99.245216,42.640423 98.671104,42.173851 98.037834,41.421791 
	C98.611092,41.601177 99.243507,42.066055 99.847626,42.818962 
z"/>
<path fill="#060035" opacity="1.000000" stroke="none" 
	d="
M50.949696,41.008667 
	C51.016350,41.583851 50.985760,41.987579 50.694107,42.691692 
	C50.433041,42.992073 50.022373,42.990120 50.022373,42.990120 
	C50.007629,42.588226 49.992882,42.186337 49.976562,41.485783 
	C50.267471,41.070488 50.559963,40.953850 50.949696,41.008667 
z"/>
<path fill="#07012D" opacity="1.000000" stroke="none" 
	d="
M99.287041,133.824310 
	C99.163719,133.357361 99.257607,132.682327 99.585968,131.944962 
	C99.715050,132.460495 99.609650,133.038361 99.287041,133.824310 
z"/>
<path fill="#07012D" opacity="1.000000" stroke="none" 
	d="
M62.359600,16.994526 
	C62.083874,16.569841 62.023224,16.149290 61.923325,15.412674 
	C62.092674,15.097648 62.301277,15.098683 62.820503,15.148247 
	C63.098236,15.598017 63.065353,15.999258 63.018650,16.703835 
	C63.004829,17.007170 62.574680,16.998657 62.359600,16.994526 
z"/>
<path fill="#0E0641" opacity="1.000000" stroke="none" 
	d="
M110.091545,7.852931 
	C109.869148,7.953870 109.952621,7.522123 109.924271,7.304335 
	C110.079643,7.070873 110.263374,7.055200 110.723122,7.055488 
	C110.830276,7.358234 110.601883,7.585083 110.091545,7.852931 
z"/>
<path fill="#07012D" opacity="1.000000" stroke="none" 
	d="
M99.786697,105.884590 
	C99.854370,106.117432 99.402016,106.070511 99.186798,105.811615 
	C98.971581,105.552711 98.964760,105.073265 98.964760,105.073265 
	C99.291237,105.168236 99.542664,105.361069 99.786697,105.884590 
z"/>
<path fill="#0A0242" opacity="1.000000" stroke="none" 
	d="
M98.757721,105.173080 
	C98.964760,105.073265 98.971581,105.552711 98.960197,105.792618 
	C98.948814,106.032516 98.498573,106.028389 98.273865,106.028595 
	C98.127792,105.718063 98.294960,105.466095 98.757721,105.173080 
z"/>
<path fill="#08012E" opacity="1.000000" stroke="none" 
	d="
M99.535141,71.463425 
	C99.557175,71.505600 99.513107,71.421249 99.535141,71.463425 
z"/>
<path fill="#08012E" opacity="1.000000" stroke="none" 
	d="
M99.256546,68.909973 
	C99.126778,68.735924 99.264854,68.463448 99.657333,68.082504 
	C99.804016,68.259636 99.674904,68.538803 99.256546,68.909973 
z"/>
<path fill="#06013E" opacity="1.000000" stroke="none" 
	d="
M50.015957,43.457405 
	C50.022373,42.990120 50.433041,42.992073 50.637917,42.990597 
	C50.888920,47.999821 50.935043,53.010517 50.943050,58.481155 
	C50.606468,53.935627 50.308006,48.930157 50.015957,43.457405 
z"/>
<path fill="#0E0641" opacity="1.000000" stroke="none" 
	d="
M109.376556,107.003197 
	C109.183182,74.131447 109.196419,41.258476 109.570930,8.137650 
	C109.954514,40.614246 109.976814,73.338699 109.997772,106.531883 
	C109.996429,107.000610 109.583183,107.001984 109.376556,107.003197 
z"/>
<path fill="#110849" opacity="1.000000" stroke="none" 
	d="
M98.517151,109.524460 
	C98.485352,109.539574 98.548950,109.509346 98.517151,109.524460 
z"/>
<path fill="#0A0242" opacity="1.000000" stroke="none" 
	d="
M85.877861,134.927368 
	C85.677734,134.938736 85.395676,134.741592 85.175522,134.286133 
	C85.482605,134.210464 85.668770,134.440796 85.877861,134.927368 
z"/>
<path fill="#07012D" opacity="1.000000" stroke="none" 
	d="
M75.619202,17.321224 
	C75.902718,25.350031 75.940727,33.714203 75.887772,42.539719 
	C75.796799,43.001068 75.428314,42.989277 75.244743,42.990799 
	C75.165352,34.547081 75.269524,26.101835 75.619202,17.321224 
z"/>
</svg>