<svg version="1.1" id="Layer_1" xmlns="http://www.w3.org/2000/svg" xmlns:xlink="http://www.w3.org/1999/xlink" x="0px" y="0px"
	 width="100%" viewBox="0 0 630 630" enable-background="new 0 0 630 630" xml:space="preserve">
<path fill="#000000" opacity="1.000000" stroke="none" 
	d="
M94.000008,631.000000 
	C63.012558,631.000000 32.025120,631.000000 1.018839,631.000000 
	C1.018839,421.097626 1.018839,211.195282 1.018839,1.000000 
	C117.021851,1.000000 233.043945,1.000000 349.851807,1.271420 
	C350.183289,1.999568 349.811493,2.646969 349.262421,2.884456 
	C340.924133,6.490891 335.949371,13.073326 334.888672,21.757944 
	C333.872772,30.075550 334.347107,38.575169 334.092407,47.458641 
	C334.066437,57.613819 334.114532,67.305153 334.089111,77.460236 
	C334.065918,94.281158 334.116302,110.638329 334.093933,127.459457 
	C334.069916,136.947372 334.118683,145.971329 334.095123,155.345673 
	C334.008209,156.411407 333.993652,157.126770 333.513428,157.911163 
	C298.635864,157.985321 264.223022,158.133896 229.812622,157.908737 
	C219.410660,157.840668 208.891312,165.273880 206.079803,177.421295 
	C205.662292,179.077530 205.050995,180.310852 205.044510,181.547333 
	C205.006927,188.698273 205.112045,195.849960 205.092804,203.464508 
	C205.067993,214.283157 205.119247,224.638718 205.093475,235.457031 
	C205.066513,241.612473 205.116547,247.305130 205.091232,253.460968 
	C205.066406,260.281982 205.116928,266.639862 205.092194,273.461060 
	C205.066925,280.615448 205.116928,287.306519 205.091751,294.460938 
	C204.980072,301.923126 204.943588,308.921906 204.445404,315.955261 
	C170.519287,315.992279 137.048294,316.384247 103.593399,315.820709 
	C88.556610,315.567383 77.037376,329.775299 78.091087,343.461060 
	C78.065514,352.615570 78.116257,361.306793 78.090919,370.461334 
	C78.065689,379.948792 78.116531,388.972931 78.091347,398.460449 
	C78.065872,407.615051 78.116425,416.306274 78.091400,425.460876 
	C78.066483,433.948669 78.117142,441.973053 78.092194,450.460815 
	C78.066826,459.282318 78.117073,467.640381 78.092087,476.461853 
	C78.067551,488.948212 78.118240,500.971100 78.093033,513.457703 
	C78.066635,524.613159 78.116142,535.304993 78.090523,546.460327 
	C78.066086,557.281921 78.116783,567.639954 78.093048,578.461548 
	C78.067970,586.616211 78.117317,594.307251 78.092400,602.438599 
	C77.839058,614.404907 82.243401,623.335571 92.650505,628.943604 
	C93.285347,629.285706 93.558556,630.298950 94.000008,631.000000 
z"/>
<path fill="#000000" opacity="1.000000" stroke="none" 
	d="
M538.000000,1.000003 
	C568.983398,1.000000 599.966736,1.000000 630.947021,1.000002 
	C630.943970,211.000000 630.943970,421.000000 630.943970,631.000000 
	C600.237793,631.000000 569.587524,631.000000 538.289795,630.660034 
	C541.072083,627.616943 545.049744,625.379639 547.822571,622.118042 
	C554.489441,614.276001 554.621399,604.661133 553.887024,594.525391 
	C553.909790,569.037903 553.871277,544.014893 553.894348,518.527222 
	C553.915405,498.039368 553.874939,478.016083 553.897217,457.528259 
	C553.916870,440.706421 553.873840,424.349060 553.894775,407.527466 
	C553.917358,385.039734 553.875854,363.016235 553.898560,340.528381 
	C553.919617,326.375214 553.876465,312.686371 553.900269,298.533203 
	C553.922791,288.377594 553.878235,278.686279 553.900757,268.530884 
	C553.922974,257.376434 553.878235,246.686050 553.901306,235.531677 
	C553.924072,223.376511 553.878967,211.685364 553.901245,199.530243 
	C553.923462,186.709244 553.878174,174.352188 553.901550,161.531281 
	C553.924622,149.710083 553.879028,138.352783 553.902466,126.531616 
	C553.926758,109.710625 553.882080,93.353470 553.905701,76.532265 
	C553.927185,66.377075 553.880310,56.685947 553.902893,46.531067 
	C553.981689,39.255936 554.382019,32.416550 553.896606,25.640621 
	C553.352478,18.046206 550.728943,11.220633 544.113647,6.503763 
	C541.895447,4.922117 540.027832,2.848666 538.000000,1.000003 
z"/>
<path fill="#E9B713" opacity="1.000000" stroke="none" 
	d="
M537.531372,1.000003 
	C540.027832,2.848666 541.895447,4.922117 544.113647,6.503763 
	C550.728943,11.220633 553.352478,18.046206 553.896606,25.640621 
	C554.382019,32.416550 553.981689,39.255936 553.492554,46.556450 
	C550.055542,47.363708 547.098572,47.957119 544.141052,47.959499 
	C478.436981,48.012356 412.732849,48.018764 347.028778,47.956863 
	C342.741058,47.952824 338.453918,47.329857 334.166504,46.994793 
	C334.347107,38.575169 333.872772,30.075550 334.888672,21.757944 
	C335.949371,13.073326 340.924133,6.490891 349.262421,2.884456 
	C349.811493,2.646969 350.183289,1.999568 350.318787,1.271420 
	C412.354218,1.000000 474.708466,1.000000 537.531372,1.000003 
z"/>
<path fill="#F3CE36" opacity="1.000000" stroke="none" 
	d="
M94.468666,631.000000 
	C93.558556,630.298950 93.285347,629.285706 92.650505,628.943604 
	C82.243401,623.335571 77.839058,614.404907 78.550415,602.439209 
	C151.760132,601.988159 224.437561,601.976685 297.326996,602.296631 
	C297.692657,612.085388 297.846313,621.542725 298.000000,631.000000 
	C230.312439,631.000000 162.624878,631.000000 94.468666,631.000000 
z"/>
<path fill="#B45701" opacity="1.000000" stroke="none" 
	d="
M553.825745,594.989807 
	C554.621399,604.661133 554.489441,614.276001 547.822571,622.118042 
	C545.049744,625.379639 541.072083,627.616943 537.821167,630.660034 
	C500.312439,631.000000 462.624878,631.000000 424.499298,630.532593 
	C424.062775,616.715820 424.064240,603.366333 424.194427,589.661133 
	C424.246033,578.207825 424.168945,567.110229 424.226135,555.639526 
	C424.548218,549.172424 424.736023,543.078369 425.340393,536.988037 
	C428.095917,537.872559 431.290710,538.067566 432.635254,539.745361 
	C441.521851,550.834229 445.203430,564.289795 449.055878,577.643433 
	C451.649689,586.634399 456.989380,594.234436 467.972931,594.094238 
	C492.292328,593.783630 516.618652,593.949890 540.941650,594.042175 
	C545.237488,594.058472 549.531128,594.659058 553.825745,594.989807 
z"/>
<path fill="#DF9A03" opacity="1.000000" stroke="none" 
	d="
M424.065735,590.016907 
	C424.064240,603.366333 424.062775,616.715820 424.030640,630.532593 
	C382.312439,631.000000 340.624878,631.000000 298.468628,631.000000 
	C297.846313,621.542725 297.692657,612.085388 297.328796,601.862427 
	C297.396179,597.392395 297.673767,593.687927 298.424805,589.989380 
	C340.620728,590.002441 382.343231,590.009644 424.065735,590.016907 
z"/>
<path fill="#E1A910" opacity="1.000000" stroke="none" 
	d="
M553.837341,76.996323 
	C553.882080,93.353470 553.926758,109.710625 553.492126,126.556839 
	C550.055542,127.363937 547.098511,127.957176 544.140991,127.959557 
	C478.437042,128.012375 412.732971,128.018768 347.029022,127.956902 
	C342.741272,127.952866 338.454132,127.330330 334.166687,126.995491 
	C334.116302,110.638329 334.065918,94.281158 334.488678,77.542114 
	C337.254486,77.440643 339.546967,77.964577 341.839813,77.966042 
	C409.885773,78.009659 477.931793,78.012650 545.977722,77.959023 
	C548.597900,77.956955 551.217468,77.331360 553.837341,76.996323 
z"/>
<path fill="#F6D85A" opacity="1.000000" stroke="none" 
	d="
M78.168930,512.994019 
	C78.118240,500.971100 78.067551,488.948212 78.550095,476.462341 
	C151.732040,476.000641 224.380768,476.001892 297.163696,476.319702 
	C297.518494,477.752319 297.739044,478.868408 297.949280,480.428772 
	C297.838745,484.775238 297.750549,488.677795 297.635559,492.579498 
	C297.444672,499.056152 297.236542,505.532318 296.564819,512.006104 
	C231.731857,512.001953 167.369720,511.964722 103.007744,512.042908 
	C94.727768,512.052979 86.448517,512.662231 78.168930,512.994019 
z"/>
<path fill="#F5D54F" opacity="1.000000" stroke="none" 
	d="
M78.093033,513.457703 
	C86.448517,512.662231 94.727768,512.052979 103.007744,512.042908 
	C167.369720,511.964722 231.731857,512.001953 296.578918,512.440918 
	C297.352844,520.244080 297.641785,527.609802 297.866882,535.360352 
	C297.556580,539.168030 297.310120,542.590942 296.591003,546.010437 
	C223.467453,546.003601 150.816559,546.000183 78.165657,545.996765 
	C78.116142,535.304993 78.066635,524.613159 78.093033,513.457703 
z"/>
<path fill="#F7DE70" opacity="1.000000" stroke="none" 
	d="
M205.170502,234.994278 
	C205.119247,224.638718 205.067993,214.283157 205.550720,203.464340 
	C278.767181,203.005661 351.449646,203.010239 424.178436,203.463531 
	C424.442444,207.604324 424.660126,211.296432 424.832092,215.456207 
	C424.565674,222.293060 424.344940,228.662216 423.647827,235.023010 
	C350.504486,235.007858 277.837494,235.001068 205.170502,234.994278 
z"/>
<path fill="#F4D244" opacity="1.000000" stroke="none" 
	d="
M78.090523,546.460327 
	C150.816559,546.000183 223.467453,546.003601 296.605408,546.423340 
	C297.382385,549.891235 297.672333,552.942749 297.943512,556.420166 
	C297.635529,563.565491 297.346283,570.284912 296.584839,577.003174 
	C226.250381,577.001343 156.388168,576.989136 86.526009,577.042114 
	C83.739594,577.044250 80.953651,577.665344 78.167480,577.997986 
	C78.116783,567.639954 78.066086,557.281921 78.090523,546.460327 
z"/>
<path fill="#DEA40F" opacity="1.000000" stroke="none" 
	d="
M334.093933,127.459457 
	C338.454132,127.330330 342.741272,127.952866 347.029022,127.956902 
	C412.732971,128.018768 478.437042,128.012375 544.140991,127.959557 
	C547.098511,127.957176 550.055542,127.363937 553.423096,127.020691 
	C553.879028,138.352783 553.924622,149.710083 553.443726,161.532532 
	C519.605652,161.998444 486.294037,162.008560 452.982483,161.976501 
	C451.006958,161.974594 448.762390,162.181488 447.099487,161.363373 
	C434.882324,155.352814 421.791962,155.001175 408.618835,155.000137 
	C383.801697,154.998169 358.984589,154.996857 334.167450,154.995285 
	C334.118683,145.971329 334.069916,136.947372 334.093933,127.459457 
z"/>
<path fill="#E5B012" opacity="1.000000" stroke="none" 
	d="
M553.905701,76.532257 
	C551.217468,77.331360 548.597900,77.956955 545.977722,77.959023 
	C477.931793,78.012650 409.885773,78.009659 341.839813,77.966042 
	C339.546967,77.964577 337.254486,77.440643 334.562256,77.078362 
	C334.114532,67.305153 334.066437,57.613819 334.092407,47.458641 
	C338.453918,47.329857 342.741058,47.952824 347.028778,47.956863 
	C412.732849,48.018764 478.436981,48.012356 544.141052,47.959499 
	C547.098572,47.957119 550.055542,47.363708 553.423096,47.020203 
	C553.880310,56.685947 553.927185,66.377075 553.905701,76.532257 
z"/>
<path fill="#F8E178" opacity="1.000000" stroke="none" 
	d="
M78.167366,397.997070 
	C78.116531,388.972931 78.065689,379.948792 78.548973,370.461914 
	C151.743240,370.003357 224.403366,370.007538 297.119141,370.361694 
	C297.132812,379.803314 297.090881,388.895020 296.577209,397.990051 
	C223.459457,397.994659 150.813416,397.995880 78.167366,397.997070 
z"/>
<path fill="#F8E380" opacity="1.000000" stroke="none" 
	d="
M297.063477,370.011749 
	C224.403366,370.007538 151.743240,370.003357 78.625046,369.998596 
	C78.116257,361.306793 78.065514,352.615570 78.549118,343.461639 
	C151.729980,343.000946 224.376495,343.002960 297.036804,343.415588 
	C297.115326,349.912445 297.180023,355.998657 297.210205,362.522278 
	C297.138306,365.310394 297.100891,367.661072 297.063477,370.011749 
z"/>
<path fill="#F7DE70" opacity="1.000000" stroke="none" 
	d="
M78.091347,398.460449 
	C150.813416,397.995880 223.459457,397.994659 296.805298,398.003784 
	C297.505066,398.014160 297.962219,398.040619 297.955627,398.496735 
	C297.869598,407.293365 297.790192,415.633881 297.260254,423.980164 
	C226.717606,423.990631 156.625443,423.983887 86.533348,424.042145 
	C83.744293,424.044434 80.955750,424.664948 78.166969,424.997437 
	C78.116425,416.306274 78.065872,407.615051 78.091347,398.460449 
z"/>
<path fill="#F7DC69" opacity="1.000000" stroke="none" 
	d="
M78.091400,425.460876 
	C80.955750,424.664948 83.744293,424.044434 86.533348,424.042145 
	C156.625443,423.983887 226.717606,423.990631 297.330872,424.415710 
	C297.888031,426.891510 297.924072,428.937561 297.950623,431.421631 
	C297.649872,437.913239 297.358643,443.966797 296.594543,450.015137 
	C223.470383,450.005768 150.819092,450.001587 78.167801,449.997406 
	C78.117142,441.973053 78.066483,433.948669 78.091400,425.460876 
z"/>
<path fill="#F6DA61" opacity="1.000000" stroke="none" 
	d="
M78.092194,450.460815 
	C150.819092,450.001587 223.470383,450.005768 296.601593,450.436462 
	C297.064148,459.243042 297.046814,467.623077 297.029480,476.003143 
	C224.380768,476.001892 151.732040,476.000641 78.625320,475.998901 
	C78.117073,467.640381 78.066826,459.282318 78.092194,450.460815 
z"/>
<path fill="#F9E587" opacity="1.000000" stroke="none" 
	d="
M297.023010,343.004944 
	C224.376495,343.002960 151.729980,343.000946 78.625435,342.998352 
	C77.037376,329.775299 88.556610,315.567383 103.593399,315.820709 
	C137.048294,316.384247 170.519287,315.992279 204.918121,315.977936 
	C226.753647,315.977386 247.658005,315.794128 268.553650,316.138153 
	C273.709717,316.223083 278.837555,318.022858 284.198181,319.283020 
	C293.373810,324.803131 297.429260,332.706085 297.023010,343.004944 
z"/>
<path fill="#F4D03E" opacity="1.000000" stroke="none" 
	d="
M78.093048,578.461548 
	C80.953651,577.665344 83.739594,577.044250 86.526009,577.042114 
	C156.388168,576.989136 226.250381,577.001343 296.734344,577.384460 
	C297.554535,581.839111 297.752960,585.911316 297.951355,589.983521 
	C297.673767,593.687927 297.396179,597.392395 297.116791,601.531006 
	C224.437561,601.976685 151.760132,601.988159 78.624680,601.999023 
	C78.117317,594.307251 78.067970,586.616211 78.093048,578.461548 
z"/>
<path fill="#F8E178" opacity="1.000000" stroke="none" 
	d="
M424.132111,203.014816 
	C351.449646,203.010239 278.767181,203.005661 205.626785,203.001251 
	C205.112045,195.849960 205.006927,188.698273 205.044510,181.547333 
	C205.050995,180.310852 205.662292,179.077530 206.496704,177.427124 
	C209.291885,177.340378 211.585754,177.964569 213.877075,177.955292 
	C283.535156,177.673584 353.192993,177.329529 423.048340,177.364258 
	C423.747040,180.820618 424.248230,183.907898 424.605286,187.408722 
	C424.351471,192.886444 424.241791,197.950638 424.132111,203.014816 
z"/>
<path fill="#F1CD5B" opacity="1.000000" stroke="none" 
	d="
M283.978363,319.034332 
	C278.837555,318.022858 273.709717,316.223083 268.553650,316.138153 
	C247.658005,315.794128 226.753647,315.977386 205.379807,315.943420 
	C204.943588,308.921906 204.980072,301.923126 205.549759,294.461609 
	C278.886414,293.995850 351.689850,293.992798 424.581543,294.406250 
	C424.482666,301.886047 424.295593,308.949341 423.629059,316.008698 
	C379.353058,316.003174 335.556549,316.004242 291.760010,315.994202 
	C288.754089,315.993500 285.627441,315.599884 283.978363,319.034332 
z"/>
<path fill="#DB9E0E" opacity="1.000000" stroke="none" 
	d="
M334.095123,155.345673 
	C358.984589,154.996857 383.801697,154.998169 408.618835,155.000137 
	C421.791962,155.001175 434.882324,155.352814 447.099487,161.363373 
	C448.762390,162.181488 451.006958,161.974594 452.982483,161.976501 
	C486.294037,162.008560 519.605652,161.998444 553.375061,161.996399 
	C553.878174,174.352188 553.923462,186.709244 553.443359,199.531784 
	C526.424377,199.998184 499.910187,199.400421 473.447998,200.311890 
	C463.664795,200.648849 458.496521,194.991638 452.971344,189.559708 
	C446.313873,183.014587 440.409027,175.645691 431.370972,172.330017 
	C428.182068,171.160156 424.481140,171.386124 420.730286,170.800415 
	C414.542908,162.033142 406.335693,157.968872 395.954681,157.969040 
	C375.296143,157.969391 354.637604,157.889084 333.979065,157.842102 
	C333.993652,157.126770 334.008209,156.411407 334.095123,155.345673 
z"/>
<path fill="#F2D160" opacity="1.000000" stroke="none" 
	d="
M424.493317,293.989746 
	C351.689850,293.992798 278.886414,293.995850 205.624939,293.998230 
	C205.116928,287.306519 205.066925,280.615448 205.550171,273.461639 
	C243.855179,272.999268 281.626923,272.999725 319.398682,272.999939 
	C352.344971,273.000122 385.291412,272.961670 418.237152,273.096008 
	C420.197021,273.103973 422.151276,274.496643 424.178894,275.634155 
	C424.330872,282.012146 424.412109,288.000946 424.493317,293.989746 
z"/>
<path fill="#F3D466" opacity="1.000000" stroke="none" 
	d="
M424.108124,275.244965 
	C422.151276,274.496643 420.197021,273.103973 418.237152,273.096008 
	C385.291412,272.961670 352.344971,273.000122 319.398682,272.999939 
	C281.626923,272.999725 243.855179,272.999268 205.625427,272.998291 
	C205.116928,266.639862 205.066406,260.281982 205.549286,253.461578 
	C278.763733,253.002792 351.444763,253.006577 424.168488,253.471771 
	C424.426544,260.935669 424.641937,267.938110 424.666107,275.007019 
	C424.474884,275.073486 424.108124,275.244965 424.108124,275.244965 
z"/>
<path fill="#F8E380" opacity="1.000000" stroke="none" 
	d="
M333.513428,157.911148 
	C354.637604,157.889084 375.296143,157.969391 395.954681,157.969040 
	C406.335693,157.968872 414.542908,162.033142 420.806061,171.147339 
	C421.727295,173.444168 422.289093,175.219681 422.850861,176.995193 
	C353.192993,177.329529 283.535156,177.673584 213.877075,177.955292 
	C211.585754,177.964569 209.291885,177.340378 206.582291,177.005646 
	C208.891312,165.273880 219.410660,157.840668 229.812622,157.908737 
	C264.223022,158.133896 298.635864,157.985321 333.513428,157.911148 
z"/>
<path fill="#F4D76B" opacity="1.000000" stroke="none" 
	d="
M424.125824,253.010345 
	C351.444763,253.006577 278.763733,253.002792 205.624634,252.998413 
	C205.116547,247.305130 205.066513,241.612473 205.093475,235.457031 
	C277.837494,235.001068 350.504486,235.007858 423.691895,235.483765 
	C424.374969,240.316132 424.537628,244.679352 424.578003,249.425262 
	C424.345795,250.875412 424.235809,251.942886 424.125824,253.010345 
z"/>
<path fill="#B96103" opacity="1.000000" stroke="none" 
	d="
M553.887024,594.525391 
	C549.531128,594.659058 545.237488,594.058472 540.941650,594.042175 
	C516.618652,593.949890 492.292328,593.783630 467.972931,594.094238 
	C456.989380,594.234436 451.649689,586.634399 449.055878,577.643433 
	C445.203430,564.289795 441.521851,550.834229 432.635254,539.745361 
	C431.290710,538.067566 428.095917,537.872559 425.290344,536.713013 
	C424.566742,535.951050 424.309784,535.467773 424.069458,534.552124 
	C424.089508,516.086914 424.092896,498.054047 424.163086,479.626892 
	C424.311707,475.494324 424.393494,471.756012 424.844421,468.016052 
	C427.309021,469.083710 430.345154,469.600983 431.348785,471.311066 
	C438.377380,483.287537 445.322540,495.339661 451.604614,507.717682 
	C455.442047,515.278748 459.929504,518.990906 468.526703,518.994446 
	C496.962067,519.006165 525.397400,518.994507 553.832764,518.991821 
	C553.871277,544.014893 553.909790,569.037903 553.887024,594.525391 
z"/>
<path fill="#C97E08" opacity="1.000000" stroke="none" 
	d="
M424.178894,275.634155 
	C424.108124,275.244965 424.474884,275.073486 425.049561,275.035736 
	C427.919464,276.675049 431.159912,277.858032 432.340942,280.117462 
	C436.699799,288.456696 440.387054,297.147614 444.294495,305.721008 
	C444.632629,306.462891 444.865967,307.302979 444.925262,308.113708 
	C445.585632,317.143585 448.908142,325.426086 454.448090,332.199585 
	C458.831329,337.558868 463.730469,342.558105 472.567139,342.258484 
	C495.343048,341.486267 518.162842,342.051239 540.964478,341.954559 
	C545.255737,341.936371 549.544495,341.328461 553.834351,340.992706 
	C553.875854,363.016235 553.917358,385.039734 553.478516,407.523865 
	C548.200745,407.656311 543.404297,407.063873 538.605652,407.044586 
	C514.439697,406.947296 490.271820,407.119293 466.108521,406.847565 
	C463.092499,406.813660 458.888397,405.572205 457.336609,403.393311 
	C453.566681,398.099976 450.563110,392.111359 448.165466,386.041534 
	C446.504211,381.836029 447.210938,376.649139 445.376587,372.567230 
	C441.069122,362.982178 438.800629,352.438019 431.505280,344.138245 
	C429.327637,341.660828 427.909485,339.646027 424.410095,339.551575 
	C424.246826,331.397552 424.177673,323.705078 424.108521,316.012634 
	C424.295593,308.949341 424.482666,301.886047 424.581543,294.406250 
	C424.412109,288.000946 424.330872,282.012146 424.178894,275.634155 
z"/>
<path fill="#BF6C05" opacity="1.000000" stroke="none" 
	d="
M553.894348,518.527222 
	C525.397400,518.994507 496.962067,519.006165 468.526703,518.994446 
	C459.929504,518.990906 455.442047,515.278748 451.604614,507.717682 
	C445.322540,495.339661 438.377380,483.287537 431.348785,471.311066 
	C430.345154,469.600983 427.309021,469.083710 424.736572,467.568695 
	C424.244781,464.641418 424.204315,462.159668 424.219727,459.678284 
	C424.279114,450.102051 424.356354,440.525879 424.536072,430.547363 
	C424.594757,421.767700 424.544312,413.390442 424.873901,405.011810 
	C427.486359,405.826233 430.381714,406.032990 431.809814,407.587616 
	C434.573578,410.596161 436.847351,414.191284 438.724854,417.850800 
	C443.565704,427.286285 448.081299,436.888672 452.723846,446.425842 
	C456.813904,454.828094 462.786926,458.543701 472.842712,458.259399 
	C499.820892,457.496674 526.834717,457.995178 553.834473,457.992767 
	C553.874939,478.016083 553.915405,498.039368 553.894348,518.527222 
z"/>
<path fill="#C47506" opacity="1.000000" stroke="none" 
	d="
M553.897217,457.528259 
	C526.834717,457.995178 499.820892,457.496674 472.842712,458.259399 
	C462.786926,458.543701 456.813904,454.828094 452.723846,446.425842 
	C448.081299,436.888672 443.565704,427.286285 438.724854,417.850800 
	C436.847351,414.191284 434.573578,410.596161 431.809814,407.587616 
	C430.381714,406.032990 427.486359,405.826233 424.774902,404.576111 
	C424.224182,401.763794 424.152466,399.385834 424.115479,396.583893 
	C424.133240,384.782410 424.116241,373.404968 424.128296,361.557037 
	C424.272949,354.062103 424.388580,347.037598 424.504211,340.013123 
	C427.909485,339.646027 429.327637,341.660828 431.505280,344.138245 
	C438.800629,352.438019 441.069122,362.982178 445.376587,372.567230 
	C447.210938,376.649139 446.504211,381.836029 448.165466,386.041534 
	C450.563110,392.111359 453.566681,398.099976 457.336609,403.393311 
	C458.888397,405.572205 463.092499,406.813660 466.108521,406.847565 
	C490.271820,407.119293 514.439697,406.947296 538.605652,407.044586 
	C543.404297,407.063873 548.200745,407.656311 553.414429,407.988098 
	C553.873840,424.349060 553.916870,440.706421 553.897217,457.528259 
z"/>
<path fill="#CE880A" opacity="1.000000" stroke="none" 
	d="
M553.898560,340.528381 
	C549.544495,341.328461 545.255737,341.936371 540.964478,341.954559 
	C518.162842,342.051239 495.343048,341.486267 472.567139,342.258484 
	C463.730469,342.558105 458.831329,337.558868 454.448090,332.199585 
	C448.908142,325.426086 445.585632,317.143585 444.925262,308.113708 
	C444.865967,307.302979 444.632629,306.462891 444.294495,305.721008 
	C440.387054,297.147614 436.699799,288.456696 432.340942,280.117462 
	C431.159912,277.858032 427.919464,276.675049 425.240784,274.969299 
	C424.641937,267.938110 424.426544,260.935669 424.168488,253.471771 
	C424.235809,251.942886 424.345795,250.875412 424.940216,249.410995 
	C429.275604,248.541763 432.027435,249.641449 433.828522,253.500412 
	C438.841278,264.240723 442.465942,275.735046 450.962341,284.628876 
	C453.233337,287.006104 454.399017,290.403320 456.386871,293.100250 
	C457.616852,294.768951 459.707733,295.803375 460.936310,297.472717 
	C462.895386,300.134735 465.189972,301.089447 468.523499,301.071899 
	C493.615753,300.939880 518.709473,301.074280 543.801331,300.911224 
	C547.149292,300.889496 550.489502,299.665009 553.833313,298.997498 
	C553.876465,312.686371 553.919617,326.375214 553.898560,340.528381 
z"/>
<path fill="#D7970D" opacity="1.000000" stroke="none" 
	d="
M423.048340,177.364258 
	C422.289093,175.219681 421.727295,173.444168 421.089722,171.321716 
	C424.481140,171.386124 428.182068,171.160156 431.370972,172.330017 
	C440.409027,175.645691 446.313873,183.014587 452.971344,189.559708 
	C458.496521,194.991638 463.664795,200.648849 473.447998,200.311890 
	C499.910187,199.400421 526.424377,199.998184 553.375854,199.995743 
	C553.878967,211.685364 553.924072,223.376511 553.491028,235.556854 
	C550.219727,236.364014 547.427429,236.949173 544.633301,236.957962 
	C521.161316,237.031815 497.688904,237.016479 474.216675,236.988327 
	C468.407074,236.981354 461.828430,238.602692 459.459198,230.577347 
	C459.381775,230.315063 458.963776,230.156372 458.710175,229.942627 
	C449.305176,222.015976 443.429260,211.636810 439.017853,200.460434 
	C436.276001,193.513992 431.117828,189.770081 424.749420,186.995193 
	C424.248230,183.907898 423.747040,180.820618 423.048340,177.364258 
z"/>
<path fill="#D4920C" opacity="1.000000" stroke="none" 
	d="
M424.605286,187.408722 
	C431.117828,189.770081 436.276001,193.513992 439.017853,200.460434 
	C443.429260,211.636810 449.305176,222.015976 458.710175,229.942627 
	C458.963776,230.156372 459.381775,230.315063 459.459198,230.577347 
	C461.828430,238.602692 468.407074,236.981354 474.216675,236.988327 
	C497.688904,237.016479 521.161316,237.031815 544.633301,236.957962 
	C547.427429,236.949173 550.219727,236.364014 553.423157,236.020844 
	C553.878235,246.686050 553.922974,257.376434 553.442932,268.532196 
	C524.981262,268.998322 497.043732,269.083466 469.108673,268.859100 
	C466.531525,268.838409 463.558563,267.351715 461.486847,265.664642 
	C457.120544,262.108948 453.186279,258.013336 449.165192,254.047562 
	C447.456726,252.362595 445.426208,250.693253 444.485809,248.594040 
	C440.310760,239.274445 436.553802,229.768494 432.479126,220.402390 
	C431.093689,217.217819 428.813049,214.821579 424.877808,214.988525 
	C424.660126,211.296432 424.442444,207.604324 424.178436,203.463531 
	C424.241791,197.950638 424.351471,192.886444 424.605286,187.408722 
z"/>
<path fill="#D18C0B" opacity="1.000000" stroke="none" 
	d="
M424.832092,215.456207 
	C428.813049,214.821579 431.093689,217.217819 432.479126,220.402390 
	C436.553802,229.768494 440.310760,239.274445 444.485809,248.594040 
	C445.426208,250.693253 447.456726,252.362595 449.165192,254.047562 
	C453.186279,258.013336 457.120544,262.108948 461.486847,265.664642 
	C463.558563,267.351715 466.531525,268.838409 469.108673,268.859100 
	C497.043732,269.083466 524.981262,268.998322 553.375854,268.996277 
	C553.878235,278.686279 553.922791,288.377594 553.900269,298.533203 
	C550.489502,299.665009 547.149292,300.889496 543.801331,300.911224 
	C518.709473,301.074280 493.615753,300.939880 468.523499,301.071899 
	C465.189972,301.089447 462.895386,300.134735 460.936310,297.472717 
	C459.707733,295.803375 457.616852,294.768951 456.386871,293.100250 
	C454.399017,290.403320 453.233337,287.006104 450.962341,284.628876 
	C442.465942,275.735046 438.841278,264.240723 433.828522,253.500412 
	C432.027435,249.641449 429.275604,248.541763 425.062500,249.028305 
	C424.537628,244.679352 424.374969,240.316132 424.168274,235.492142 
	C424.344940,228.662216 424.565674,222.293060 424.832092,215.456207 
z"/>
<path fill="#DEA40F" opacity="1.000000" stroke="none" 
	d="
M298.424805,589.989380 
	C297.752960,585.911316 297.554535,581.839111 297.206604,577.385620 
	C297.346283,570.284912 297.635529,563.565491 298.416260,556.422241 
	C340.635803,556.003235 382.363800,556.007996 424.091858,556.012695 
	C424.168945,567.110229 424.246033,578.207825 424.194427,589.661133 
	C382.343231,590.009644 340.620728,590.002441 298.424805,589.989380 
z"/>
<path fill="#E3A617" opacity="1.000000" stroke="none" 
	d="
M424.226135,555.639526 
	C382.363800,556.007996 340.635803,556.003235 298.435028,555.996399 
	C297.672333,552.942749 297.382385,549.891235 297.078064,546.426758 
	C297.310120,542.590942 297.556580,539.168030 298.343079,535.366943 
	C340.606323,534.987244 382.329559,534.985840 424.052795,534.984436 
	C424.309784,535.467773 424.566742,535.951050 424.873779,536.709351 
	C424.736023,543.078369 424.548218,549.172424 424.226135,555.639526 
z"/>
<path fill="#E5AD23" opacity="1.000000" stroke="none" 
	d="
M424.069458,534.552124 
	C382.329559,534.985840 340.606323,534.987244 298.406921,534.982117 
	C297.641785,527.609802 297.352844,520.244080 297.049805,512.443481 
	C297.236542,505.532318 297.444672,499.056152 297.635559,492.579498 
	C297.750549,488.677795 297.838745,484.775238 298.422363,480.433746 
	C340.635895,480.003326 382.366089,480.012268 424.096252,480.021179 
	C424.092896,498.054047 424.089508,516.086914 424.069458,534.552124 
z"/>
<path fill="#E8B531" opacity="1.000000" stroke="none" 
	d="
M424.163086,479.626892 
	C382.366089,480.012268 340.635895,480.003326 298.432678,479.989441 
	C297.739044,478.868408 297.518494,477.752319 297.163696,476.319702 
	C297.046814,467.623077 297.064148,459.243042 297.074463,450.441650 
	C297.358643,443.966797 297.649872,437.913239 298.423645,431.426849 
	C340.746429,430.979248 382.586700,430.964478 424.426971,430.949707 
	C424.356354,440.525879 424.279114,450.102051 424.219727,459.678284 
	C424.204315,462.159668 424.244781,464.641418 424.367432,467.570343 
	C424.393494,471.756012 424.311707,475.494324 424.163086,479.626892 
z"/>
<path fill="#ECC043" opacity="1.000000" stroke="none" 
	d="
M424.099274,362.027496 
	C424.116241,373.404968 424.133240,384.782410 423.638519,396.581360 
	C383.482910,397.001892 343.838959,396.985229 304.195129,397.044281 
	C302.117004,397.047394 300.039825,397.693756 297.962219,398.040619 
	C297.962219,398.040619 297.505066,398.014160 297.277008,398.000427 
	C297.090881,388.895020 297.132812,379.803314 297.119110,370.361694 
	C297.100891,367.661072 297.138306,365.310394 297.651978,362.497375 
	C340.118591,362.032532 382.108917,362.030029 424.099274,362.027496 
z"/>
<path fill="#EFC954" opacity="1.000000" stroke="none" 
	d="
M424.128296,361.557037 
	C382.108917,362.030029 340.118591,362.032532 297.686462,362.059937 
	C297.180023,355.998657 297.115326,349.912445 297.036804,343.415588 
	C297.429260,332.706085 293.373810,324.803131 284.198181,319.283020 
	C285.627441,315.599884 288.754089,315.993500 291.760010,315.994202 
	C335.556549,316.004242 379.353058,316.003174 423.629059,316.008698 
	C424.177673,323.705078 424.246826,331.397552 424.410095,339.551575 
	C424.388580,347.037598 424.272949,354.062103 424.128296,361.557037 
z"/>
<path fill="#EBBD3E" opacity="1.000000" stroke="none" 
	d="
M297.955627,398.496735 
	C300.039825,397.693756 302.117004,397.047394 304.195129,397.044281 
	C343.838959,396.985229 383.482910,397.001892 423.603790,397.005371 
	C424.152466,399.385834 424.224182,401.763794 424.394897,404.577454 
	C424.544312,413.390442 424.594757,421.767700 424.536072,430.547363 
	C382.586700,430.964478 340.746429,430.979248 298.433136,430.988800 
	C297.924072,428.937561 297.888031,426.891510 297.781372,424.409943 
	C297.790192,415.633881 297.869598,407.293365 297.955627,398.496735 
z"/>
</svg>