<svg version="1.1" id="Layer_1" xmlns="http://www.w3.org/2000/svg" xmlns:xlink="http://www.w3.org/1999/xlink" x="0px" y="0px"
	 width="100%" viewBox="0 0 216 148" enable-background="new 0 0 216 148" xml:space="preserve">
<path fill="#000000" opacity="1.000000" stroke="none" 
	d="
M72.000000,149.000000 
	C48.369080,149.000000 24.738157,149.000000 1.053619,149.000000 
	C1.053619,99.776978 1.053619,50.553875 1.053619,1.000000 
	C24.353188,1.000000 47.707935,1.000000 71.897209,1.242079 
	C71.493706,4.244205 69.427483,6.934867 69.189224,9.778674 
	C68.685760,15.788054 69.137726,21.877480 69.234116,28.282143 
	C72.190193,28.664858 75.109924,28.699499 78.292435,28.795969 
	C78.731903,28.891909 78.908600,28.926016 79.123062,29.180262 
	C79.413857,29.250614 79.666893,29.100828 79.950226,28.965912 
	C79.980530,28.980782 79.975403,28.913464 80.355881,29.077568 
	C85.829506,29.146744 90.922653,29.051819 96.008728,28.980518 
	C96.001663,29.004147 96.044571,28.979803 96.093933,29.200827 
	C96.411118,29.278193 96.678947,29.134537 97.223061,28.949955 
	C97.683838,28.934164 97.868332,28.959303 98.099701,29.208015 
	C98.414062,29.282488 98.681541,29.133387 99.205269,28.951300 
	C99.632271,28.940908 99.803032,28.963501 100.183487,29.350174 
	C102.947311,29.760935 105.501442,29.807613 108.404007,30.090477 
	C108.813171,31.445492 108.873901,32.564323 108.956680,34.089283 
	C106.700394,34.089283 104.722198,34.089859 102.744011,34.089184 
	C84.461571,34.082958 66.179077,34.055275 47.896786,34.104244 
	C46.142300,34.108940 44.347740,34.431843 42.642086,34.876617 
	C32.641472,37.484436 29.773907,46.448658 27.410244,54.418140 
	C23.414913,67.889061 23.575972,81.978012 27.270185,95.610085 
	C29.585529,104.153961 33.203465,112.359314 43.328674,115.443893 
	C50.951393,115.775230 58.323853,115.775230 66.128151,115.775230 
	C66.128151,106.876961 66.128151,98.452652 66.418823,89.819786 
	C67.661697,83.224136 72.539017,79.840363 77.401382,76.074295 
	C83.034424,75.000511 88.253746,73.322510 93.526077,73.135033 
	C105.629135,72.704666 117.759468,73.095932 129.875046,72.911453 
	C131.978958,72.879425 134.064789,71.660713 136.341507,70.970650 
	C136.524033,70.951180 136.864578,70.814072 137.151688,70.843246 
	C137.664581,70.577225 137.890366,70.282036 138.308853,69.953827 
	C138.501556,69.920807 138.860672,69.766068 139.128845,69.797638 
	C139.600418,69.554115 139.803802,69.279037 140.003601,69.001831 
	C140.000000,68.999695 140.003311,69.007324 140.257599,68.944183 
	C140.676498,68.587624 140.841095,68.294212 141.002548,68.000191 
	C140.999390,67.999580 141.000885,68.005920 141.254639,67.932480 
	C141.677689,67.562302 141.846985,67.265564 142.252594,66.901047 
	C142.786438,66.642822 142.954742,66.372032 143.349762,65.994339 
	C144.814804,64.312202 145.923859,62.656624 147.011627,60.998062 
	C146.990356,60.995071 147.005585,61.035267 147.317856,60.878380 
	C148.356033,58.818867 149.081955,56.916237 149.903412,54.595306 
	C150.337311,52.764946 150.962540,51.354259 150.969299,49.940617 
	C151.032059,36.802654 151.006607,23.664082 150.934341,10.526087 
	C150.929535,9.655286 150.333328,8.787739 149.985260,7.531478 
	C149.305542,5.096185 148.652771,3.048092 148.000000,0.999999 
	C170.964767,1.000000 193.929550,1.000000 216.947159,1.000000 
	C216.947159,50.222500 216.947159,99.445076 216.947159,149.000000 
	C194.313522,149.000000 171.625412,149.000000 148.129211,148.730011 
	C153.834290,140.161438 150.154022,130.566833 150.671921,121.511612 
	C150.675858,121.442841 149.557953,121.309906 148.576492,121.131752 
	C147.136993,121.009628 146.084854,120.962677 144.966034,120.669739 
	C144.587616,120.588692 144.275879,120.753639 143.650269,120.968689 
	C142.913559,121.000793 142.490692,120.982780 141.874695,120.613190 
	C139.443176,120.480904 137.204819,120.700203 134.528076,120.970276 
	C131.736053,120.985748 129.382416,120.950455 126.926300,120.631943 
	C126.205170,120.538795 125.586548,120.728859 124.653168,120.969589 
	C123.914307,121.001823 123.490204,120.983398 122.883621,120.620155 
	C120.790680,120.488876 118.880219,120.702408 116.556580,120.968338 
	C114.758797,121.083740 113.374184,121.146759 111.651230,121.010201 
	C111.212173,119.255478 111.111458,117.700333 111.357750,116.083923 
	C120.834961,116.031319 129.965164,116.039970 139.292267,116.026337 
	C139.489151,116.004066 139.885300,116.015579 139.986633,116.262871 
	C140.431686,116.345627 140.775421,116.181084 141.309097,116.009033 
	C141.499039,116.001526 141.877853,116.033623 142.055420,116.340546 
	C146.489090,116.462769 150.745163,116.278069 154.990036,116.060577 
	C154.978821,116.027794 154.917618,116.060333 154.996674,116.326553 
	C155.434219,116.406822 155.792694,116.220856 156.363922,116.010849 
	C156.576660,115.986809 156.979614,115.842033 157.341690,116.014206 
	C161.696182,116.169815 165.695511,116.290550 169.678696,116.090271 
	C172.518539,115.947479 175.336670,115.373085 178.351654,114.980774 
	C178.538834,114.970261 178.884003,114.823891 179.167786,114.870796 
	C179.660828,114.616844 179.870102,114.315979 180.040543,114.010284 
	C180.001709,114.005455 179.992355,114.083160 180.318604,114.041199 
	C181.139618,113.670242 181.634399,113.341240 182.437729,112.883911 
	C188.614670,106.999794 191.353104,100.002899 193.297394,91.945763 
	C196.622589,78.165939 195.605377,65.155243 191.479111,51.811378 
	C186.482803,35.653992 176.368607,34.040482 162.559464,33.919186 
	C159.534561,33.981991 156.965485,33.981991 153.867340,33.981991 
	C153.867340,42.013805 153.867340,49.521702 153.933472,57.022118 
	C153.999619,57.014641 153.985184,56.882305 153.732727,56.965309 
	C153.378479,57.350517 153.276672,57.652721 153.108795,58.270855 
	C153.027115,59.016857 153.011505,59.446930 152.699448,60.015293 
	C152.236603,60.772720 152.070206,61.391857 151.952515,62.006073 
	C152.001251,62.001152 151.991547,61.903671 151.729828,61.990601 
	C151.288376,62.384930 151.108673,62.692333 150.961121,62.999905 
	C150.993271,63.000072 150.977463,62.937740 150.680237,63.057545 
	C150.224487,63.787876 150.065964,64.398407 149.953613,65.006821 
	C149.999786,65.004700 149.995728,64.912331 149.730820,64.993637 
	C149.287033,65.384224 149.108154,65.693512 148.961761,66.001678 
	C148.994232,66.000549 148.978256,65.937553 148.675262,66.052734 
	C147.238510,67.441925 146.104752,68.715935 144.989838,69.996788 
	C145.008682,70.003624 144.999619,69.964577 144.740265,70.031227 
	C144.310120,70.396790 144.139328,70.695694 143.987183,71.000320 
	C144.005814,71.006035 143.994949,70.968590 143.735504,71.033340 
	C143.297409,71.394066 143.118729,71.690033 142.969254,71.993660 
	C142.998459,72.001320 142.990723,71.941444 142.714630,72.008636 
	C142.239319,72.388733 142.040131,72.701645 141.662262,73.040878 
	C141.483597,73.067192 141.157776,73.223106 140.777573,73.226196 
	C135.446991,74.487640 130.532501,76.628464 125.539207,76.831558 
	C112.814453,77.349098 100.045357,76.739296 87.315033,77.183258 
	C84.117714,77.294762 80.999550,79.675964 77.537170,81.154648 
	C74.826965,84.417450 71.142723,87.234505 70.310440,90.730507 
	C68.920479,96.569077 69.012711,102.846016 69.089386,108.930756 
	C69.258301,122.334335 66.880028,135.950821 72.000000,149.000000 
z"/>
<path fill="#F9C63F" opacity="1.000000" stroke="none" 
	d="
M178.884003,114.823891 
	C178.884003,114.823891 178.538834,114.970261 177.870728,114.968964 
	C170.461624,115.259125 163.720627,115.550575 156.979614,115.842026 
	C156.979614,115.842033 156.576660,115.986809 156.054840,115.999939 
	C155.327896,116.028816 155.122757,116.044579 154.917618,116.060333 
	C154.917618,116.060333 154.978821,116.027794 154.767044,115.787445 
	C150.329468,115.709274 146.103653,115.871452 141.877853,116.033623 
	C141.877853,116.033623 141.499039,116.001526 141.000198,115.995193 
	C140.296005,115.997780 140.090652,116.006683 139.885300,116.015579 
	C139.885300,116.015579 139.489151,116.004066 138.946152,115.785645 
	C131.979080,115.379013 125.554848,115.058128 119.130997,115.065514 
	C116.423843,115.068626 113.717468,115.764313 111.010742,116.145180 
	C111.111458,117.700333 111.212173,119.255478 111.827446,121.350777 
	C113.055328,122.245148 113.766350,122.902611 114.482315,122.908028 
	C124.911430,122.987061 135.341797,123.030708 145.769943,122.913307 
	C146.840851,122.901253 147.899521,121.801796 148.963867,121.206924 
	C149.557953,121.309906 150.675858,121.442841 150.671921,121.511612 
	C150.154022,130.566833 153.834290,140.161438 147.660553,148.730011 
	C122.979103,149.000000 97.958214,149.000000 72.468658,149.000000 
	C66.880028,135.950821 69.258301,122.334335 69.089386,108.930756 
	C69.012711,102.846016 68.920479,96.569077 70.310440,90.730507 
	C71.142723,87.234505 74.826965,84.417450 77.936096,81.148720 
	C85.281349,79.998352 91.893211,78.439209 98.564468,78.119476 
	C108.831184,77.627403 119.144676,78.189438 129.425980,77.886009 
	C133.707672,77.759636 138.616470,78.181343 141.157776,73.223106 
	C141.157776,73.223106 141.483597,73.067192 141.906830,72.923431 
	C142.550278,72.500259 142.770508,72.220856 142.990723,71.941452 
	C142.990723,71.941444 142.998459,72.001320 143.201080,71.889023 
	C143.600769,71.507339 143.797867,71.237968 143.994949,70.968590 
	C143.994949,70.968590 144.005814,71.006035 144.216171,70.892906 
	C144.617569,70.508049 144.808594,70.236313 144.999619,69.964577 
	C144.999619,69.964577 145.008682,70.003624 145.361374,69.993713 
	C146.802124,68.635048 147.890182,67.286301 148.978256,65.937553 
	C148.978256,65.937553 148.994232,66.000549 149.185547,65.868912 
	C149.583160,65.462288 149.789444,65.187309 149.995728,64.912338 
	C149.995728,64.912331 149.999786,65.004700 150.191559,64.814758 
	C150.581360,64.062462 150.779404,63.500099 150.977448,62.937737 
	C150.977463,62.937740 150.993271,63.000072 151.188507,62.870872 
	C151.586334,62.462345 151.788940,62.183010 151.991547,61.903671 
	C151.991547,61.903671 152.001251,62.001152 152.188599,61.802532 
	C152.582581,61.028275 152.789230,60.452633 152.995880,59.876999 
	C153.011505,59.446930 153.027115,59.016857 153.274170,58.117058 
	C153.710968,57.420837 153.870819,57.165833 153.985184,56.882305 
	C153.985184,56.882305 153.999619,57.014641 154.194427,56.720337 
	C154.910767,52.688499 155.868607,48.948895 155.850891,45.213921 
	C155.824722,39.698814 155.087891,34.176567 163.015305,33.856380 
	C176.368607,34.040482 186.482803,35.653992 191.479111,51.811378 
	C195.605377,65.155243 196.622589,78.165939 193.297394,91.945763 
	C191.353104,100.002899 188.614670,106.999794 182.129089,112.922119 
	C181.005386,113.420166 180.498871,113.751671 179.992355,114.083160 
	C179.992355,114.083160 180.001709,114.005455 179.816467,114.104973 
	C179.343658,114.364517 179.094589,114.570984 178.884003,114.823891 
M139.003708,138.513611 
	C138.888245,134.772354 137.126389,132.190720 133.537537,131.030182 
	C130.124146,129.926407 128.246048,132.213974 127.175491,134.726929 
	C126.205666,137.003403 125.185760,139.991119 125.895813,142.086517 
	C127.092079,145.616821 131.092972,145.806625 133.912888,144.774933 
	C135.993896,144.013596 137.335693,141.231750 139.003708,138.513611 
z"/>
<path fill="#377DEE" opacity="1.000000" stroke="none" 
	d="
M147.531342,0.999999 
	C148.652771,3.048092 149.305542,5.096185 149.980728,8.006335 
	C149.637344,24.237604 149.271561,39.606815 148.703888,55.259987 
	C148.003189,57.374390 147.504379,59.204830 147.005585,61.035267 
	C147.005585,61.035267 146.990356,60.995071 146.674744,61.063042 
	C145.237335,62.760979 144.115555,64.390945 142.993774,66.020920 
	C142.954742,66.372032 142.786438,66.642822 142.031738,67.018860 
	C141.297562,67.410210 141.106323,67.677361 141.000885,68.005920 
	C141.000885,68.005920 140.999390,67.999580 140.786255,68.113663 
	C140.303955,68.429695 140.114014,68.689560 140.003311,69.007324 
	C140.003311,69.007324 140.000000,68.999695 139.780975,69.074409 
	C139.279236,69.299118 139.045471,69.504768 138.860672,69.766068 
	C138.860672,69.766068 138.501556,69.920807 138.069565,70.040298 
	C137.379913,70.377876 137.122253,70.595978 136.864578,70.814072 
	C136.864578,70.814072 136.524033,70.951180 135.884415,70.952850 
	C128.474594,71.278534 121.704376,71.602554 114.596870,71.702820 
	C108.869408,71.319061 103.477089,70.987679 98.089783,71.055420 
	C94.063850,71.106041 90.044395,71.671684 85.642281,72.082306 
	C82.512245,73.486748 79.761993,74.816879 77.011734,76.147011 
	C72.539017,79.840363 67.661697,83.224136 66.148804,90.138725 
	C65.367195,96.934731 64.947189,103.204811 64.996986,109.471169 
	C65.028969,113.495262 63.664715,115.209831 59.501720,115.052536 
	C54.035847,114.846008 48.553612,115.072372 43.078415,115.112564 
	C33.203465,112.359314 29.585529,104.153961 27.270185,95.610085 
	C23.575972,81.978012 23.414913,67.889061 27.410244,54.418140 
	C29.773907,46.448658 32.641472,37.484436 42.642086,34.876617 
	C44.347740,34.431843 46.142300,34.108940 47.896786,34.104244 
	C66.179077,34.055275 84.461571,34.082958 102.744011,34.089184 
	C104.722198,34.089859 106.700394,34.089283 108.956680,34.089283 
	C108.873901,32.564323 108.813171,31.445492 108.538216,29.869781 
	C108.421364,29.282951 108.536537,29.162354 108.611130,29.020428 
	C108.685486,28.878935 108.719131,28.716049 108.770630,28.562542 
	C105.838348,28.703726 102.906067,28.844910 99.973785,28.986092 
	C99.803032,28.963501 99.632271,28.940908 98.981323,28.924162 
	C98.501122,28.930010 98.052826,28.984442 98.052826,28.984442 
	C97.868332,28.959303 97.683838,28.934164 96.997986,28.920879 
	C96.496628,28.932730 96.044571,28.979803 96.044571,28.979803 
	C96.044571,28.979803 96.001663,29.004147 96.052368,28.734825 
	C96.103065,28.465502 96.127640,27.966919 96.026726,27.698322 
	C87.976913,26.906096 80.029236,26.359169 72.074669,25.944246 
	C71.757309,25.927692 71.374565,27.164604 70.718819,27.846504 
	C70.009483,27.895037 69.603630,27.914553 69.197769,27.934071 
	C69.137726,21.877480 68.685760,15.788054 69.189224,9.778674 
	C69.427483,6.934867 71.493706,4.244205 72.365868,1.242079 
	C97.020897,1.000000 122.041786,1.000000 147.531342,0.999999 
M86.691330,18.067717 
	C92.027359,17.922037 95.697548,14.251424 94.683235,10.076506 
	C93.766891,6.304804 91.527473,3.958742 87.507256,3.985494 
	C83.535461,4.011923 80.873802,6.200494 80.471642,10.088731 
	C80.072968,13.943350 81.662910,17.033552 86.691330,18.067717 
z"/>
<path fill="#DFBD62" opacity="1.000000" stroke="none" 
	d="
M140.777573,73.226196 
	C138.616470,78.181343 133.707672,77.759636 129.425980,77.886009 
	C119.144676,78.189438 108.831184,77.627403 98.564468,78.119476 
	C91.893211,78.439209 85.281349,79.998352 78.243942,81.008148 
	C80.999550,79.675964 84.117714,77.294762 87.315033,77.183258 
	C100.045357,76.739296 112.814453,77.349098 125.539207,76.831558 
	C130.532501,76.628464 135.446991,74.487640 140.777573,73.226196 
z"/>
<path fill="#4B80CD" opacity="1.000000" stroke="none" 
	d="
M77.401382,76.074295 
	C79.761993,74.816879 82.512245,73.486748 86.108459,72.086807 
	C96.281006,71.986855 105.607582,71.956711 114.934166,71.926567 
	C121.704376,71.602554 128.474594,71.278534 135.701889,70.972321 
	C134.064789,71.660713 131.978958,72.879425 129.875046,72.911453 
	C117.759468,73.095932 105.629135,72.704666 93.526077,73.135033 
	C88.253746,73.322510 83.034424,75.000511 77.401382,76.074295 
z"/>
<path fill="#FFC82C" opacity="1.000000" stroke="none" 
	d="
M148.576492,121.131752 
	C147.899521,121.801796 146.840851,122.901253 145.769943,122.913307 
	C135.341797,123.030708 124.911430,122.987061 114.482315,122.908028 
	C113.766350,122.902611 113.055328,122.245148 112.165787,121.550346 
	C113.374184,121.146759 114.758797,121.083740 116.838005,121.203659 
	C119.377098,121.246056 121.221596,121.105507 123.066093,120.964966 
	C123.490204,120.983398 123.914307,121.001823 124.824631,121.153557 
	C125.883499,121.162971 126.456146,121.039070 127.028793,120.915161 
	C129.382416,120.950455 131.736053,120.985748 134.822693,121.208511 
	C137.726425,121.252243 139.897141,121.108505 142.067841,120.964767 
	C142.490692,120.982780 142.913559,121.000793 143.760208,121.096207 
	C144.466919,121.087662 144.749817,121.001694 145.032730,120.915733 
	C146.084854,120.962677 147.136993,121.009628 148.576492,121.131752 
z"/>
<path fill="#507FCE" opacity="1.000000" stroke="none" 
	d="
M148.905777,54.976025 
	C149.271561,39.606815 149.637344,24.237604 150.007660,8.393536 
	C150.333328,8.787739 150.929535,9.655286 150.934341,10.526087 
	C151.006607,23.664082 151.032059,36.802654 150.969299,49.940617 
	C150.962540,51.354259 150.337311,52.764946 149.677887,54.586136 
	C149.356796,54.995266 148.905777,54.976025 148.905777,54.976025 
z"/>
<path fill="#547EB6" opacity="1.000000" stroke="none" 
	d="
M43.328674,115.443901 
	C48.553612,115.072372 54.035847,114.846008 59.501720,115.052536 
	C63.664715,115.209831 65.028969,113.495262 64.996986,109.471169 
	C64.947189,103.204811 65.367195,96.934731 65.858124,90.347282 
	C66.128151,98.452652 66.128151,106.876961 66.128151,115.775230 
	C58.323853,115.775230 50.951393,115.775230 43.328674,115.443901 
z"/>
<path fill="#E2C376" opacity="1.000000" stroke="none" 
	d="
M162.559464,33.919186 
	C155.087891,34.176567 155.824722,39.698814 155.850891,45.213921 
	C155.868607,48.948895 154.910767,52.688499 154.128296,56.727814 
	C153.867340,49.521702 153.867340,42.013805 153.867340,33.981991 
	C156.965485,33.981991 159.534561,33.981991 162.559464,33.919186 
z"/>
<path fill="#EDC45C" opacity="1.000000" stroke="none" 
	d="
M111.357750,116.083923 
	C113.717468,115.764313 116.423843,115.068626 119.130997,115.065514 
	C125.554848,115.058128 131.979080,115.379013 138.749268,115.807915 
	C129.965164,116.039970 120.834961,116.031319 111.357750,116.083923 
z"/>
<path fill="#3081FB" opacity="1.000000" stroke="none" 
	d="
M71.022293,27.817486 
	C71.374565,27.164604 71.757309,25.927692 72.074669,25.944246 
	C80.029236,26.359169 87.976913,26.906096 95.546181,27.713051 
	C90.102837,28.302073 85.039116,28.607767 79.975403,28.913464 
	C79.975403,28.913464 79.980530,28.980782 79.741196,28.927322 
	C79.501854,28.873863 79.085304,28.960125 79.085304,28.960125 
	C78.908600,28.926016 78.731903,28.891909 77.958626,28.600349 
	C75.248802,28.167761 73.135544,27.992624 71.022293,27.817486 
z"/>
<path fill="#1E5DBF" opacity="1.000000" stroke="none" 
	d="
M80.355881,29.077568 
	C85.039116,28.607767 90.102837,28.302073 95.647095,27.981647 
	C96.127640,27.966919 96.103065,28.465502 96.059433,28.711197 
	C90.922653,29.051819 85.829506,29.146744 80.355881,29.077568 
z"/>
<path fill="#EDC45C" opacity="1.000000" stroke="none" 
	d="
M157.341690,116.014206 
	C163.720627,115.550575 170.461624,115.259125 177.683563,114.979485 
	C175.336670,115.373085 172.518539,115.947479 169.678696,116.090271 
	C165.695511,116.290550 161.696182,116.169815 157.341690,116.014206 
z"/>
<path fill="#1E5DBF" opacity="1.000000" stroke="none" 
	d="
M100.183487,29.350174 
	C102.906067,28.844910 105.838348,28.703726 108.770630,28.562542 
	C108.719131,28.716049 108.685486,28.878935 108.611130,29.020428 
	C108.536537,29.162354 108.421364,29.282951 108.189774,29.633595 
	C105.501442,29.807613 102.947311,29.760935 100.183487,29.350174 
z"/>
<path fill="#EDC45C" opacity="1.000000" stroke="none" 
	d="
M142.055420,116.340546 
	C146.103653,115.871452 150.329468,115.709274 154.778259,115.820236 
	C150.745163,116.278069 146.489090,116.462769 142.055420,116.340546 
z"/>
<path fill="#EDB932" opacity="1.000000" stroke="none" 
	d="
M141.874695,120.613190 
	C139.897141,121.108505 137.726425,121.252243 135.261093,121.157745 
	C137.204819,120.700203 139.443176,120.480904 141.874695,120.613190 
z"/>
<path fill="#1E5DBF" opacity="1.000000" stroke="none" 
	d="
M70.718819,27.846504 
	C73.135544,27.992624 75.248802,28.167761 77.695862,28.538517 
	C75.109924,28.699499 72.190193,28.664858 69.234116,28.282143 
	C69.603630,27.914553 70.009483,27.895037 70.718819,27.846504 
z"/>
<path fill="#EDB932" opacity="1.000000" stroke="none" 
	d="
M122.883621,120.620148 
	C121.221596,121.105507 119.377098,121.246056 117.251175,121.151276 
	C118.880219,120.702408 120.790680,120.488876 122.883621,120.620148 
z"/>
<path fill="#4B80CD" opacity="1.000000" stroke="none" 
	d="
M143.349762,65.994347 
	C144.115555,64.390945 145.237335,62.760979 146.696014,61.066032 
	C145.923859,62.656624 144.814804,64.312202 143.349762,65.994347 
z"/>
<path fill="#4B80CD" opacity="1.000000" stroke="none" 
	d="
M148.703888,55.259987 
	C148.905777,54.976025 149.356796,54.995266 149.582336,55.004436 
	C149.081955,56.916237 148.356033,58.818867 147.317856,60.878380 
	C147.504379,59.204830 148.003189,57.374390 148.703888,55.259987 
z"/>
<path fill="#DFBD62" opacity="1.000000" stroke="none" 
	d="
M148.675262,66.052734 
	C147.890182,67.286301 146.802124,68.635048 145.342529,69.986877 
	C146.104752,68.715935 147.238510,67.441925 148.675262,66.052734 
z"/>
<path fill="#EDB932" opacity="1.000000" stroke="none" 
	d="
M126.926300,120.631943 
	C126.456146,121.039070 125.883499,121.162971 125.139389,121.102905 
	C125.586548,120.728859 126.205170,120.538795 126.926300,120.631943 
z"/>
<path fill="#DFBD62" opacity="1.000000" stroke="none" 
	d="
M152.699432,60.015289 
	C152.789230,60.452633 152.582581,61.028275 152.139862,61.807449 
	C152.070206,61.391857 152.236603,60.772720 152.699432,60.015289 
z"/>
<path fill="#EDB932" opacity="1.000000" stroke="none" 
	d="
M144.966034,120.669739 
	C144.749817,121.001694 144.466919,121.087662 144.074066,121.046104 
	C144.275879,120.753639 144.587616,120.588692 144.966034,120.669739 
z"/>
<path fill="#DFBD62" opacity="1.000000" stroke="none" 
	d="
M150.680237,63.057541 
	C150.779404,63.500099 150.581360,64.062462 150.145386,64.816879 
	C150.065964,64.398407 150.224487,63.787876 150.680237,63.057541 
z"/>
<path fill="#EDC45C" opacity="1.000000" stroke="none" 
	d="
M180.318604,114.041206 
	C180.498871,113.751671 181.005386,113.420166 181.820526,113.050453 
	C181.634399,113.341240 181.139618,113.670242 180.318604,114.041206 
z"/>
<path fill="#EDC45C" opacity="1.000000" stroke="none" 
	d="
M179.167786,114.870796 
	C179.094589,114.570984 179.343658,114.364517 179.855286,114.109802 
	C179.870102,114.315979 179.660828,114.616844 179.167786,114.870796 
z"/>
<path fill="#DFBD62" opacity="1.000000" stroke="none" 
	d="
M151.729828,61.990601 
	C151.788940,62.183010 151.586334,62.462345 151.156342,62.870705 
	C151.108673,62.692333 151.288376,62.384930 151.729828,61.990601 
z"/>
<path fill="#1E5DBF" opacity="1.000000" stroke="none" 
	d="
M79.123062,29.180262 
	C79.085304,28.960125 79.501854,28.873863 79.710892,28.912453 
	C79.666893,29.100828 79.413857,29.250614 79.123062,29.180262 
z"/>
<path fill="#DFBD62" opacity="1.000000" stroke="none" 
	d="
M149.730820,64.993637 
	C149.789444,65.187309 149.583160,65.462288 149.153076,65.870033 
	C149.108154,65.693512 149.287033,65.384224 149.730820,64.993637 
z"/>
<path fill="#EDC45C" opacity="1.000000" stroke="none" 
	d="
M154.996674,116.326553 
	C155.122757,116.044579 155.327896,116.028816 155.842102,116.023979 
	C155.792694,116.220856 155.434219,116.406822 154.996674,116.326553 
z"/>
<path fill="#EDC45C" opacity="1.000000" stroke="none" 
	d="
M139.986633,116.262871 
	C140.090652,116.006683 140.296005,115.997780 140.810257,116.002701 
	C140.775421,116.181084 140.431686,116.345627 139.986633,116.262871 
z"/>
<path fill="#1E5DBF" opacity="1.000000" stroke="none" 
	d="
M96.093933,29.200827 
	C96.044571,28.979803 96.496628,28.932730 96.721703,28.961805 
	C96.678947,29.134537 96.411118,29.278193 96.093933,29.200827 
z"/>
<path fill="#4B80CD" opacity="1.000000" stroke="none" 
	d="
M139.128845,69.797638 
	C139.045471,69.504768 139.279236,69.299118 139.784576,69.076538 
	C139.803802,69.279037 139.600418,69.554115 139.128845,69.797638 
z"/>
<path fill="#4B80CD" opacity="1.000000" stroke="none" 
	d="
M141.254639,67.932480 
	C141.106323,67.677361 141.297562,67.410210 141.795441,67.086647 
	C141.846985,67.265564 141.677689,67.562302 141.254639,67.932480 
z"/>
<path fill="#1E5DBF" opacity="1.000000" stroke="none" 
	d="
M98.099701,29.208015 
	C98.052826,28.984442 98.501122,28.930010 98.725067,28.957148 
	C98.681541,29.133387 98.414062,29.282488 98.099701,29.208015 
z"/>
<path fill="#DFBD62" opacity="1.000000" stroke="none" 
	d="
M142.714630,72.008636 
	C142.770508,72.220856 142.550278,72.500259 142.085495,72.897110 
	C142.040131,72.701645 142.239319,72.388733 142.714630,72.008636 
z"/>
<path fill="#DFBD62" opacity="1.000000" stroke="none" 
	d="
M143.735504,71.033340 
	C143.797867,71.237968 143.600769,71.507339 143.171875,71.881363 
	C143.118729,71.690033 143.297409,71.394066 143.735504,71.033340 
z"/>
<path fill="#E2C376" opacity="1.000000" stroke="none" 
	d="
M153.732727,56.965309 
	C153.870819,57.165833 153.710968,57.420837 153.340256,57.801125 
	C153.276672,57.652721 153.378479,57.350517 153.732727,56.965309 
z"/>
<path fill="#4B80CD" opacity="1.000000" stroke="none" 
	d="
M140.257599,68.944183 
	C140.114014,68.689560 140.303955,68.429695 140.789413,68.114273 
	C140.841095,68.294212 140.676498,68.587624 140.257599,68.944183 
z"/>
<path fill="#DFBD62" opacity="1.000000" stroke="none" 
	d="
M144.740265,70.031227 
	C144.808594,70.236313 144.617569,70.508049 144.197540,70.887192 
	C144.139328,70.695694 144.310120,70.396790 144.740265,70.031227 
z"/>
<path fill="#4B80CD" opacity="1.000000" stroke="none" 
	d="
M137.151688,70.843246 
	C137.122253,70.595978 137.379913,70.377876 137.876862,70.073311 
	C137.890366,70.282036 137.664581,70.577225 137.151688,70.843246 
z"/>
<path fill="#000000" opacity="1.000000" stroke="none" 
	d="
M139.005280,138.931885 
	C137.335693,141.231750 135.993896,144.013596 133.912888,144.774933 
	C131.092972,145.806625 127.092079,145.616821 125.895813,142.086517 
	C125.185760,139.991119 126.205666,137.003403 127.175491,134.726929 
	C128.246048,132.213974 130.124146,129.926407 133.537537,131.030182 
	C137.126389,132.190720 138.888245,134.772354 139.005280,138.931885 
z"/>
<path fill="#000000" opacity="1.000000" stroke="none" 
	d="
M86.280563,18.062473 
	C81.662910,17.033552 80.072968,13.943350 80.471642,10.088731 
	C80.873802,6.200494 83.535461,4.011923 87.507256,3.985494 
	C91.527473,3.958742 93.766891,6.304804 94.683235,10.076506 
	C95.697548,14.251424 92.027359,17.922037 86.280563,18.062473 
z"/>
<path fill="#226EDE" opacity="1.000000" stroke="none" 
	d="
M114.596870,71.702820 
	C105.607582,71.956711 96.281006,71.986855 86.488235,72.012497 
	C90.044395,71.671684 94.063850,71.106041 98.089783,71.055420 
	C103.477089,70.987679 108.869408,71.319061 114.596870,71.702820 
z"/>
</svg>