<svg version="1.1" id="Layer_1" xmlns="http://www.w3.org/2000/svg" xmlns:xlink="http://www.w3.org/1999/xlink" x="0px" y="0px"
	 width="100%" viewBox="0 0 158 148" enable-background="new 0 0 158 148" xml:space="preserve">
<path fill="#000000" opacity="1.000000" stroke="none" 
	d="
M159.000000,55.000000 
	C159.000000,86.666664 159.000000,117.833336 159.000000,149.000000 
	C106.333336,149.000000 53.666668,149.000000 1.000000,149.000000 
	C1.000000,99.666664 1.000000,50.333332 1.000000,1.000000 
	C53.666668,1.000000 106.333336,1.000000 159.000000,1.000000 
	C159.000000,18.833334 159.000000,36.666668 159.000000,55.000000 
M47.076023,31.567209 
	C47.368572,31.747406 47.661125,31.927605 48.002064,32.887161 
	C47.700573,35.686573 47.399086,38.485981 46.417423,41.161343 
	C44.511421,41.424591 42.408390,42.337948 40.735802,41.831032 
	C35.395515,40.212543 35.370724,40.069515 35.692436,45.403061 
	C34.238415,45.313152 32.734165,45.220139 30.284939,45.068695 
	C31.378214,47.424866 32.096653,48.973213 32.884315,50.670738 
	C31.971951,51.467251 30.993328,52.321602 29.210453,53.038265 
	C27.122053,53.546829 22.563623,48.918911 23.181696,55.715603 
	C25.342546,55.832489 27.158691,55.930725 29.000305,55.999695 
	C29.000305,55.999695 28.968256,56.021542 29.295620,56.693859 
	C30.562658,56.142456 31.829695,55.591053 33.823208,54.973537 
	C34.548267,54.916443 35.273331,54.859352 36.515236,54.892883 
	C36.612061,54.597069 36.708889,54.301258 37.085754,53.387329 
	C37.127563,47.516209 40.099751,50.456306 41.867970,51.158169 
	C43.603172,48.466068 45.693977,46.196747 47.529495,43.736931 
	C47.882111,43.264389 47.231979,42.043587 47.381813,40.320427 
	C48.908421,39.734901 51.802746,38.987919 51.755558,38.588181 
	C51.094719,32.990234 56.422680,32.739037 58.851151,32.348801 
	C63.246204,31.642542 62.999916,30.017944 62.190624,26.431873 
	C63.348774,26.854513 64.506920,27.277153 65.665070,27.699791 
	C65.741249,27.065012 66.104095,26.046747 65.848557,25.855740 
	C63.680656,24.235220 61.400112,22.765390 59.153358,21.250359 
	C58.722965,21.664957 58.292568,22.079554 57.862175,22.494152 
	C58.210499,23.983488 58.558823,25.472826 58.385605,27.142374 
	C57.935154,27.395426 57.484703,27.648479 57.008591,27.140930 
	C56.714745,25.775606 56.420902,24.410284 56.311974,23.904167 
	C53.510616,23.904167 51.437256,23.904167 48.796677,23.904167 
	C48.400242,24.779732 47.677845,26.375200 46.997707,28.001740 
	C46.997707,28.001740 46.971836,27.956345 46.351952,28.209644 
	C44.743668,29.298141 43.135384,30.386637 41.527100,31.475134 
	C41.923149,32.123764 42.319199,32.772396 42.715252,33.421024 
	C44.122257,32.648403 45.529266,31.875782 46.990105,31.038198 
	C46.990105,31.038198 46.910587,31.066381 47.076023,31.567209 
M55.290432,138.487885 
	C55.837379,138.579132 56.384323,138.670380 57.628613,139.101273 
	C61.435818,140.240738 65.186302,142.054810 69.061920,142.380676 
	C77.397179,143.081528 85.893570,144.623032 94.840279,140.957764 
	C101.232887,138.584229 107.625504,136.210678 114.573219,133.767761 
	C115.067039,133.220734 115.560852,132.673721 116.740479,131.972519 
	C120.997780,129.095795 126.016777,126.938736 127.514931,120.888603 
	C127.514931,120.888603 127.953270,120.728416 128.662506,120.825691 
	C131.785965,116.914497 134.909424,113.003304 138.642029,108.752029 
	C140.109161,105.535957 141.576294,102.319885 143.598358,98.614288 
	C144.814713,92.866043 146.237686,87.152153 147.200470,81.361748 
	C148.765747,71.947693 147.902863,62.732788 144.005295,53.147816 
	C138.308456,35.800919 127.176376,23.279703 110.520439,15.720550 
	C115.711327,20.918961 122.108009,25.001238 126.902809,30.484324 
	C132.041901,36.361115 135.673584,43.556095 139.222351,50.106308 
	C136.319977,48.742558 133.385071,47.441517 130.540314,45.966629 
	C129.906967,45.638264 129.590820,44.698135 129.764587,43.755119 
	C131.794327,41.823875 130.758163,41.099213 128.760834,39.898987 
	C126.830116,38.738792 125.460861,36.644249 123.969803,34.230114 
	C123.926125,33.493710 123.882446,32.757301 123.737564,31.329996 
	C122.832474,31.271711 121.927391,31.213428 120.262650,31.032303 
	C118.638458,31.404886 117.014267,31.777472 114.860825,32.271465 
	C115.315269,30.719147 115.567879,29.856293 115.954208,28.232840 
	C115.059784,26.271183 114.165367,24.309526 113.510483,22.873215 
	C110.885681,21.783161 108.641228,20.626425 106.260262,19.950596 
	C104.934441,19.574261 103.381325,19.998676 101.976830,19.262993 
	C101.705063,18.226002 101.533882,17.138697 101.064598,16.200500 
	C100.984406,16.040195 99.449455,16.293983 98.896965,16.740526 
	C97.012032,18.264004 97.177887,24.295492 98.219948,26.007193 
	C96.961067,24.317238 95.702194,22.627283 94.985107,20.527594 
	C95.454849,19.666317 95.924591,18.805038 96.394333,17.943758 
	C94.944084,17.938471 93.493828,17.933182 92.016243,17.978649 
	C92.016243,17.978649 92.067085,17.951052 92.019249,17.211521 
	C93.710579,13.766531 92.214798,12.647134 88.897751,13.108400 
	C85.715668,13.550900 82.559875,14.182362 79.208397,14.762663 
	C77.923370,18.200722 80.388054,18.135370 82.981331,18.817907 
	C82.564850,19.559628 82.082993,20.272993 81.746284,21.049311 
	C81.150024,22.424049 80.430611,23.806625 80.222534,25.252110 
	C80.157967,25.700655 81.967529,26.992201 82.254387,26.815958 
	C83.326622,26.157169 84.037453,24.941561 85.047409,24.141193 
	C86.057205,23.340952 87.193367,22.576508 88.400177,22.179951 
	C89.895576,21.688560 91.520653,21.591814 94.025688,21.705606 
	C93.337700,22.935303 92.649712,24.164997 91.991028,25.342316 
	C96.437653,29.135384 96.710724,30.832174 92.905151,34.382011 
	C94.113792,30.235186 93.399910,28.040804 89.055420,29.480259 
	C89.028717,32.388771 90.282372,36.259323 84.806557,34.570087 
	C84.210640,34.386253 83.047478,36.041241 82.147423,36.843315 
	C82.921280,37.553322 83.602486,38.423782 84.490303,38.936432 
	C85.887489,39.743198 87.423729,40.309139 88.097885,41.005512 
	C87.133621,41.146935 86.103668,41.116768 85.215439,41.456810 
	C77.823441,44.286713 70.457581,47.184883 62.280746,49.661667 
	C62.585854,48.557392 62.890965,47.453121 63.894505,46.391403 
	C67.944481,46.739407 72.383675,43.050797 73.378998,38.654766 
	C74.486534,38.728161 75.565529,38.799667 76.419151,38.856239 
	C76.204956,36.389900 76.014343,34.195042 76.160179,31.370907 
	C77.171692,30.694273 78.183212,30.017639 79.243057,29.308678 
	C76.506149,26.119074 71.151176,26.114273 68.212463,28.982365 
	C67.332130,29.311054 65.682785,29.647730 65.686111,29.967241 
	C65.741455,35.295341 62.096531,33.189228 59.283493,32.987766 
	C59.283493,34.369946 59.283493,35.577599 59.283493,36.998222 
	C60.968700,36.998222 62.268341,36.998222 63.472988,36.998222 
	C61.818729,38.197159 60.427818,39.205231 59.036907,40.213303 
	C59.565182,40.882938 60.087070,42.123177 60.622772,42.129173 
	C63.981762,42.166771 62.565212,44.956295 62.561169,46.005836 
	C61.040413,45.846436 59.216442,45.069218 58.053936,45.639767 
	C54.054684,47.602547 50.269230,50.007584 46.443741,52.312862 
	C45.557247,52.847076 44.834934,53.653744 44.037067,54.335037 
	C44.997520,55.232811 45.957973,56.130581 46.658062,57.743340 
	C36.952080,60.516533 27.246098,63.289726 17.172556,66.167938 
	C17.126034,66.590736 17.002205,67.716156 16.269279,68.536812 
	C16.098129,67.419273 15.926977,66.301735 15.916378,64.367310 
	C16.264347,62.021461 16.612316,59.675617 16.960287,57.329769 
	C16.235449,57.262131 15.510612,57.194492 14.785773,57.126854 
	C11.880732,66.215691 10.980111,75.490028 13.047955,85.839104 
	C13.668769,88.236427 14.289583,90.633759 14.997087,93.810043 
	C15.362585,95.239624 15.569431,96.733498 16.118670,98.088608 
	C20.532143,108.977859 25.807539,119.276154 36.285862,126.694954 
	C41.146797,129.813705 46.007736,132.932449 51.295799,136.558029 
	C52.524227,137.041382 53.752655,137.524734 55.290432,138.487885 
M87.236481,7.159024 
	C79.987007,6.776379 72.735519,6.377208 65.409737,10.006761 
	C72.946823,10.006761 79.965904,10.006761 87.433388,10.663311 
	C92.836937,10.523644 97.984276,14.635652 103.485031,12.882865 
	C103.570129,12.208433 103.655228,11.534001 103.740326,10.859569 
	C98.497864,9.711608 93.255402,8.563647 87.236481,7.159024 
M39.693085,24.178467 
	C41.293552,22.750128 42.894024,21.321789 45.176975,19.284367 
	C37.209248,19.681959 24.309641,32.655804 24.711658,37.269508 
	C29.079517,33.403446 34.083996,28.973902 39.693085,24.178467 
M61.696846,11.800159 
	C61.457478,12.004342 61.208313,12.198903 60.988689,12.422481 
	C60.953392,12.458412 61.049938,12.623854 61.085537,12.729425 
	C61.976414,12.427806 62.867287,12.126187 63.758163,11.824568 
	C63.234207,11.687568 62.710247,11.550568 61.696846,11.800159 
M18.548222,49.937618 
	C18.443956,50.683811 18.339693,51.430008 18.235428,52.176201 
	C18.445133,52.186829 18.654837,52.197453 18.864542,52.208080 
	C18.864542,51.592133 18.864542,50.976185 18.548222,49.937618 
M58.241268,11.095505 
	C58.912586,10.951838 59.583904,10.808171 60.255222,10.664504 
	C60.198395,10.456753 60.141563,10.249002 60.084736,10.041250 
	C59.504467,10.207496 58.924194,10.373741 58.241268,11.095505 
z"/>
<path fill="#7EAEBC" opacity="1.000000" stroke="none" 
	d="
M16.878374,68.841568 
	C17.002205,67.716156 17.126034,66.590736 17.172556,66.167938 
	C27.246098,63.289726 36.952080,60.516533 47.161091,57.372726 
	C49.441643,56.002644 51.219166,55.003178 53.053253,54.225178 
	C53.477184,54.680046 53.826180,54.964062 54.225628,55.109158 
	C54.318607,55.142929 54.583237,54.704144 54.768883,54.482788 
	C54.180489,54.320633 53.592098,54.158474 53.105576,53.689476 
	C54.726669,52.876144 56.238277,52.345051 57.767693,51.871483 
	C58.856838,51.534233 59.969948,51.274384 61.392307,50.991215 
	C62.164196,50.654079 62.616142,50.305714 63.096474,49.979958 
	C63.124863,50.002567 63.083828,50.062435 63.083828,50.062435 
	C70.457581,47.184883 77.823441,44.286713 85.215439,41.456810 
	C86.103668,41.116768 87.133621,41.146935 88.821457,40.844620 
	C91.726318,39.809772 93.907600,38.935818 96.280060,38.444756 
	C100.984489,38.907784 105.497749,38.987923 109.996490,39.039299 
	C109.981979,39.010536 109.917870,39.004120 110.105179,39.359146 
	C114.854347,40.796284 119.416214,41.878387 124.282425,43.187447 
	C126.100716,43.622826 127.614670,43.831249 129.128616,44.039673 
	C129.590820,44.698135 129.906967,45.638264 130.540314,45.966629 
	C133.385071,47.441517 136.319977,48.742558 139.483475,50.408119 
	C140.509430,52.805256 141.274277,54.900585 141.953613,57.322617 
	C142.078003,59.429050 142.261581,61.212345 142.502106,62.987926 
	C143.813309,72.667755 144.196533,82.325768 141.481812,91.948898 
	C138.127991,91.616119 134.933304,91.872658 132.269333,90.805008 
	C118.807625,85.409897 105.404564,79.850662 92.131790,74.006386 
	C75.003983,66.464676 57.825512,64.457298 40.041260,71.736084 
	C32.541752,74.805504 24.759304,77.183624 17.077087,79.422958 
	C16.991930,75.593819 16.935152,72.217690 16.878374,68.841568 
z"/>
<path fill="#393E64" opacity="1.000000" stroke="none" 
	d="
M35.945045,126.124481 
	C25.807539,119.276154 20.532143,108.977859 16.118670,98.088608 
	C15.569431,96.733498 15.362585,95.239624 15.240197,93.459656 
	C16.643763,94.073776 17.804216,95.038277 19.186310,96.247437 
	C20.606531,98.008705 21.805113,99.525307 22.999256,101.408066 
	C24.657675,103.860664 26.320536,105.947105 28.189106,108.228363 
	C28.919214,108.619530 29.443613,108.815872 29.880651,109.255859 
	C29.877655,110.328987 29.962021,111.158463 30.120611,112.293602 
	C30.628082,113.760010 30.860268,115.069130 31.567619,116.027580 
	C32.014336,116.632904 33.170795,116.714447 34.254997,117.029106 
	C34.501087,117.027290 34.993271,117.025909 34.998795,117.380836 
	C36.163681,119.453003 37.148163,122.439758 38.518074,122.628464 
	C41.556107,123.046936 41.829239,124.716248 41.765396,126.779594 
	C39.611923,126.479309 37.778484,126.301895 35.945045,126.124481 
M29.496634,115.529282 
	C29.496634,115.529282 29.477524,115.481865 29.496634,115.529282 
z"/>
<path fill="#8FBDC2" opacity="1.000000" stroke="none" 
	d="
M63.310440,46.466820 
	C62.565212,44.956295 63.981762,42.166771 60.622772,42.129173 
	C60.087070,42.123177 59.565182,40.882938 59.036907,40.213303 
	C60.427818,39.205231 61.818729,38.197159 63.472988,36.998222 
	C62.268341,36.998222 60.968700,36.998222 59.283493,36.998222 
	C59.283493,35.577599 59.283493,34.369946 59.283493,32.987766 
	C62.096531,33.189228 65.741455,35.295341 65.686111,29.967241 
	C65.682785,29.647730 67.332130,29.311054 68.723465,29.258242 
	C69.681190,30.725775 70.127899,31.917431 70.563141,33.078491 
	C72.430199,32.695782 74.126968,32.347984 75.823730,32.000183 
	C76.014343,34.195042 76.204956,36.389900 76.419151,38.856239 
	C75.565529,38.799667 74.486534,38.728161 73.378998,38.654766 
	C72.383675,43.050797 67.944481,46.739407 63.571098,46.394135 
	C63.247688,46.396866 63.310440,46.466820 63.310440,46.466820 
M72.723457,38.403557 
	C72.969032,37.687721 73.214607,36.971886 73.460175,36.256050 
	C72.943604,36.477413 72.427025,36.698776 71.493736,37.029552 
	C71.657135,37.403179 71.820534,37.776806 72.723457,38.403557 
z"/>
<path fill="#424C6A" opacity="1.000000" stroke="none" 
	d="
M141.885681,91.927551 
	C144.196533,82.325768 143.813309,72.667755 142.502106,62.987926 
	C142.261581,61.212345 142.078003,59.429050 142.268097,57.210491 
	C143.121994,55.816635 143.575912,54.861599 144.029846,53.906567 
	C147.902863,62.732788 148.765747,71.947693 147.200470,81.361748 
	C146.237686,87.152153 144.814713,92.866043 143.202240,98.504616 
	C142.344315,97.821121 141.882492,97.247299 141.517807,96.290924 
	C141.705185,94.581436 141.795441,93.254494 141.885681,91.927551 
z"/>
<path fill="#32355A" opacity="1.000000" stroke="none" 
	d="
M94.034912,141.016251 
	C85.893570,144.623032 77.397179,143.081528 69.061920,142.380676 
	C65.186302,142.054810 61.435818,140.240738 57.291294,138.587860 
	C56.952106,137.386597 56.950233,136.698746 56.964439,135.996307 
	C56.980522,135.981705 57.007580,135.947693 57.382164,135.888367 
	C60.847672,136.232422 63.938587,136.635788 67.238708,137.280365 
	C68.104683,138.523651 68.761452,139.525726 70.085251,141.545547 
	C70.543846,139.281387 70.772614,138.151932 71.199493,137.146866 
	C71.651016,137.459213 71.864037,137.685257 72.173401,138.301544 
	C77.100006,141.067093 79.710640,140.567001 80.983505,136.576416 
	C80.992043,134.776398 81.002975,133.391769 81.251984,131.912872 
	C82.305069,131.884033 83.120079,131.949463 83.941635,132.389038 
	C83.948196,134.786728 83.948196,136.810257 83.948196,137.574387 
	C88.011749,137.682343 91.490555,137.774780 94.803703,138.091766 
	C94.436996,139.216309 94.235954,140.116272 94.034912,141.016251 
z"/>
<path fill="#88B7BE" opacity="1.000000" stroke="none" 
	d="
M96.088875,38.061859 
	C93.907600,38.935818 91.726318,39.809772 89.223068,40.830383 
	C87.423729,40.309139 85.887489,39.743198 84.490303,38.936432 
	C83.602486,38.423782 82.921280,37.553322 82.147423,36.843315 
	C83.047478,36.041241 84.210640,34.386253 84.806557,34.570087 
	C90.282372,36.259323 89.028717,32.388771 89.055420,29.480259 
	C93.399910,28.040804 94.113792,30.235186 92.905151,34.382011 
	C96.710724,30.832174 96.437653,29.135384 91.991028,25.342316 
	C92.649712,24.164997 93.337700,22.935303 93.529671,21.574406 
	C93.033653,21.443203 92.942131,21.536861 93.471268,21.755466 
	C94.196922,21.646900 94.393448,21.319727 94.559532,20.962225 
	C94.529091,20.931896 94.443321,20.937326 94.443321,20.937328 
	C95.702194,22.627283 96.961067,24.317238 98.609283,25.979170 
	C98.998627,25.951147 98.913391,25.992085 98.979858,26.248798 
	C99.347275,26.633646 99.648209,26.761780 99.971977,27.196352 
	C100.011253,27.706987 100.027702,27.911184 100.019058,28.456200 
	C100.920715,31.701340 101.847450,34.605663 102.818596,37.649178 
	C100.639404,37.416115 98.737747,37.212738 96.677185,37.169708 
	C96.311928,37.555042 96.155663,37.810646 96.040237,38.066647 
	C96.031013,38.036427 96.088875,38.061859 96.088875,38.061859 
z"/>
<path fill="#3D4466" opacity="1.000000" stroke="none" 
	d="
M144.017578,53.527191 
	C143.575912,54.861599 143.121994,55.816635 142.353577,56.883789 
	C141.274277,54.900585 140.509430,52.805256 139.853867,50.442856 
	C135.673584,43.556095 132.041901,36.361115 126.902809,30.484324 
	C122.108009,25.001238 115.711327,20.918961 110.520439,15.720550 
	C127.176376,23.279703 138.308456,35.800919 144.017578,53.527191 
z"/>
<path fill="#97C1C3" opacity="1.000000" stroke="none" 
	d="
M30.014709,53.175957 
	C30.993328,52.321602 31.971951,51.467251 32.884315,50.670738 
	C32.096653,48.973213 31.378214,47.424866 30.284939,45.068695 
	C32.734165,45.220139 34.238415,45.313152 35.692436,45.403061 
	C35.370724,40.069515 35.395515,40.212543 40.735802,41.831032 
	C42.408390,42.337948 44.511421,41.424591 46.760059,41.186848 
	C47.102695,41.212353 47.044449,41.167984 47.044449,41.167984 
	C47.231979,42.043587 47.882111,43.264389 47.529495,43.736931 
	C45.693977,46.196747 43.603172,48.466068 41.867970,51.158169 
	C40.099751,50.456306 37.127563,47.516209 36.790855,53.807545 
	C36.299824,54.393036 36.133968,54.584538 35.998390,54.802261 
	C35.273331,54.859352 34.548267,54.916443 33.108833,55.053238 
	C31.252392,55.429142 30.110323,55.725342 28.968256,56.021542 
	C28.968256,56.021542 29.000305,55.999695 29.123936,55.740795 
	C29.503283,54.713249 29.758997,53.944603 30.014709,53.175957 
z"/>
<path fill="#89B1B6" opacity="1.000000" stroke="none" 
	d="
M100.044144,28.115381 
	C100.027702,27.911184 100.011253,27.706987 100.066353,26.930418 
	C100.283920,26.239737 100.429947,26.121428 100.714935,25.856674 
	C101.237663,25.332880 101.621429,24.955532 102.179901,24.338362 
	C102.230080,23.703659 102.105545,23.308775 102.000153,22.949903 
	C102.019310,22.985914 102.077774,23.042805 102.041992,22.655552 
	C102.026405,21.490850 102.046600,20.713400 102.030319,19.964888 
	C101.993843,19.993826 101.930641,20.062222 101.930641,20.062222 
	C103.381325,19.998676 104.934441,19.574261 106.260262,19.950596 
	C108.641228,20.626425 110.885681,21.783161 113.510483,22.873215 
	C114.165367,24.309526 115.059784,26.271183 115.603424,28.552505 
	C113.350563,27.538097 111.934608,28.002604 110.600952,30.122221 
	C106.854004,29.510096 103.449074,28.812738 100.044144,28.115381 
z"/>
<path fill="#95C0C1" opacity="1.000000" stroke="none" 
	d="
M47.100143,41.248871 
	C47.399086,38.485981 47.700573,35.686573 47.997063,32.221600 
	C47.995811,31.371788 47.999561,31.187538 48.241432,30.996967 
	C48.878632,30.876734 49.277706,30.762821 49.676781,30.648907 
	C49.606602,30.489803 49.536423,30.330700 49.466248,30.171598 
	C48.976990,30.446836 48.487736,30.722075 47.725998,31.006546 
	C47.272541,31.032646 47.091564,31.049513 46.910587,31.066381 
	C46.910587,31.066381 46.990105,31.038198 46.974037,30.677423 
	C46.962593,29.529881 46.967216,28.743113 46.971836,27.956345 
	C46.971836,27.956345 46.997707,28.001740 47.320930,28.059277 
	C50.780487,28.319632 54.016804,32.884003 57.034256,27.901535 
	C57.484703,27.648479 57.935154,27.395426 59.013268,27.063549 
	C60.375050,26.999302 61.109169,27.013876 61.843288,27.028452 
	C62.999916,30.017944 63.246204,31.642542 58.851151,32.348801 
	C56.422680,32.739037 51.094719,32.990234 51.755558,38.588181 
	C51.802746,38.987919 48.908421,39.734901 47.213131,40.744205 
	C47.044449,41.167984 47.102695,41.212353 47.100143,41.248871 
z"/>
<path fill="#8DBABE" opacity="1.000000" stroke="none" 
	d="
M61.072365,50.979988 
	C59.969948,51.274384 58.856838,51.534233 57.767693,51.871483 
	C56.238277,52.345051 54.726669,52.876144 53.103722,53.691315 
	C53.000000,54.000000 52.996689,54.003704 52.996689,54.003708 
	C51.219166,55.003178 49.441643,56.002644 47.291275,57.015236 
	C45.957973,56.130581 44.997520,55.232811 44.037067,54.335037 
	C44.834934,53.653744 45.557247,52.847076 46.443741,52.312862 
	C50.269230,50.007584 54.054684,47.602547 58.053936,45.639767 
	C59.216442,45.069218 61.040413,45.846436 62.935806,46.236328 
	C63.310440,46.466820 63.247688,46.396866 63.221878,46.372856 
	C62.890965,47.453121 62.585854,48.557392 62.682289,49.862053 
	C63.083828,50.062435 63.124863,50.002567 62.873737,49.635876 
	C62.105862,49.839451 61.589111,50.409718 61.072365,50.979988 
z"/>
<path fill="#383D61" opacity="1.000000" stroke="none" 
	d="
M94.437592,140.987000 
	C94.235954,140.116272 94.436996,139.216309 94.810699,137.875641 
	C94.983368,137.434937 95.000305,137.000031 95.264267,137.074402 
	C96.691635,136.091537 97.855034,135.034286 99.371048,134.001343 
	C103.151299,133.015060 106.578926,132.004486 110.211060,130.772720 
	C110.940994,129.703674 111.466415,128.855804 112.133606,128.321869 
	C112.856293,130.369568 113.437202,132.103348 114.018120,133.837128 
	C107.625504,136.210678 101.232887,138.584229 94.437592,140.987000 
z"/>
<path fill="#434769" opacity="1.000000" stroke="none" 
	d="
M39.390778,24.361412 
	C34.083996,28.973902 29.079517,33.403446 24.711658,37.269508 
	C24.309641,32.655804 37.209248,19.681959 45.176975,19.284367 
	C42.894024,21.321789 41.293552,22.750128 39.390778,24.361412 
z"/>
<path fill="#80AFB2" opacity="1.000000" stroke="none" 
	d="
M110.942963,30.036989 
	C111.934608,28.002604 113.350563,27.538097 115.536560,28.932804 
	C115.567879,29.856293 115.315269,30.719147 114.860825,32.271465 
	C117.014267,31.777472 118.638458,31.404886 120.885468,31.271111 
	C122.285118,31.680244 123.061943,31.850571 123.838768,32.020897 
	C123.882446,32.757301 123.926125,33.493710 123.598885,34.547005 
	C122.136520,35.282112 121.045082,35.700325 119.616669,36.183102 
	C116.159088,37.166485 113.038475,38.085304 109.917870,39.004120 
	C109.917870,39.004120 109.981979,39.010536 110.354492,38.760414 
	C110.798988,35.685856 110.870979,32.861423 110.942963,30.036989 
z"/>
<path fill="#34385E" opacity="1.000000" stroke="none" 
	d="
M36.115456,126.409714 
	C37.778484,126.301895 39.611923,126.479309 42.098579,126.811432 
	C43.848232,127.636238 44.944672,128.306335 46.039051,129.252426 
	C46.692944,130.011826 47.348900,130.495224 48.247528,131.130676 
	C49.654877,129.520706 50.819550,127.758659 52.314323,126.000031 
	C53.083645,126.012566 53.522869,126.021683 53.966583,126.454254 
	C53.935005,128.566467 53.898933,130.255219 53.563683,132.074158 
	C52.465900,133.486633 51.667294,134.768921 50.868679,136.051193 
	C46.007736,132.932449 41.146797,129.813705 36.115456,126.409714 
z"/>
<path fill="#454F7A" opacity="1.000000" stroke="none" 
	d="
M127.953278,120.728416 
	C127.953270,120.728416 127.514931,120.888603 126.908554,120.955551 
	C125.531586,121.014488 124.760986,121.006477 123.621353,121.018219 
	C114.410912,124.495087 113.971909,124.289597 114.647766,116.803825 
	C119.727951,116.574799 124.380585,116.352089 128.892548,116.440781 
	C128.485687,118.077599 128.219482,119.403008 127.953278,120.728416 
z"/>
<path fill="#3A4064" opacity="1.000000" stroke="none" 
	d="
M13.127892,85.046471 
	C10.980111,75.490028 11.880732,66.215691 14.785773,57.126854 
	C15.510612,57.194492 16.235449,57.262131 16.960287,57.329769 
	C16.612316,59.675617 16.264347,62.021461 15.662088,65.093109 
	C14.960673,69.993309 14.273007,74.164345 14.214715,78.344170 
	C14.197489,79.579361 15.956513,80.839325 16.914085,82.372925 
	C16.970352,83.778252 17.014093,84.898598 16.716314,86.002708 
	C15.292492,85.673141 14.210192,85.359802 13.127892,85.046471 
z"/>
<path fill="#3E456E" opacity="1.000000" stroke="none" 
	d="
M114.220222,116.810143 
	C113.971909,124.289597 114.410912,124.495087 123.552902,121.355377 
	C122.665428,122.938118 121.332840,124.098778 120.322952,125.493156 
	C118.782974,127.619446 117.466209,129.907394 116.054672,132.126694 
	C115.560852,132.673721 115.067039,133.220734 114.295670,133.802460 
	C113.437202,132.103348 112.856293,130.369568 112.351669,128.019180 
	C112.288399,124.932243 112.148849,122.461891 112.106125,119.878807 
	C112.322678,119.461090 112.244987,119.204735 111.805199,118.826065 
	C111.728340,118.098511 111.816185,117.541893 112.271873,116.980270 
	C113.128464,116.937355 113.617210,116.899437 114.131409,116.841751 
	C114.156860,116.821976 114.220222,116.810143 114.220222,116.810143 
z"/>
<path fill="#393E67" opacity="1.000000" stroke="none" 
	d="
M86.984985,10.006761 
	C79.965904,10.006761 72.946823,10.006761 65.409737,10.006761 
	C72.735519,6.377208 79.987007,6.776379 87.813248,7.566669 
	C89.368507,8.503900 90.347000,9.033485 92.145271,10.006761 
	C89.817818,10.006761 88.401405,10.006761 86.984985,10.006761 
z"/>
<path fill="#86ACB4" opacity="1.000000" stroke="none" 
	d="
M82.885529,18.037613 
	C80.388054,18.135370 77.923370,18.200722 79.208397,14.762663 
	C82.559875,14.182362 85.715668,13.550900 88.897751,13.108400 
	C92.214798,12.647134 93.710579,13.766531 91.699982,17.609856 
	C89.966064,18.642490 88.551422,19.276793 87.110077,19.923067 
	C85.753975,19.317825 84.319748,18.677719 82.885529,18.037613 
z"/>
<path fill="#88B7BE" opacity="1.000000" stroke="none" 
	d="
M82.933426,18.427759 
	C84.319748,18.677719 85.753975,19.317825 87.110077,19.923067 
	C88.551422,19.276793 89.966064,18.642490 91.723892,17.979622 
	C92.067085,17.951052 92.016243,17.978649 92.078209,18.251202 
	C92.452171,19.026752 92.764168,19.529751 93.032547,20.407877 
	C92.973328,21.034290 92.957726,21.285576 92.942131,21.536861 
	C92.942131,21.536861 93.033653,21.443203 93.061684,21.383894 
	C91.520653,21.591814 89.895576,21.688560 88.400177,22.179951 
	C87.193367,22.576508 86.057205,23.340952 85.047409,24.141193 
	C84.037453,24.941561 83.326622,26.157169 82.254387,26.815958 
	C81.967529,26.992201 80.157967,25.700655 80.222534,25.252110 
	C80.430611,23.806625 81.150024,22.424049 81.746284,21.049311 
	C82.082993,20.272993 82.564850,19.559628 82.933426,18.427759 
z"/>
<path fill="#8DB3B8" opacity="1.000000" stroke="none" 
	d="
M57.021423,27.521233 
	C54.016804,32.884003 50.780487,28.319632 47.299805,28.043739 
	C47.677845,26.375200 48.400242,24.779732 48.796677,23.904167 
	C51.437256,23.904167 53.510616,23.904167 56.311974,23.904167 
	C56.420902,24.410284 56.714745,25.775606 57.021423,27.521233 
z"/>
<path fill="#3F4666" opacity="1.000000" stroke="none" 
	d="
M128.307892,120.777054 
	C128.219482,119.403008 128.485687,118.077599 129.179199,116.235413 
	C131.724365,112.808449 133.842194,109.898254 136.262650,107.082001 
	C137.054459,107.814659 137.543671,108.453377 138.032867,109.092102 
	C134.909424,113.003304 131.785965,116.914497 128.307892,120.777054 
z"/>
<path fill="#86A9AE" opacity="1.000000" stroke="none" 
	d="
M119.953636,36.118538 
	C121.045082,35.700325 122.136520,35.282112 123.536476,34.912014 
	C125.460861,36.644249 126.830116,38.738792 128.760834,39.898987 
	C130.758163,41.099213 131.794327,41.823875 129.446594,43.897396 
	C127.614670,43.831249 126.100716,43.622826 124.179398,42.829067 
	C122.499229,40.202000 121.226433,38.160267 119.953636,36.118538 
z"/>
<path fill="#454B6F" opacity="1.000000" stroke="none" 
	d="
M87.209183,10.335035 
	C88.401405,10.006761 89.817818,10.006761 92.145271,10.006761 
	C90.347000,9.033485 89.368507,8.503900 88.201477,7.695000 
	C93.255402,8.563647 98.497864,9.711608 103.740326,10.859569 
	C103.655228,11.534001 103.570129,12.208433 103.485031,12.882865 
	C97.984276,14.635652 92.836937,10.523644 87.209183,10.335035 
z"/>
<path fill="#8BB7BF" opacity="1.000000" stroke="none" 
	d="
M75.991959,31.685545 
	C74.126968,32.347984 72.430199,32.695782 70.563141,33.078491 
	C70.127899,31.917431 69.681190,30.725775 69.094650,29.220139 
	C71.151176,26.114273 76.506149,26.119074 79.243057,29.308678 
	C78.183212,30.017639 77.171692,30.694273 75.991959,31.685545 
z"/>
<path fill="#3C4165" opacity="1.000000" stroke="none" 
	d="
M116.397575,132.049606 
	C117.466209,129.907394 118.782974,127.619446 120.322952,125.493156 
	C121.332840,124.098778 122.665428,122.938118 123.921944,121.335617 
	C124.760986,121.006477 125.531586,121.014488 126.687332,121.029800 
	C126.016777,126.938736 120.997780,129.095795 116.397575,132.049606 
z"/>
<path fill="#526581" opacity="1.000000" stroke="none" 
	d="
M16.901558,82.087936 
	C15.956513,80.839325 14.197489,79.579361 14.214715,78.344170 
	C14.273007,74.164345 14.960673,69.993309 15.581812,65.501556 
	C15.926977,66.301735 16.098129,67.419273 16.573826,68.689194 
	C16.935152,72.217690 16.991930,75.593819 17.031551,79.791214 
	C16.976782,81.104301 16.939169,81.596123 16.901558,82.087936 
z"/>
<path fill="#40476D" opacity="1.000000" stroke="none" 
	d="
M138.337448,108.922066 
	C137.543671,108.453377 137.054459,107.814659 136.432556,106.773224 
	C138.006775,103.138161 139.713730,99.905823 141.420670,96.673477 
	C141.882492,97.247299 142.344315,97.821121 142.924774,98.749374 
	C141.576294,102.319885 140.109161,105.535957 138.337448,108.922066 
z"/>
<path fill="#41486C" opacity="1.000000" stroke="none" 
	d="
M13.087923,85.442787 
	C14.210192,85.359802 15.292492,85.673141 16.759407,86.381516 
	C17.750902,89.851959 18.357786,92.927368 18.964672,96.002777 
	C17.804216,95.038277 16.643763,94.073776 15.196853,93.070175 
	C14.289583,90.633759 13.668769,88.236427 13.087923,85.442787 
z"/>
<path fill="#8BADB6" opacity="1.000000" stroke="none" 
	d="
M102.005188,24.578182 
	C101.621429,24.955532 101.237663,25.332880 100.301788,25.477097 
	C99.470901,25.493336 99.192146,25.742708 98.913391,25.992083 
	C98.913391,25.992085 98.998627,25.951147 99.019760,25.993130 
	C97.177887,24.295492 97.012032,18.264004 98.896965,16.740526 
	C99.449455,16.293983 100.984406,16.040195 101.064598,16.200500 
	C101.533882,17.138697 101.705063,18.226002 101.953735,19.662607 
	C101.930641,20.062222 101.993843,19.993826 101.679459,19.986546 
	C101.602638,21.000444 101.840210,22.021624 102.077774,23.042805 
	C102.077774,23.042805 102.019310,22.985914 101.629410,23.371473 
	C101.494728,24.030748 101.749962,24.304464 102.005188,24.578182 
z"/>
<path fill="#92B4B9" opacity="1.000000" stroke="none" 
	d="
M62.016956,26.730164 
	C61.109169,27.013876 60.375050,26.999302 59.274040,26.973446 
	C58.558823,25.472826 58.210499,23.983488 57.862175,22.494152 
	C58.292568,22.079554 58.722965,21.664957 59.153358,21.250359 
	C61.400112,22.765390 63.680656,24.235220 65.848557,25.855740 
	C66.104095,26.046747 65.741249,27.065012 65.665070,27.699791 
	C64.506920,27.277153 63.348774,26.854513 62.016956,26.730164 
z"/>
<path fill="#3A3F6D" opacity="1.000000" stroke="none" 
	d="
M51.082241,136.304611 
	C51.667294,134.768921 52.465900,133.486633 53.784561,132.223099 
	C55.534859,132.495804 56.765102,132.749756 57.868515,133.289948 
	C57.496986,134.366684 57.252281,135.157196 57.007576,135.947693 
	C57.007580,135.947693 56.980522,135.981705 56.679169,136.085358 
	C55.912239,136.795349 55.446655,137.401718 54.981079,138.008087 
	C53.752655,137.524734 52.524227,137.041382 51.082241,136.304611 
z"/>
<path fill="#8BB5B8" opacity="1.000000" stroke="none" 
	d="
M29.612581,53.107109 
	C29.758997,53.944603 29.503283,54.713249 29.111202,55.755432 
	C27.158691,55.930725 25.342546,55.832489 23.181696,55.715603 
	C22.563623,48.918911 27.122053,53.546829 29.612581,53.107109 
z"/>
<path fill="#8DB3B8" opacity="1.000000" stroke="none" 
	d="
M46.661896,28.082994 
	C46.967216,28.743113 46.962593,29.529881 46.947121,30.709904 
	C45.529266,31.875782 44.122257,32.648403 42.715252,33.421024 
	C42.319199,32.772396 41.923149,32.123764 41.527100,31.475134 
	C43.135384,30.386637 44.743668,29.298141 46.661896,28.082994 
z"/>
<path fill="#86ACB4" opacity="1.000000" stroke="none" 
	d="
M93.076164,20.032749 
	C92.764168,19.529751 92.452171,19.026752 92.091873,18.225822 
	C93.493828,17.933182 94.944084,17.938471 96.394333,17.943760 
	C95.924591,18.805038 95.454849,19.666317 94.714218,20.732460 
	C94.443321,20.937326 94.529091,20.931896 94.308395,20.786034 
	C93.750519,20.437698 93.413345,20.235226 93.076164,20.032749 
z"/>
<path fill="#4A517A" opacity="1.000000" stroke="none" 
	d="
M61.941566,11.606863 
	C62.710247,11.550568 63.234207,11.687568 63.758163,11.824568 
	C62.867287,12.126187 61.976414,12.427806 61.085537,12.729425 
	C61.049938,12.623854 60.953392,12.458412 60.988689,12.422481 
	C61.208313,12.198903 61.457478,12.004342 61.941566,11.606863 
z"/>
<path fill="#8BB5B8" opacity="1.000000" stroke="none" 
	d="
M29.131939,56.357700 
	C30.110323,55.725342 31.252392,55.429142 32.745598,55.086296 
	C31.829695,55.591053 30.562658,56.142456 29.131939,56.357700 
z"/>
<path fill="#434775" opacity="1.000000" stroke="none" 
	d="
M55.135750,138.247986 
	C55.446655,137.401718 55.912239,136.795349 56.663090,136.099945 
	C56.950233,136.698746 56.952106,137.386597 56.942623,138.418030 
	C56.384323,138.670380 55.837379,138.579132 55.135750,138.247986 
z"/>
<path fill="#363C66" opacity="1.000000" stroke="none" 
	d="
M18.706383,50.148926 
	C18.864542,50.976185 18.864542,51.592133 18.864542,52.208080 
	C18.654837,52.197453 18.445133,52.186829 18.235428,52.176201 
	C18.339693,51.430008 18.443956,50.683811 18.706383,50.148926 
z"/>
<path fill="#4B4F71" opacity="1.000000" stroke="none" 
	d="
M58.292595,10.817745 
	C58.924194,10.373741 59.504467,10.207496 60.084736,10.041250 
	C60.141563,10.249002 60.198395,10.456753 60.255222,10.664504 
	C59.583904,10.808171 58.912586,10.951838 58.292595,10.817745 
z"/>
<path fill="#86A9AE" opacity="1.000000" stroke="none" 
	d="
M123.788162,31.675446 
	C123.061943,31.850571 122.285118,31.680244 121.265297,31.332531 
	C121.927391,31.213428 122.832474,31.271711 123.788162,31.675446 
z"/>
<path fill="#8BB5B8" opacity="1.000000" stroke="none" 
	d="
M36.256813,54.847572 
	C36.133968,54.584538 36.299824,54.393036 36.650833,54.116600 
	C36.708889,54.301258 36.612061,54.597069 36.256813,54.847572 
z"/>
<path fill="#8DB3B8" opacity="1.000000" stroke="none" 
	d="
M48.003307,31.003288 
	C47.999561,31.187538 47.995811,31.371788 47.972866,31.831921 
	C47.661125,31.927605 47.368572,31.747406 46.993305,31.316795 
	C47.091564,31.049513 47.272541,31.032646 47.726768,31.007908 
	C48.000027,31.000034 48.003307,31.003288 48.003307,31.003288 
z"/>
<path fill="#5A7CA0" opacity="1.000000" stroke="none" 
	d="
M19.186310,96.247437 
	C18.357786,92.927368 17.750902,89.851959 17.100929,86.397743 
	C17.014093,84.898598 16.970352,83.778252 16.914085,82.372925 
	C16.939169,81.596123 16.976782,81.104301 17.059931,80.244232 
	C24.759304,77.183624 32.541752,74.805504 40.041260,71.736084 
	C57.825512,64.457298 75.003983,66.464676 92.131790,74.006386 
	C105.404564,79.850662 118.807625,85.409897 132.269333,90.805008 
	C134.933304,91.872658 138.127991,91.616119 141.481812,91.948898 
	C141.795441,93.254494 141.705185,94.581436 141.517807,96.290932 
	C139.713730,99.905823 138.006775,103.138161 136.129944,106.679283 
	C133.842194,109.898254 131.724365,112.808449 129.319870,115.924011 
	C124.380585,116.352089 119.727951,116.574799 114.647766,116.803825 
	C114.220222,116.810143 114.156860,116.821976 114.052505,116.538239 
	C113.016396,115.143852 112.084641,114.033203 111.147964,112.886429 
	C111.143044,112.850296 111.088379,112.802032 110.897484,112.474731 
	C109.654778,111.785744 108.565613,111.032532 107.557495,111.128731 
	C102.649239,111.597137 98.225487,111.273926 95.831039,105.554672 
	C93.198578,104.835182 90.689621,104.729683 88.458229,103.888168 
	C86.527138,103.159904 83.377235,101.560242 83.404274,100.407639 
	C83.582222,92.820457 78.789467,92.929596 73.440514,92.811432 
	C71.885994,92.777084 69.508377,91.157181 68.992317,89.728111 
	C66.835167,83.754570 59.472450,81.689339 53.489731,85.899002 
	C48.938591,86.558449 44.842701,87.184265 40.556320,87.958252 
	C40.135410,88.345177 39.988243,88.627350 39.930702,88.932144 
	C39.937084,88.911339 39.894314,88.919434 39.561485,89.088623 
	C38.931057,89.644264 38.346962,90.055847 38.378338,90.413422 
	C38.951153,96.940781 35.093586,97.690971 30.004181,96.967857 
	C29.032236,96.829773 28.020721,96.999016 27.033316,96.935493 
	C24.078928,96.745415 22.691830,98.048820 23.003696,101.041908 
	C21.805113,99.525307 20.606531,98.008705 19.186310,96.247437 
z"/>
<path fill="#000000" opacity="1.000000" stroke="none" 
	d="
M110.600952,30.122221 
	C110.870979,32.861423 110.798988,35.685856 110.369003,38.789177 
	C105.497749,38.987923 100.984489,38.907784 96.280060,38.444752 
	C96.088875,38.061859 96.031013,38.036427 96.293976,37.985069 
	C96.649994,37.625599 96.743050,37.317478 96.836098,37.009361 
	C98.737747,37.212738 100.639404,37.416115 102.818596,37.649178 
	C101.847450,34.605663 100.920715,31.701340 100.019058,28.456200 
	C103.449074,28.812738 106.854004,29.510096 110.600952,30.122221 
z"/>
<path fill="#000000" opacity="1.000000" stroke="none" 
	d="
M119.616669,36.183102 
	C121.226433,38.160267 122.499229,40.202000 123.875046,42.602112 
	C119.416214,41.878387 114.854347,40.796284 110.105179,39.359146 
	C113.038475,38.085304 116.159088,37.166485 119.616669,36.183102 
z"/>
<path fill="#8DBABE" opacity="1.000000" stroke="none" 
	d="
M53.001854,53.998161 
	C53.592098,54.158474 54.180489,54.320633 54.768883,54.482788 
	C54.583237,54.704144 54.318607,55.142929 54.225628,55.109158 
	C53.826180,54.964062 53.477184,54.680046 53.053249,54.225174 
	C52.996689,54.003704 53.000000,54.000000 53.001854,53.998161 
z"/>
<path fill="#000000" opacity="1.000000" stroke="none" 
	d="
M61.392303,50.991211 
	C61.589111,50.409718 62.105862,49.839451 62.845352,49.613266 
	C62.616142,50.305714 62.164196,50.654079 61.392303,50.991211 
z"/>
<path fill="#424775" opacity="1.000000" stroke="none" 
	d="
M51.984226,125.996613 
	C50.819550,127.758659 49.654877,129.520706 48.163067,130.841827 
	C47.237659,129.926086 46.639385,129.451248 46.041115,128.976425 
	C44.944672,128.306335 43.848232,127.636238 42.418610,126.934296 
	C41.829239,124.716248 41.556107,123.046936 38.518074,122.628464 
	C37.148163,122.439758 36.163681,119.453003 34.994843,117.017105 
	C34.323528,115.198967 33.661686,114.099487 32.999924,113.000000 
	C33.000000,113.000000 33.000038,113.000000 32.999191,112.633011 
	C32.770542,110.452843 33.645401,107.612747 29.968014,109.012207 
	C29.443613,108.815872 28.919214,108.619530 28.347464,107.903793 
	C31.087530,103.845345 30.432608,95.785004 39.894314,100.463028 
	C39.894314,95.951202 39.894314,92.435318 39.894314,88.919434 
	C39.894314,88.919434 39.937084,88.911339 40.397171,88.944252 
	C42.012646,88.983528 43.168034,88.990730 44.323429,88.996124 
	C50.975945,89.027161 50.987450,89.026993 51.000538,95.504723 
	C51.014542,102.437218 50.903576,109.371864 51.048347,116.301369 
	C51.115971,119.538216 51.657497,122.765175 51.984226,125.996613 
z"/>
<path fill="#444C79" opacity="1.000000" stroke="none" 
	d="
M39.561485,89.088623 
	C39.894314,92.435318 39.894314,95.951202 39.894314,100.463028 
	C30.432608,95.785004 31.087530,103.845345 28.141754,107.708969 
	C26.320536,105.947105 24.657675,103.860664 22.999256,101.408066 
	C22.691830,98.048820 24.078928,96.745415 27.033316,96.935493 
	C28.020721,96.999016 29.032236,96.829773 30.004181,96.967857 
	C35.093586,97.690971 38.951153,96.940781 38.378338,90.413422 
	C38.346962,90.055847 38.931057,89.644264 39.561485,89.088623 
z"/>
<path fill="#424775" opacity="1.000000" stroke="none" 
	d="
M34.008907,117.030922 
	C33.170795,116.714447 32.014336,116.632904 31.567619,116.027580 
	C30.860268,115.069130 30.628082,113.760010 30.427679,112.350441 
	C31.440361,112.401077 32.220200,112.700539 33.000038,113.000000 
	C33.000038,113.000000 33.000000,113.000000 33.060829,113.340744 
	C33.417408,114.797958 33.713158,115.914444 34.008907,117.030922 
z"/>
<path fill="#444C79" opacity="1.000000" stroke="none" 
	d="
M32.999191,112.633011 
	C32.220200,112.700539 31.440361,112.401077 30.353455,112.044777 
	C29.962021,111.158463 29.877655,110.328987 29.880653,109.255859 
	C33.645401,107.612747 32.770542,110.452843 32.999191,112.633011 
z"/>
<path fill="#444C79" opacity="1.000000" stroke="none" 
	d="
M34.254997,117.029106 
	C33.713158,115.914444 33.417408,114.797958 33.060753,113.340744 
	C33.661686,114.099487 34.323528,115.198967 34.989319,116.662186 
	C34.993271,117.025909 34.501087,117.027290 34.254997,117.029106 
z"/>
<path fill="#424775" opacity="1.000000" stroke="none" 
	d="
M29.487080,115.505569 
	C29.477524,115.481865 29.496634,115.529282 29.487080,115.505569 
z"/>
<path fill="#000000" opacity="1.000000" stroke="none" 
	d="
M71.910454,36.920139 
	C72.427025,36.698776 72.943604,36.477413 73.460175,36.256050 
	C73.214607,36.971886 72.969032,37.687721 72.357956,37.968071 
	C71.965118,37.328434 71.937782,37.124287 71.910454,36.920139 
z"/>
<path fill="#000000" opacity="1.000000" stroke="none" 
	d="
M71.988190,37.841507 
	C71.820534,37.776806 71.657135,37.403179 71.702095,36.974846 
	C71.937782,37.124287 71.965118,37.328434 71.988190,37.841507 
z"/>
<path fill="#444A78" opacity="1.000000" stroke="none" 
	d="
M53.944984,85.865372 
	C59.472450,81.689339 66.835167,83.754570 68.992317,89.728111 
	C69.508377,91.157181 71.885994,92.777084 73.440514,92.811432 
	C78.789467,92.929596 83.582222,92.820457 83.404274,100.407639 
	C83.377235,101.560242 86.527138,103.159904 88.458229,103.888168 
	C90.689621,104.729683 93.198578,104.835182 95.810310,105.952850 
	C96.017738,107.437584 96.001884,108.229713 95.759933,109.365959 
	C95.355988,118.806725 95.178146,127.903374 95.000305,137.000031 
	C95.000305,137.000031 94.983368,137.434937 94.976364,137.651062 
	C91.490555,137.774780 88.011749,137.682343 83.948196,137.574387 
	C83.948196,136.810257 83.948196,134.786728 83.961136,131.931244 
	C84.287949,127.316109 84.792732,123.536301 84.860123,119.748718 
	C84.923134,116.207214 86.086243,112.190460 81.334396,108.977188 
	C80.807938,111.842789 80.038635,114.021950 80.083473,116.184212 
	C80.192963,121.462685 80.679306,126.733353 81.013916,132.007156 
	C81.002975,133.391769 80.992043,134.776398 80.580414,136.604736 
	C77.465378,137.348770 74.751015,137.649063 72.036659,137.949371 
	C71.864037,137.685257 71.651016,137.459213 71.051407,136.808838 
	C70.459633,134.903000 70.214066,133.459549 69.977859,131.545868 
	C69.992699,125.110886 70.097137,119.144112 69.975586,113.181946 
	C69.855881,107.310486 70.520584,101.349617 69.515457,95.551048 
	C68.674599,95.564674 67.833733,95.578293 66.992874,95.591911 
	C66.992874,98.393730 66.992874,101.195541 66.612305,104.036140 
	C62.615891,106.534958 61.387733,119.828560 64.608170,122.416588 
	C65.184814,122.879997 66.180702,122.821716 66.986259,123.454254 
	C67.001938,126.607483 67.014381,129.310776 67.020142,132.344376 
	C67.003006,133.115005 66.992554,133.555344 66.661095,133.894562 
	C63.867073,130.269867 60.887234,132.101440 57.995346,133.003708 
	C56.765102,132.749756 55.534859,132.495804 54.083736,132.092926 
	C53.898933,130.255219 53.935005,128.566467 53.977905,125.982269 
	C53.983040,112.739792 53.981354,100.392754 53.981926,87.682663 
	C53.971119,86.834862 53.958050,86.350121 53.944984,85.865372 
M55.797974,122.768456 
	C55.720379,123.185699 55.642780,123.602943 55.565182,124.020187 
	C55.847828,124.027840 56.130474,124.035492 56.413120,124.043144 
	C56.353054,123.622589 56.292988,123.202026 55.797974,122.768456 
z"/>
<path fill="#353B67" opacity="1.000000" stroke="none" 
	d="
M81.251999,131.912872 
	C80.679306,126.733353 80.192963,121.462685 80.083473,116.184212 
	C80.038635,114.021950 80.807938,111.842789 81.334396,108.977188 
	C86.086243,112.190460 84.923134,116.207214 84.860123,119.748718 
	C84.792732,123.536301 84.287949,127.316109 83.954582,131.557098 
	C83.120079,131.949463 82.305069,131.884033 81.251999,131.912872 
z"/>
<path fill="#434775" opacity="1.000000" stroke="none" 
	d="
M57.868515,133.289948 
	C60.887234,132.101440 63.867073,130.269867 66.668167,134.274567 
	C67.007324,135.516830 67.018417,136.277985 67.029503,137.039154 
	C63.938587,136.635788 60.847672,136.232422 57.382164,135.888367 
	C57.252281,135.157196 57.496986,134.366684 57.868515,133.289948 
z"/>
<path fill="#353B67" opacity="1.000000" stroke="none" 
	d="
M67.238708,137.280365 
	C67.018417,136.277985 67.007324,135.516830 66.989166,134.375671 
	C66.992554,133.555344 67.003006,133.115005 67.387680,132.340973 
	C68.497421,132.010223 69.232956,132.013168 69.968491,132.016113 
	C70.214066,133.459549 70.459633,134.903000 70.853287,136.684448 
	C70.772614,138.151932 70.543846,139.281387 70.085251,141.545547 
	C68.761452,139.525726 68.104683,138.523651 67.238708,137.280365 
z"/>
<path fill="#353B67" opacity="1.000000" stroke="none" 
	d="
M72.173401,138.301529 
	C74.751015,137.649063 77.465378,137.348770 80.582825,137.020142 
	C79.710640,140.567001 77.100006,141.067093 72.173401,138.301529 
z"/>
<path fill="#7EAEBC" opacity="1.000000" stroke="none" 
	d="
M96.677185,37.169708 
	C96.743050,37.317478 96.649994,37.625599 96.303207,38.015289 
	C96.155663,37.810646 96.311928,37.555042 96.677185,37.169708 
z"/>
<path fill="#000000" opacity="1.000000" stroke="none" 
	d="
M93.032547,20.407879 
	C93.413345,20.235226 93.750519,20.437698 94.338837,20.816364 
	C94.393448,21.319727 94.196922,21.646900 93.471268,21.755466 
	C92.957726,21.285576 92.973328,21.034290 93.032547,20.407879 
z"/>
<path fill="#000000" opacity="1.000000" stroke="none" 
	d="
M98.979858,26.248798 
	C99.192146,25.742708 99.470901,25.493336 100.162811,25.623543 
	C100.429947,26.121428 100.283920,26.239737 100.043526,26.623980 
	C99.648209,26.761780 99.347275,26.633646 98.979858,26.248798 
z"/>
<path fill="#000000" opacity="1.000000" stroke="none" 
	d="
M102.042000,22.655552 
	C101.840210,22.021624 101.602638,21.000444 101.715927,19.957607 
	C102.046600,20.713400 102.026405,21.490850 102.042000,22.655552 
z"/>
<path fill="#000000" opacity="1.000000" stroke="none" 
	d="
M102.179901,24.338362 
	C101.749962,24.304464 101.494728,24.030748 101.610252,23.335463 
	C102.105545,23.308775 102.230080,23.703659 102.179901,24.338362 
z"/>
<path fill="#8DB3B8" opacity="1.000000" stroke="none" 
	d="
M47.999252,30.998672 
	C48.487736,30.722075 48.976990,30.446836 49.466248,30.171598 
	C49.536423,30.330700 49.606602,30.489803 49.676781,30.648907 
	C49.277706,30.762821 48.878632,30.876734 48.241432,30.996967 
	C48.003307,31.003288 48.000027,31.000034 47.999252,30.998672 
z"/>
<path fill="#434877" opacity="1.000000" stroke="none" 
	d="
M110.006554,130.993896 
	C106.578926,132.004486 103.151299,133.015060 99.265121,133.663345 
	C98.871391,129.861191 98.968956,126.421562 98.994766,122.981400 
	C99.068176,113.198517 98.102684,114.023247 108.352882,113.998436 
	C109.019333,113.983192 109.399765,113.974113 109.831345,114.432266 
	C109.923843,120.264297 109.965195,125.629097 110.006554,130.993896 
z"/>
<path fill="#333A69" opacity="1.000000" stroke="none" 
	d="
M108.066864,114.004608 
	C98.102684,114.023247 99.068176,113.198517 98.994766,122.981400 
	C98.968956,126.421562 98.871391,129.861191 98.912506,133.639038 
	C97.855034,135.034286 96.691635,136.091537 95.264267,137.074402 
	C95.178146,127.903374 95.355988,118.806725 95.790504,109.756134 
	C97.627647,110.869339 99.077591,112.340752 100.820869,112.903580 
	C103.115509,113.644424 105.640770,113.670944 108.066864,114.004608 
z"/>
<path fill="#2F3765" opacity="1.000000" stroke="none" 
	d="
M110.211060,130.772705 
	C109.965195,125.629097 109.923843,120.264297 110.024628,114.210609 
	C110.473969,113.281822 110.781174,113.041931 111.088379,112.802032 
	C111.088379,112.802032 111.143044,112.850296 111.169090,113.233093 
	C111.431435,114.739014 111.667732,115.862144 111.904037,116.985275 
	C111.816185,117.541893 111.728340,118.098511 111.815292,119.074738 
	C111.990097,119.494339 112.009293,119.991539 112.009293,119.991539 
	C112.148849,122.461891 112.288399,124.932243 112.209900,127.705276 
	C111.466415,128.855804 110.940994,129.703674 110.211060,130.772705 
z"/>
<path fill="#3A3F6D" opacity="1.000000" stroke="none" 
	d="
M53.979664,88.045723 
	C53.981354,100.392754 53.983040,112.739792 53.973408,125.558807 
	C53.522869,126.021683 53.083645,126.012566 52.314323,126.000031 
	C51.657497,122.765175 51.115971,119.538216 51.048347,116.301369 
	C50.903576,109.371864 51.014542,102.437218 51.000538,95.504723 
	C50.987450,89.026993 50.975945,89.027161 44.323429,88.996124 
	C43.168034,88.990730 42.012646,88.983528 40.390789,88.965057 
	C39.988243,88.627350 40.135410,88.345177 41.042671,88.014633 
	C45.806236,87.963814 49.892948,88.004768 53.979664,88.045723 
z"/>
<path fill="#3A3F6D" opacity="1.000000" stroke="none" 
	d="
M46.039051,129.252426 
	C46.639385,129.451248 47.237659,129.926086 47.920395,130.689758 
	C47.348900,130.495224 46.692944,130.011826 46.039051,129.252426 
z"/>
<path fill="#454F7A" opacity="1.000000" stroke="none" 
	d="
M112.271866,116.980270 
	C111.667732,115.862144 111.431435,114.739014 111.174011,113.269218 
	C112.084641,114.033203 113.016396,115.143852 114.027061,116.558006 
	C113.617210,116.899437 113.128464,116.937355 112.271866,116.980270 
z"/>
<path fill="#454F7A" opacity="1.000000" stroke="none" 
	d="
M112.106125,119.878807 
	C112.009293,119.991539 111.990097,119.494339 111.979996,119.245667 
	C112.244987,119.204735 112.322678,119.461090 112.106125,119.878807 
z"/>
<path fill="#454F7A" opacity="1.000000" stroke="none" 
	d="
M110.897484,112.474731 
	C110.781174,113.041931 110.473969,113.281822 109.973480,113.743378 
	C109.399765,113.974113 109.019333,113.983192 108.352882,113.998436 
	C105.640770,113.670944 103.115509,113.644424 100.820869,112.903580 
	C99.077591,112.340752 97.627647,110.869339 96.016602,109.412018 
	C96.001884,108.229713 96.017738,107.437584 96.054329,106.247269 
	C98.225487,111.273926 102.649239,111.597137 107.557495,111.128731 
	C108.565613,111.032532 109.654778,111.785744 110.897484,112.474731 
z"/>
<path fill="#444C79" opacity="1.000000" stroke="none" 
	d="
M53.981926,87.682663 
	C49.892948,88.004768 45.806236,87.963814 41.233166,87.866470 
	C44.842701,87.184265 48.938591,86.558449 53.489731,85.899002 
	C53.958050,86.350121 53.971119,86.834862 53.981926,87.682663 
z"/>
<path fill="#3A406D" opacity="1.000000" stroke="none" 
	d="
M69.977859,131.545868 
	C69.232956,132.013168 68.497421,132.010223 67.394348,132.010681 
	C67.014381,129.310776 67.001938,126.607483 66.990639,122.985527 
	C66.992142,116.043694 66.992508,110.020523 66.992874,103.997353 
	C66.992874,101.195541 66.992874,98.393730 66.992874,95.591911 
	C67.833733,95.578293 68.674599,95.564674 69.515457,95.551048 
	C70.520584,101.349617 69.855881,107.310486 69.975586,113.181946 
	C70.097137,119.144112 69.992699,125.110886 69.977859,131.545868 
z"/>
<path fill="#434775" opacity="1.000000" stroke="none" 
	d="
M66.612305,104.036140 
	C66.992508,110.020523 66.992142,116.043694 66.987396,122.535583 
	C66.180702,122.821716 65.184814,122.879997 64.608170,122.416588 
	C61.387733,119.828560 62.615891,106.534958 66.612305,104.036140 
z"/>
<path fill="#434775" opacity="1.000000" stroke="none" 
	d="
M56.015450,122.774963 
	C56.292988,123.202026 56.353054,123.622589 56.413120,124.043144 
	C56.130474,124.035492 55.847828,124.027840 55.565182,124.020187 
	C55.642780,123.602943 55.720379,123.185699 56.015450,122.774963 
z"/>
</svg>