<svg version="1.1" id="Layer_1" xmlns="http://www.w3.org/2000/svg" xmlns:xlink="http://www.w3.org/1999/xlink" x="0px" y="0px"
	 width="100%" viewBox="0 0 577 433" enable-background="new 0 0 577 433" xml:space="preserve">
<path fill="#47704C" opacity="1.000000" stroke="none" 
	d="
M337.000000,434.000000 
	C224.666687,434.000000 112.833389,434.000000 1.000060,434.000000 
	C1.000040,289.666718 1.000040,145.333450 1.000020,1.000138 
	C193.333237,1.000092 385.666473,1.000092 577.999756,1.000046 
	C577.999878,145.333191 577.999878,289.666382 577.999939,433.999786 
	C497.833344,434.000000 417.666656,434.000000 337.000000,434.000000 
M421.647797,360.516907 
	C422.700928,358.329224 423.754059,356.141541 424.890106,353.408417 
	C424.905304,353.225159 424.920502,353.041870 425.288239,352.573486 
	C425.181915,352.053986 425.075592,351.534515 424.998840,350.453461 
	C425.033173,350.269165 425.067535,350.084900 425.708588,349.335632 
	C425.802887,347.178894 425.979156,345.022186 425.979645,342.865417 
	C425.997559,261.234833 426.000519,179.604279 425.997162,97.973709 
	C425.997070,95.643433 425.906189,93.313156 425.993195,90.095955 
	C426.885162,81.553612 423.367218,74.805206 417.480499,68.980392 
	C408.991150,60.580379 398.257019,56.017078 387.370544,52.064243 
	C361.155182,42.545532 333.932220,38.340992 305.596588,37.188393 
	C295.886536,37.117283 286.176453,37.013634 276.466400,37.017075 
	C275.279266,37.017494 274.092346,37.592239 271.985016,37.972816 
	C258.122864,39.304344 244.190674,40.139618 230.414932,42.083527 
	C209.671494,45.010654 189.637466,50.490490 171.616638,61.764938 
	C160.768631,68.551826 152.219406,76.780853 153.024307,91.932281 
	C153.072937,107.271065 153.121582,122.609856 153.026810,138.882797 
	C153.007095,207.428696 152.980560,275.974609 153.013580,344.520477 
	C153.014282,345.979950 153.700195,347.439087 154.140915,349.708893 
	C154.651367,351.774445 154.754486,354.061127 155.736694,355.870605 
	C163.612732,370.380188 176.707153,377.744476 192.458954,382.506378 
	C198.889374,384.535675 205.319794,386.564972 212.545013,388.827911 
	C215.269531,389.537842 217.955948,390.509949 220.725159,390.912201 
	C232.487915,392.620972 244.275192,394.160797 256.493683,396.276489 
	C270.536194,396.809479 284.575500,397.551086 298.622894,397.766113 
	C303.779297,397.845093 308.954742,396.677765 315.027802,396.018311 
	C320.691559,395.610962 326.355347,395.203613 332.789551,394.882446 
	C341.219635,393.462891 349.649750,392.043365 358.876160,390.762085 
	C367.189636,388.524597 375.503082,386.287109 384.484467,383.904877 
	C387.059845,382.803772 389.635254,381.702667 392.924988,380.658844 
	C394.413086,379.968994 395.901184,379.279144 397.827118,378.595337 
	C398.130249,378.294800 398.433380,377.994293 399.405212,377.599548 
	C401.963654,375.752747 404.522095,373.905945 407.650818,372.071198 
	C408.980469,371.441620 410.310120,370.812042 412.119171,369.778778 
	C412.270386,369.634674 412.421570,369.490540 413.080017,369.427338 
	C415.587433,366.712311 418.094849,363.997284 420.854645,361.058899 
	C420.854645,361.058899 421.079224,360.807556 421.647797,360.516907 
z"/>
<path fill="#E5E7EA" opacity="1.000000" stroke="none" 
	d="
M306.092987,37.901600 
	C333.932220,38.340992 361.155182,42.545532 387.370544,52.064243 
	C398.257019,56.017078 408.991150,60.580379 417.480499,68.980392 
	C423.367218,74.805206 426.885162,81.553612 425.634583,90.644196 
	C424.885345,91.846649 424.494720,92.500854 424.036041,93.494720 
	C422.473938,96.267990 420.979858,98.701599 419.356323,101.176529 
	C419.226807,101.217857 419.162628,101.482040 418.938904,101.661331 
	C418.355164,102.488258 417.995117,103.135895 417.701172,103.783669 
	C417.767273,103.783806 417.764313,103.651657 417.440155,103.737274 
	C415.747467,105.184242 414.378937,106.545593 412.791595,108.132507 
	C411.730743,108.912949 410.888733,109.467827 409.708557,110.102943 
	C402.924225,113.452286 396.499329,116.764236 390.023621,119.973686 
	C386.407349,121.765961 382.706665,123.387993 378.650879,125.029587 
	C376.506409,125.359200 374.755066,125.745972 372.614502,126.061714 
	C361.872131,128.084595 351.512695,130.148621 341.174316,132.313095 
	C339.983887,132.562332 338.910583,133.371124 337.370239,133.917603 
	C333.637543,134.323853 330.317566,134.733002 326.533630,135.083176 
	C318.713440,135.348541 311.357239,135.672897 303.540222,135.903610 
	C294.719818,135.907608 286.360229,136.005249 277.563171,135.985687 
	C265.886841,134.940170 254.651352,133.966934 243.405563,133.131912 
	C241.717590,133.006577 239.981598,133.528107 238.184296,133.376007 
	C237.533478,132.718750 236.991959,132.269913 236.395126,132.177216 
	C219.448914,129.544907 202.807068,125.772720 186.882339,119.224098 
	C186.035263,118.875763 184.966782,119.065842 183.815521,118.929718 
	C183.629669,118.854164 183.229080,118.877182 183.150650,118.529770 
	C180.546646,116.710098 178.014694,115.248634 175.496643,113.763618 
	C166.863144,108.671974 158.774277,103.036850 154.915329,92.832520 
	C154.259750,92.037216 153.703690,91.519623 153.147614,91.002029 
	C152.219406,76.780853 160.768631,68.551826 171.616638,61.764938 
	C189.637466,50.490490 209.671494,45.010654 230.414932,42.083527 
	C244.190674,40.139618 258.122864,39.304344 272.917603,37.952141 
	C284.597778,37.921513 295.345398,37.911556 306.092987,37.901600 
M371.916107,101.920624 
	C377.134613,99.053329 382.887146,96.850555 387.457825,93.177193 
	C396.338074,86.040306 395.978455,77.708672 386.398163,71.618507 
	C379.877502,67.473358 372.721619,63.714878 365.328369,61.654644 
	C318.192444,48.519543 270.655823,48.631012 223.042374,58.954571 
	C211.797089,61.392780 200.857224,64.984131 191.663757,72.437874 
	C184.059021,78.603546 183.463531,86.594383 191.158600,92.575752 
	C196.176392,96.476074 202.362488,98.873360 208.346054,102.602768 
	C210.837387,103.486267 213.291565,104.497551 215.825638,105.233986 
	C251.069031,115.476219 287.054260,115.979973 323.185883,112.665382 
	C339.561127,111.163185 355.777740,108.086136 371.916107,101.920624 
z"/>
<path fill="#2370B7" opacity="1.000000" stroke="none" 
	d="
M326.997589,135.142151 
	C330.317566,134.733002 333.637543,134.323853 337.809387,133.932449 
	C345.803345,134.174500 346.177094,134.146591 346.699677,141.145782 
	C347.451996,151.220932 347.934814,161.342850 347.894867,171.442291 
	C347.861542,179.868179 347.546478,188.393433 346.201935,196.687561 
	C344.615875,206.471222 349.245819,215.573303 347.452789,225.622177 
	C345.552094,236.274399 346.954956,247.513321 346.885468,258.495819 
	C346.811829,270.141449 346.192230,281.753448 346.829987,293.439941 
	C347.778717,310.826233 347.875122,328.269989 347.926514,345.690491 
	C347.961823,357.660095 347.339050,369.632935 346.925201,381.601349 
	C346.856720,383.582611 346.215607,385.539368 346.077576,387.524017 
	C345.863373,390.603027 344.234131,391.663422 341.286591,392.113129 
	C338.134338,392.594055 335.103119,393.868256 332.019104,394.796204 
	C326.355347,395.203613 320.691559,395.610962 314.142761,396.027832 
	C311.539917,395.996765 309.822144,395.956116 308.398987,395.729767 
	C309.790833,394.086884 311.628632,392.732880 311.848663,391.153503 
	C312.554443,386.087769 312.913208,380.940643 312.953491,375.821350 
	C313.080841,359.641998 312.998230,343.461029 313.007751,327.280670 
	C313.009399,324.503906 314.045471,321.185974 312.878082,319.069977 
	C310.833710,315.364197 310.570221,312.358063 312.916077,309.726715 
	C311.535217,307.772522 310.473358,306.269806 309.790283,304.910889 
	C318.559235,305.525391 326.949463,305.996155 335.339661,306.466888 
	C335.416870,305.966125 335.494049,305.465332 335.571259,304.964569 
	C327.630157,297.800018 319.689026,290.635498 311.572845,283.313019 
	C312.474457,282.657440 312.821625,282.306213 313.241516,282.113892 
	C330.527496,274.198944 339.611145,259.418396 339.065887,240.476181 
	C338.735504,228.999542 333.680695,219.413925 327.752045,209.945007 
	C326.972992,207.926025 326.367371,205.777130 324.980621,204.435883 
	C322.137939,201.686523 321.673981,199.294464 324.748688,196.524551 
	C325.087128,196.219666 325.025360,195.470505 325.303314,194.251724 
	C323.774872,195.019470 322.944580,195.669861 322.026978,195.835022 
	C321.009827,196.018143 319.912842,195.757874 318.850616,195.690674 
	C319.091675,194.509064 319.146301,193.240311 319.642761,192.178085 
	C319.947296,191.526428 320.926575,191.188034 321.606476,190.714218 
	C325.659943,187.889420 326.408813,183.437729 323.811249,179.176849 
	C322.905640,177.691376 322.007812,175.795685 322.129578,174.163681 
	C322.530304,168.794266 323.441772,163.464661 324.058716,158.108444 
	C324.205048,156.837799 324.408447,155.267578 323.831573,154.272171 
	C321.165588,149.672073 327.713959,145.067871 323.728180,140.526398 
	C323.639648,140.425552 324.512054,139.558533 324.845001,138.995010 
	C325.593018,137.728760 326.283630,136.428543 326.997589,135.142151 
M321.237488,391.006500 
	C319.755402,391.394348 318.273315,391.782196 316.791229,392.170013 
	C317.134857,392.833923 317.478516,393.497833 317.822144,394.161713 
	C319.214752,393.107819 320.607391,392.053894 322.374054,390.871582 
	C322.521881,390.558441 322.669739,390.245300 322.817566,389.932159 
	C322.545044,390.288116 322.272522,390.644043 321.237488,391.006500 
M330.048462,308.847626 
	C329.697632,308.825195 329.346802,308.802765 328.995972,308.780304 
	C328.990112,308.917114 328.984222,309.053894 328.978363,309.190674 
	C329.330353,309.187592 329.682312,309.184479 330.048462,308.847626 
M317.131989,384.779938 
	C317.014618,384.843964 316.897247,384.908020 316.779907,384.972076 
	C316.866577,385.069122 316.953217,385.166168 317.039856,385.263214 
	C317.115021,385.151978 317.190186,385.040741 317.131989,384.779938 
z"/>
<path fill="#206EB4" opacity="1.000000" stroke="none" 
	d="
M238.267807,133.750412 
	C239.981598,133.528107 241.717590,133.006577 243.405563,133.131912 
	C254.651352,133.966934 265.886841,134.940170 277.547241,136.298447 
	C277.955566,137.145737 277.942352,137.563065 277.509460,137.979797 
	C270.262085,138.279465 263.193359,134.059204 256.580109,139.072525 
	C256.261505,139.314056 255.358307,138.774109 254.723984,138.611145 
	C251.130951,137.688187 250.368759,138.888672 251.093811,142.493835 
	C252.126495,147.628677 252.974457,152.899200 253.005478,158.117111 
	C253.077194,170.183884 252.378326,182.255203 252.448822,194.322021 
	C252.491470,201.621338 253.388458,208.915680 253.932205,216.647308 
	C254.949600,215.776123 256.142517,214.607697 257.484009,213.646637 
	C258.864624,212.657547 260.390106,211.870667 261.743958,211.311127 
	C246.629501,232.724686 249.409302,258.920410 268.154724,276.780090 
	C263.158508,275.428131 259.615875,272.956604 257.668762,268.287537 
	C256.179443,264.716187 254.157166,261.367065 252.371948,257.919098 
	C251.782059,258.093018 251.192184,258.266937 250.602310,258.440826 
	C251.204208,261.742126 251.806107,265.043457 252.407990,268.344757 
	C250.811203,270.162689 249.486816,272.383148 249.809738,274.330475 
	C250.893524,280.866211 252.604630,287.296173 253.969788,293.788849 
	C254.182327,294.799652 253.959641,295.951874 253.734360,296.994690 
	C253.224182,299.356232 252.164032,301.675568 252.081741,304.038330 
	C251.850403,310.680786 252.040329,317.336884 251.988602,323.987000 
	C251.938690,330.405182 255.175766,336.729767 252.170380,343.313965 
	C251.538620,344.698029 253.003952,347.015259 253.435944,348.917694 
	C253.708374,350.117462 254.177582,351.394958 253.999298,352.551392 
	C253.484726,355.889008 252.237228,359.163513 252.092758,362.498108 
	C251.783554,369.634277 252.062897,376.793884 251.944916,383.941345 
	C251.894882,386.972321 251.451675,389.996765 251.294144,391.799805 
	C255.525665,393.046936 258.763306,394.001160 261.661163,394.953430 
	C259.565460,395.221710 257.809479,395.492004 256.053528,395.762299 
	C244.275192,394.160797 232.487915,392.620972 220.725159,390.912201 
	C217.955948,390.509949 215.269531,389.537842 212.231964,388.547668 
	C211.918915,388.267456 212.074326,387.936554 212.501526,387.950684 
	C219.633865,388.995056 226.338989,390.025330 233.268997,391.090118 
	C233.091629,387.956207 232.284073,384.767090 232.991058,384.385742 
	C237.679718,381.856628 235.242661,378.278259 235.149368,374.875854 
	C235.073959,372.125092 235.129440,368.838074 236.518692,366.688385 
	C239.619186,361.890717 238.525726,357.701935 236.580078,353.054169 
	C235.847229,351.303528 235.456589,348.156281 236.438278,347.175568 
	C239.416061,344.200775 238.419830,341.548676 237.034836,338.592834 
	C235.497269,335.311310 234.253250,332.111206 237.801224,329.154846 
	C238.382614,328.670410 238.478729,327.335938 238.435608,326.411255 
	C238.014297,317.374725 237.454712,308.344482 237.060532,299.306946 
	C236.794846,293.216064 238.125412,287.035828 236.365906,281.027557 
	C238.156326,280.065491 239.965149,279.426331 240.909775,278.148438 
	C247.427017,269.331299 246.800049,259.513336 244.255707,249.633728 
	C243.421143,246.393143 241.673370,243.415085 237.472839,243.577667 
	C237.481155,243.547363 237.419403,243.559036 237.412048,243.215698 
	C236.559616,242.278152 235.714523,241.683960 234.905655,241.074524 
	C234.941879,241.059280 234.908646,241.130508 234.883484,240.742157 
	C234.425659,236.978897 231.905090,237.090897 229.302124,237.104767 
	C229.163910,237.099838 229.022690,236.861984 228.913483,236.542938 
	C221.708328,232.393021 222.359406,224.543289 219.454559,218.222580 
	C220.975235,217.413544 223.682831,216.752975 223.801208,215.778015 
	C224.382843,210.988007 227.286804,213.378296 229.277100,213.794876 
	C232.945526,214.562668 236.537643,215.695068 240.346161,216.514404 
	C240.618652,215.902679 240.706512,215.452118 240.867966,214.664047 
	C240.889679,213.872070 240.837814,213.417572 240.883148,212.510544 
	C240.922119,207.530411 240.863876,203.002823 240.613037,198.200287 
	C237.491791,194.066559 233.124512,194.381027 229.106873,193.625305 
	C229.651886,189.887115 229.981262,186.493088 230.567886,183.144150 
	C230.969696,180.850220 231.880905,178.645630 232.284241,176.351852 
	C232.644058,174.305511 233.432037,171.785446 232.627579,170.175903 
	C228.568542,162.054596 228.559235,153.402878 228.754578,144.736923 
	C228.789810,143.175003 230.550674,141.698029 231.338867,140.095306 
	C232.315323,138.109848 233.108383,136.034210 234.305450,133.993683 
	C235.842773,133.910019 237.055298,133.830215 238.267807,133.750412 
M232.311554,157.207077 
	C232.642731,157.399963 232.973907,157.592850 233.305084,157.785736 
	C233.302979,157.253952 233.300873,156.722153 233.298752,156.190369 
	C232.969574,156.387970 232.640381,156.585571 232.311554,157.207077 
z"/>
<path fill="#0E60A8" opacity="1.000000" stroke="none" 
	d="
M379.044037,125.086731 
	C382.706665,123.387993 386.407349,121.765961 390.023621,119.973686 
	C396.499329,116.764236 402.924225,113.452286 410.043884,110.241570 
	C416.073547,112.552025 418.435059,120.184326 415.522827,125.184349 
	C414.888550,126.273346 414.850647,127.930481 415.057526,129.244141 
	C415.535339,132.278122 416.876160,135.256042 416.908783,138.267059 
	C417.094391,155.411591 417.056885,172.559525 416.957886,189.705505 
	C416.933044,194.010193 415.986694,198.330704 416.179108,202.611816 
	C416.998413,220.845566 418.508179,239.072083 415.346588,257.243866 
	C415.209991,258.028839 415.524078,258.881439 415.521545,259.702209 
	C415.502075,266.023499 415.451569,272.344666 415.421265,278.665924 
	C415.411774,280.641205 415.289490,282.630127 415.471588,284.589264 
	C415.899567,289.194458 416.870483,293.780548 416.928772,298.383118 
	C417.141113,315.146362 416.761383,331.923126 417.303009,348.672211 
	C417.453522,353.326233 418.132751,356.577057 412.117828,355.521362 
	C413.142700,358.880920 414.070740,361.923126 414.736450,365.156433 
	C413.840332,366.680511 413.206573,368.013458 412.572784,369.346375 
	C412.421570,369.490540 412.270386,369.634674 411.566681,369.961273 
	C409.702972,370.782196 408.391754,371.420654 407.080505,372.059143 
	C404.522095,373.905945 401.963654,375.752747 398.907288,377.588318 
	C398.069336,377.914520 397.729340,378.251892 397.389313,378.589294 
	C395.901184,379.279144 394.413086,379.968994 392.665405,380.341858 
	C393.064789,379.069000 393.511017,377.760620 394.416931,377.214081 
	C400.529388,373.526062 400.284119,367.790497 399.700836,361.841125 
	C399.476776,359.555420 399.451141,357.240387 399.485748,354.941010 
	C399.600189,347.334656 399.981598,339.726990 399.892700,332.124146 
	C399.766602,321.340424 399.372223,310.558411 398.972565,299.780090 
	C398.802826,295.202087 398.329254,290.635406 398.427063,286.050415 
	C401.353546,285.621674 404.699921,287.051514 405.417786,282.735229 
	C404.882996,277.707886 404.428101,272.914062 403.835327,267.832245 
	C402.795593,267.071381 401.893738,266.598450 400.906586,265.708923 
	C400.547638,262.322571 400.039764,259.353180 400.035736,256.383087 
	C399.982483,217.109955 399.980072,177.836685 400.024536,138.563507 
	C400.030304,133.461258 400.623230,128.347076 400.377289,123.265892 
	C400.314972,121.978645 397.632019,119.520477 396.900482,119.772156 
	C391.821228,121.519630 386.939148,123.840164 381.680786,125.951767 
	C380.593140,125.646706 379.818604,125.366714 379.044037,125.086731 
z"/>
<path fill="#1E6CB4" opacity="1.000000" stroke="none" 
	d="
M405.497681,282.968719 
	C404.699921,287.051514 401.353546,285.621674 398.002808,286.015686 
	C391.100952,285.691315 385.056610,285.388550 378.545837,285.063904 
	C373.713776,285.042023 369.348206,285.042023 364.748230,285.042023 
	C365.272003,288.585602 365.935974,291.011780 365.942627,293.439697 
	C366.015747,320.179352 366.078735,346.919830 365.911499,373.658630 
	C365.875824,379.363281 365.694031,385.390869 359.355011,388.560303 
	C358.739807,388.867859 358.496033,389.918243 358.079834,390.623810 
	C349.649750,392.043365 341.219635,393.462891 332.404327,394.839325 
	C335.103119,393.868256 338.134338,392.594055 341.286591,392.113129 
	C344.234131,391.663422 345.863373,390.603027 346.077576,387.524017 
	C346.215607,385.539368 346.856720,383.582611 346.925201,381.601349 
	C347.339050,369.632935 347.961823,357.660095 347.926514,345.690491 
	C347.875122,328.269989 347.778717,310.826233 346.829987,293.439941 
	C346.192230,281.753448 346.811829,270.141449 346.885468,258.495819 
	C346.954956,247.513321 345.552094,236.274399 347.452789,225.622177 
	C349.245819,215.573303 344.615875,206.471222 346.201935,196.687561 
	C347.546478,188.393433 347.861542,179.868179 347.894867,171.442291 
	C347.934814,161.342850 347.451996,151.220932 346.699677,141.145782 
	C346.177094,134.146591 345.803345,134.174500 338.222137,133.935333 
	C338.910583,133.371124 339.983887,132.562332 341.174316,132.313095 
	C351.512695,130.148621 361.872131,128.084595 372.569275,126.471535 
	C372.608643,130.071564 372.056976,133.189423 372.040192,136.310150 
	C371.944336,154.143967 372.000549,171.978592 371.916443,189.812500 
	C371.909790,191.228790 371.230438,192.641891 370.477661,194.146500 
	C366.329559,194.432632 362.545258,194.446075 358.814636,194.900345 
	C356.891571,195.134521 355.064026,196.152878 353.197784,196.933533 
	C353.202271,197.050201 353.016937,197.192215 352.807251,197.524292 
	C352.401733,199.160187 352.036926,200.463791 352.035126,201.767883 
	C351.999847,227.218948 351.989777,252.670105 352.045746,278.121094 
	C352.049286,279.727997 352.635834,281.333618 353.234772,283.263306 
	C370.261444,283.668823 387.004425,283.759705 403.747589,283.796204 
	C404.330353,283.797485 404.914276,283.256805 405.497681,282.968719 
M357.937927,285.495972 
	C357.937927,285.495972 357.984589,285.443939 357.937927,285.495972 
M362.475403,285.503632 
	C362.475403,285.503632 362.512939,285.491302 362.475403,285.503632 
M360.475494,285.503632 
	C360.475494,285.503632 360.513000,285.491302 360.475494,285.503632 
z"/>
<path fill="#0E5FA5" opacity="1.000000" stroke="none" 
	d="
M155.014832,93.110237 
	C158.774277,103.036850 166.863144,108.671974 175.496643,113.763618 
	C178.014694,115.248634 180.546646,116.710098 182.734161,118.519119 
	C178.830643,118.079720 175.246262,117.380081 171.705673,116.503571 
	C168.789703,115.781700 167.140854,116.608612 167.047806,119.767426 
	C167.008591,121.099205 167.001358,122.432312 167.001328,123.764816 
	C166.999283,198.066025 166.998352,272.367218 167.006607,346.668427 
	C167.006821,348.498566 166.815338,350.399719 167.233658,352.142914 
	C167.941086,355.090820 169.110214,357.797150 165.548203,359.971893 
	C164.974457,360.322174 165.258759,363.535370 166.143402,364.584198 
	C172.669205,372.321198 181.226364,376.750214 191.061081,379.304352 
	C191.433945,380.381836 191.741241,381.153778 192.044403,381.932007 
	C192.040268,381.938324 192.035416,381.946014 192.035416,381.946014 
	C176.707153,377.744476 163.612732,370.380188 155.736694,355.870605 
	C154.754486,354.061127 154.651367,351.774445 154.111313,348.844360 
	C154.080276,296.323547 154.096786,244.667252 154.067795,193.011002 
	C154.057510,174.688126 153.936508,156.365326 153.947571,137.575226 
	C154.037766,123.944443 154.015762,110.780708 154.097198,97.617615 
	C154.106522,96.113319 154.694931,94.612610 155.014832,93.110237 
z"/>
<path fill="#0C5CA3" opacity="1.000000" stroke="none" 
	d="
M414.998779,364.965271 
	C414.070740,361.923126 413.142700,358.880920 412.117828,355.521362 
	C418.132751,356.577057 417.453522,353.326233 417.303009,348.672211 
	C416.761383,331.923126 417.141113,315.146362 416.928772,298.383118 
	C416.870483,293.780548 415.899567,289.194458 415.471588,284.589264 
	C415.289490,282.630127 415.411774,280.641205 415.421265,278.665924 
	C415.451569,272.344666 415.502075,266.023499 415.521545,259.702209 
	C415.524078,258.881439 415.209991,258.028839 415.346588,257.243866 
	C418.508179,239.072083 416.998413,220.845566 416.179108,202.611816 
	C415.986694,198.330704 416.933044,194.010193 416.957886,189.705505 
	C417.056885,172.559525 417.094391,155.411591 416.908783,138.267059 
	C416.876160,135.256042 415.535339,132.278122 415.057526,129.244141 
	C414.850647,127.930481 414.888550,126.273346 415.522827,125.184349 
	C418.435059,120.184326 416.073547,112.552025 410.382080,110.161339 
	C410.888733,109.467827 411.730743,108.912949 413.152374,108.121521 
	C415.076111,106.473869 416.420197,105.062752 417.764282,103.651649 
	C417.764313,103.651657 417.767273,103.783806 418.008118,103.686966 
	C418.553528,102.887436 418.858063,102.184731 419.162598,101.482040 
	C419.162628,101.482040 419.226807,101.217857 419.719147,101.291031 
	C425.118866,101.397881 423.957123,105.089928 423.958405,107.844627 
	C423.994446,185.620682 423.977142,263.396759 424.020569,341.172791 
	C424.022003,343.791321 424.562012,346.409546 424.921448,349.243835 
	C424.991943,349.459808 425.101868,349.900635 425.101868,349.900635 
	C425.067535,350.084900 425.033173,350.269165 424.858887,350.903473 
	C424.791199,351.855194 424.863434,352.356903 424.935699,352.858612 
	C424.920502,353.041870 424.905304,353.225159 424.524719,353.795227 
	C423.132629,356.390533 422.105927,358.599030 421.079224,360.807556 
	C421.079224,360.807556 420.854645,361.058899 420.440125,361.138275 
	C418.349976,362.466858 416.674377,363.716064 414.998779,364.965271 
z"/>
<path fill="#1365AE" opacity="1.000000" stroke="none" 
	d="
M379.012299,285.085754 
	C385.056610,285.388550 391.100952,285.691315 397.569519,286.028809 
	C398.329254,290.635406 398.802826,295.202087 398.972565,299.780090 
	C399.372223,310.558411 399.766602,321.340424 399.892700,332.124146 
	C399.981598,339.726990 399.600189,347.334656 399.485748,354.941010 
	C399.451141,357.240387 399.476776,359.555420 399.700836,361.841125 
	C400.284119,367.790497 400.529388,373.526062 394.416931,377.214081 
	C393.511017,377.760620 393.064789,379.069000 392.308228,380.313232 
	C389.635254,381.702667 387.059845,382.803772 383.886414,383.942993 
	C382.914307,383.159058 382.234467,382.338623 382.230133,381.514648 
	C382.221161,379.815430 382.896179,378.079681 382.718689,376.420044 
	C382.027313,369.955688 380.691071,363.534546 380.393311,357.060638 
	C380.060547,349.824799 380.746429,342.548309 380.709137,335.290985 
	C380.670746,327.821014 380.291138,320.352905 380.075745,312.883545 
	C380.061462,312.389069 380.160187,311.889008 380.229340,311.394775 
	C381.466919,302.548798 382.795563,293.699310 379.012299,285.085754 
z"/>
<path fill="#1A6AB2" opacity="1.000000" stroke="none" 
	d="
M378.545837,285.063904 
	C382.795563,293.699310 381.466919,302.548798 380.229340,311.394775 
	C380.160187,311.889008 380.061462,312.389069 380.075745,312.883545 
	C380.291138,320.352905 380.670746,327.821014 380.709137,335.290985 
	C380.746429,342.548309 380.060547,349.824799 380.393311,357.060638 
	C380.691071,363.534546 382.027313,369.955688 382.718689,376.420044 
	C382.896179,378.079681 382.221161,379.815430 382.230133,381.514648 
	C382.234467,382.338623 382.914307,383.159058 383.552429,384.015381 
	C375.503082,386.287109 367.189636,388.524597 358.477997,390.692932 
	C358.496033,389.918243 358.739807,388.867859 359.355011,388.560303 
	C365.694031,385.390869 365.875824,379.363281 365.911499,373.658630 
	C366.078735,346.919830 366.015747,320.179352 365.942627,293.439697 
	C365.935974,291.011780 365.272003,288.585602 364.748230,285.042023 
	C369.348206,285.042023 373.713776,285.042023 378.545837,285.063904 
M376.724548,373.944763 
	C377.241272,373.947540 377.758026,373.950317 378.274750,373.953125 
	C378.169373,373.544373 378.063965,373.135590 377.958557,372.726837 
	C377.509094,372.982666 377.059601,373.238495 376.724548,373.944763 
z"/>
<path fill="#90B5CA" opacity="1.000000" stroke="none" 
	d="
M425.405212,349.618134 
	C425.101868,349.900635 424.991943,349.459808 424.985107,348.773743 
	C424.987244,339.266998 425.004150,330.446320 425.003937,321.625641 
	C425.002106,247.378021 425.003784,173.130386 424.955872,98.882790 
	C424.954651,96.973366 424.400391,95.064301 424.104065,93.155060 
	C424.494720,92.500854 424.885345,91.846649 425.566833,91.087662 
	C425.906189,93.313156 425.997070,95.643433 425.997162,97.973709 
	C426.000519,179.604279 425.997559,261.234833 425.979645,342.865417 
	C425.979156,345.022186 425.802887,347.178894 425.405212,349.618134 
z"/>
<path fill="#D0E8F8" opacity="1.000000" stroke="none" 
	d="
M153.866043,138.042480 
	C153.936508,156.365326 154.057510,174.688126 154.067795,193.011002 
	C154.096786,244.667252 154.080276,296.323547 154.074081,348.439087 
	C153.700195,347.439087 153.014282,345.979950 153.013580,344.520477 
	C152.980560,275.974609 153.007095,207.428696 153.273041,138.435272 
	C153.519272,137.987762 153.866043,138.042480 153.866043,138.042480 
z"/>
<path fill="#366D9D" opacity="1.000000" stroke="none" 
	d="
M256.273621,396.019409 
	C257.809479,395.492004 259.565460,395.221710 262.032257,394.969421 
	C263.485352,394.998047 264.227631,395.008698 265.190063,395.179504 
	C265.917725,395.510345 266.425201,395.681061 267.288574,395.866821 
	C268.119354,395.892944 268.594177,395.904022 269.281372,395.917694 
	C269.493713,395.920288 269.918243,395.908386 270.353149,395.917938 
	C272.529877,395.928833 274.271759,395.930176 276.481262,395.943237 
	C287.334076,395.941803 297.719238,395.928650 308.104370,395.915497 
	C309.822144,395.956116 311.539917,395.996765 313.689606,396.058167 
	C308.954742,396.677765 303.779297,397.845093 298.622894,397.766113 
	C284.575500,397.551086 270.536194,396.809479 256.273621,396.019409 
z"/>
<path fill="#E8ECF0" opacity="1.000000" stroke="none" 
	d="
M153.947571,137.575226 
	C153.866043,138.042480 153.519272,137.987762 153.344742,137.968201 
	C153.121582,122.609856 153.072937,107.271065 153.085968,91.467155 
	C153.703690,91.519623 154.259750,92.037216 154.915329,92.832520 
	C154.694931,94.612610 154.106522,96.113319 154.097198,97.617615 
	C154.015762,110.780708 154.037766,123.944443 153.947571,137.575226 
z"/>
<path fill="#0E5FA5" opacity="1.000000" stroke="none" 
	d="
M212.074326,387.936554 
	C212.074326,387.936554 211.918915,388.267456 211.834564,388.430847 
	C205.319794,386.564972 198.889374,384.535675 192.247192,382.226196 
	C192.035416,381.946014 192.040268,381.938324 192.460938,381.954041 
	C199.246124,383.317230 205.610641,384.664642 211.985352,386.333527 
	C212.021805,387.082184 212.048065,387.509369 212.074326,387.936554 
z"/>
<path fill="#D0E8F8" opacity="1.000000" stroke="none" 
	d="
M305.844788,37.544998 
	C295.345398,37.911556 284.597778,37.921513 273.377747,37.916145 
	C274.092346,37.592239 275.279266,37.017494 276.466400,37.017075 
	C286.176453,37.013634 295.886536,37.117283 305.844788,37.544998 
z"/>
<path fill="#125487" opacity="1.000000" stroke="none" 
	d="
M414.736420,365.156433 
	C416.674377,363.716064 418.349976,362.466858 420.313904,361.249939 
	C418.094849,363.997284 415.587433,366.712311 412.826416,369.386841 
	C413.206573,368.013458 413.840332,366.680511 414.736420,365.156433 
z"/>
<path fill="#125487" opacity="1.000000" stroke="none" 
	d="
M421.363525,360.662231 
	C422.105927,358.599030 423.132629,356.390533 424.483276,354.067932 
	C423.754059,356.141541 422.700928,358.329224 421.363525,360.662231 
z"/>
<path fill="#125487" opacity="1.000000" stroke="none" 
	d="
M407.365662,372.065155 
	C408.391754,371.420654 409.702972,370.782196 411.326996,370.163086 
	C410.310120,370.812042 408.980469,371.441620 407.365662,372.065155 
z"/>
<path fill="#125487" opacity="1.000000" stroke="none" 
	d="
M425.111969,352.716064 
	C424.863434,352.356903 424.791199,351.855194 424.844086,351.184265 
	C425.075592,351.534515 425.181915,352.053986 425.111969,352.716064 
z"/>
<path fill="#1365AE" opacity="1.000000" stroke="none" 
	d="
M397.608215,378.592316 
	C397.729340,378.251892 398.069336,377.914520 398.572937,377.635437 
	C398.433380,377.994293 398.130249,378.294800 397.608215,378.592316 
z"/>
<path fill="#78CAE7" opacity="1.000000" stroke="none" 
	d="
M208.025223,101.943954 
	C202.362488,98.873360 196.176392,96.476074 191.158600,92.575752 
	C183.463531,86.594383 184.059021,78.603546 191.663757,72.437874 
	C200.857224,64.984131 211.797089,61.392780 223.042374,58.954571 
	C270.655823,48.631012 318.192444,48.519543 365.328369,61.654644 
	C372.721619,63.714878 379.877502,67.473358 386.398163,71.618507 
	C395.978455,77.708672 396.338074,86.040306 387.457825,93.177193 
	C382.887146,96.850555 377.134613,99.053329 371.252655,101.715767 
	C331.574768,89.084053 291.630951,87.890587 251.439011,92.744812 
	C236.810776,94.511551 222.487595,98.803894 208.025223,101.943954 
z"/>
<path fill="#0D62AB" opacity="1.000000" stroke="none" 
	d="
M190.995514,378.998779 
	C181.226364,376.750214 172.669205,372.321198 166.143402,364.584198 
	C165.258759,363.535370 164.974457,360.322174 165.548203,359.971893 
	C169.110214,357.797150 167.941086,355.090820 167.233658,352.142914 
	C166.815338,350.399719 167.006821,348.498566 167.006607,346.668427 
	C166.998352,272.367218 166.999283,198.066025 167.001328,123.764816 
	C167.001358,122.432312 167.008591,121.099205 167.047806,119.767426 
	C167.140854,116.608612 168.789703,115.781700 171.705673,116.503571 
	C175.246262,117.380081 178.830643,118.079720 182.812592,118.866531 
	C183.229080,118.877182 183.629669,118.854164 183.997314,119.227295 
	C185.428345,122.186134 187.319016,124.739273 187.422318,127.362793 
	C188.153946,145.944016 188.587006,164.538406 188.931046,183.131989 
	C188.985092,186.052704 187.767212,188.985901 187.725922,191.921616 
	C187.631226,198.655930 185.843170,205.461121 188.218903,212.529205 
	C187.805710,217.855286 187.477264,222.775818 187.047729,228.012024 
	C187.953049,230.551712 188.959473,232.775726 190.039093,235.309158 
	C190.413696,236.408981 190.715134,237.199371 190.816910,238.281708 
	C187.722382,240.948410 186.789978,243.935562 186.952209,247.703217 
	C187.146561,252.216705 186.533035,256.759827 186.527832,261.290405 
	C186.526398,262.529785 187.451584,263.770233 187.961578,265.425293 
	C187.957932,267.225983 187.944214,268.611572 187.649353,270.033203 
	C187.256012,271.044006 187.143799,272.018707 186.995132,273.369507 
	C185.894592,280.022400 187.483490,283.241608 192.904266,286.374420 
	C192.352112,290.102295 191.584412,293.460876 191.529007,296.831116 
	C191.401932,304.559570 191.728607,312.294525 191.671448,320.025360 
	C191.615524,327.591156 191.119080,335.156433 191.170181,342.719543 
	C191.224609,350.780090 191.709229,358.837341 191.963043,366.897400 
	C191.993942,367.879211 191.727402,368.867126 191.651871,369.856232 
	C191.419235,372.902710 191.212387,375.951111 190.995514,378.998779 
z"/>
<path fill="#218BB3" opacity="1.000000" stroke="none" 
	d="
M208.185638,102.273361 
	C222.487595,98.803894 236.810776,94.511551 251.439011,92.744812 
	C291.630951,87.890587 331.574768,89.084053 370.897949,101.719543 
	C355.777740,108.086136 339.561127,111.163185 323.185883,112.665382 
	C287.054260,115.979973 251.069031,115.476219 215.825638,105.233986 
	C213.291565,104.497551 210.837387,103.486267 208.185638,102.273361 
z"/>
<path fill="#1565AD" opacity="1.000000" stroke="none" 
	d="
M188.303650,212.123657 
	C185.843170,205.461121 187.631226,198.655930 187.725922,191.921616 
	C187.767212,188.985901 188.985092,186.052704 188.931046,183.131989 
	C188.587006,164.538406 188.153946,145.944016 187.422318,127.362793 
	C187.319016,124.739273 185.428345,122.186134 184.183167,119.302849 
	C184.966782,119.065842 186.035263,118.875763 186.882339,119.224098 
	C202.807068,125.772720 219.448914,129.544907 236.395126,132.177216 
	C236.991959,132.269913 237.533478,132.718750 238.184296,133.376007 
	C237.055298,133.830215 235.842773,133.910019 233.910934,133.903717 
	C226.896805,132.637695 220.602005,131.457779 214.460907,130.306671 
	C213.004745,133.012558 210.799271,135.304260 210.659241,137.715866 
	C210.267227,144.467865 210.898773,151.271545 210.813171,158.050888 
	C210.685837,168.133972 210.338043,178.215363 209.983734,188.293945 
	C209.844162,192.264221 211.435150,194.151962 215.536621,194.017685 
	C220.020233,193.870865 224.512436,193.987091 229.000900,193.988678 
	C233.124512,194.381027 237.491791,194.066559 240.263824,198.122528 
	C239.405380,198.224487 238.703537,198.129257 237.992203,198.007751 
	C237.982697,197.981461 237.942719,198.020493 237.693253,197.831467 
	C236.644608,197.479263 235.845428,197.316086 234.731827,196.981384 
	C233.250031,196.646423 232.082672,196.482956 230.709274,196.233932 
	C230.503250,196.148376 230.065720,196.235641 229.650940,196.137802 
	C223.487076,196.056747 217.738007,196.073547 211.741302,196.057739 
	C211.493652,196.025146 211.043716,196.242188 210.669510,196.221909 
	C203.860031,197.886322 197.910339,200.406876 193.379028,206.017792 
	C191.496017,208.156525 189.899826,210.140091 188.303650,212.123657 
z"/>
<path fill="#2973B9" opacity="1.000000" stroke="none" 
	d="
M277.929138,137.980408 
	C277.942352,137.563065 277.955566,137.145737 277.984741,136.415649 
	C286.360229,136.005249 294.719818,135.907608 303.810089,136.101349 
	C309.284241,138.143311 307.030396,141.076309 305.332520,143.966888 
	C312.566895,146.223053 310.865143,151.808060 310.742126,156.831818 
	C310.560822,164.235672 309.954437,171.675659 310.469849,179.034363 
	C310.839294,184.309494 311.607178,189.266830 307.623840,193.046036 
	C308.489532,195.088364 309.179413,196.715927 309.478882,198.247864 
	C296.759705,194.850693 284.788422,195.313507 273.395630,201.208633 
	C274.858459,197.881454 276.695374,195.010651 277.626862,191.871216 
	C278.983612,187.298615 280.824066,183.507858 284.791351,180.376892 
	C289.609375,176.574539 288.368866,172.677887 282.731415,170.507828 
	C280.436523,169.624435 278.589905,167.576584 276.539307,166.058533 
	C278.327301,164.556961 280.052155,162.969330 281.930481,161.590851 
	C282.841705,160.922119 284.103485,160.750595 285.090820,160.160355 
	C286.031311,159.598114 287.212738,158.953751 287.604919,158.049210 
	C288.845459,155.188126 286.385284,146.620361 283.849182,144.359055 
	C284.490814,143.450333 285.120209,142.558960 285.389374,142.177734 
	C282.659668,140.641922 280.294373,139.311172 277.929138,137.980408 
z"/>
<path fill="#1768B1" opacity="1.000000" stroke="none" 
	d="
M370.863708,194.056473 
	C371.230438,192.641891 371.909790,191.228790 371.916443,189.812500 
	C372.000549,171.978592 371.944336,154.143967 372.040192,136.310150 
	C372.056976,133.189423 372.608643,130.071564 372.958496,126.542564 
	C374.755066,125.745972 376.506409,125.359200 378.650879,125.029579 
	C379.818604,125.366714 380.593140,125.646706 381.915253,126.227272 
	C384.713531,131.378998 387.079010,136.339935 384.947571,141.753983 
	C383.472900,145.499710 382.950958,148.841034 384.617462,152.729446 
	C385.367737,154.480103 385.078461,157.238922 384.191681,159.002777 
	C382.689209,161.991287 382.259064,164.477600 384.272888,167.332474 
	C384.869659,168.178452 384.824158,169.561722 384.860443,170.705536 
	C385.157318,180.067184 385.589661,189.430099 385.606567,198.793304 
	C385.619995,206.215485 385.204163,213.644897 384.734009,221.055557 
	C384.649994,222.380051 383.135284,223.556610 382.713776,224.933884 
	C382.336151,226.167648 382.346252,227.617203 382.553345,228.912735 
	C382.996521,231.685135 383.793060,234.401413 384.227539,237.174728 
	C384.633698,239.767090 384.763428,242.403030 385.007019,245.020523 
	C385.250549,247.637283 385.711121,250.258362 385.671936,252.871460 
	C385.605774,257.282898 385.220367,261.689545 384.578125,266.179932 
	C375.226837,268.114532 373.967407,267.114807 373.950714,257.862213 
	C373.917023,239.201691 373.990021,220.540604 373.834503,201.881302 
	C373.819061,200.031357 372.529144,198.192032 371.602417,196.321487 
	C371.374054,196.295197 370.946808,196.125381 370.948273,195.779694 
	C370.921051,194.974838 370.892365,194.515656 370.863708,194.056473 
M373.524567,194.496994 
	C373.524567,194.496994 373.486603,194.509552 373.524567,194.496994 
z"/>
<path fill="#2671B7" opacity="1.000000" stroke="none" 
	d="
M309.869263,198.343491 
	C309.179413,196.715927 308.489532,195.088364 307.623840,193.046036 
	C311.607178,189.266830 310.839294,184.309494 310.469849,179.034363 
	C309.954437,171.675659 310.560822,164.235672 310.742126,156.831818 
	C310.865143,151.808060 312.566895,146.223053 305.332520,143.966888 
	C307.030396,141.076309 309.284241,138.143311 304.270935,136.194977 
	C311.357239,135.672897 318.713440,135.348541 326.533630,135.083176 
	C326.283630,136.428543 325.593018,137.728760 324.845001,138.995010 
	C324.512054,139.558533 323.639648,140.425552 323.728180,140.526398 
	C327.713959,145.067871 321.165588,149.672073 323.831573,154.272171 
	C324.408447,155.267578 324.205048,156.837799 324.058716,158.108444 
	C323.441772,163.464661 322.530304,168.794266 322.129578,174.163681 
	C322.007812,175.795685 322.905640,177.691376 323.811249,179.176849 
	C326.408813,183.437729 325.659943,187.889420 321.606476,190.714218 
	C320.926575,191.188034 319.947296,191.526428 319.642761,192.178085 
	C319.146301,193.240311 319.091675,194.509064 318.850616,195.690674 
	C319.912842,195.757874 321.009827,196.018143 322.026978,195.835022 
	C322.944580,195.669861 323.774872,195.019470 325.303314,194.251724 
	C325.025360,195.470505 325.087128,196.219666 324.748688,196.524551 
	C321.673981,199.294464 322.137939,201.686523 324.980621,204.435883 
	C326.367371,205.777130 326.972992,207.926025 327.471069,209.787872 
	C321.296356,206.025452 315.582825,202.184464 309.869263,198.343491 
z"/>
<path fill="#125487" opacity="1.000000" stroke="none" 
	d="
M424.036041,93.494720 
	C424.400391,95.064301 424.954651,96.973366 424.955872,98.882790 
	C425.003784,173.130386 425.002106,247.378021 425.003937,321.625641 
	C425.004150,330.446320 424.987244,339.266998 424.914612,348.557800 
	C424.562012,346.409546 424.022003,343.791321 424.020569,341.172791 
	C423.977142,263.396759 423.994446,185.620682 423.958405,107.844627 
	C423.957123,105.089928 425.118866,101.397881 419.848633,101.249710 
	C420.979858,98.701599 422.473938,96.267990 424.036041,93.494720 
z"/>
<path fill="#125487" opacity="1.000000" stroke="none" 
	d="
M417.440125,103.737274 
	C416.420197,105.062752 415.076111,106.473869 413.371216,107.895966 
	C414.378937,106.545593 415.747467,105.184242 417.440125,103.737274 
z"/>
<path fill="#125487" opacity="1.000000" stroke="none" 
	d="
M418.938904,101.661331 
	C418.858063,102.184731 418.553528,102.887436 417.942017,103.686829 
	C417.995117,103.135895 418.355164,102.488258 418.938904,101.661331 
z"/>
<path fill="#EBEFF2" opacity="1.000000" stroke="none" 
	d="
M309.478882,198.247864 
	C315.582825,202.184464 321.296356,206.025452 327.290894,210.023575 
	C333.680695,219.413925 338.735504,228.999542 339.065887,240.476181 
	C339.611145,259.418396 330.527496,274.198944 313.241516,282.113892 
	C312.821625,282.306213 312.474457,282.657440 311.572845,283.313019 
	C319.689026,290.635498 327.630157,297.800018 335.571259,304.964569 
	C335.494049,305.465332 335.416870,305.966125 335.339661,306.466888 
	C326.949463,305.996155 318.559235,305.525391 309.772522,304.928833 
	C309.376038,304.803040 309.386108,304.854950 309.368896,304.542114 
	C308.927460,303.806305 308.503265,303.383331 308.027771,302.716858 
	C307.817596,302.151428 307.562225,301.954987 307.092712,301.574310 
	C305.340637,299.494537 303.706177,297.724579 302.048035,295.952087 
	C302.024353,295.949524 302.060425,295.976196 301.977051,295.714050 
	C301.593658,295.266327 301.293610,295.080719 300.998413,294.952637 
	C301.003296,295.010132 301.118317,295.000610 301.047729,294.712555 
	C300.651398,294.233673 300.325684,294.042847 299.985229,293.921753 
	C299.970490,293.991486 300.109894,294.021149 300.066711,293.690887 
	C299.699677,293.065948 299.375885,292.771240 298.832428,292.245789 
	C295.506317,285.368103 289.566681,284.044891 282.792725,283.539703 
	C277.852844,281.143616 273.200623,278.956787 268.548401,276.769958 
	C249.409302,258.920410 246.629501,232.724686 262.030029,211.133377 
	C264.644745,208.493240 266.865112,206.346680 269.375519,204.128510 
	C269.881927,203.742874 270.098297,203.428818 270.255127,203.191101 
	C270.195557,203.267456 270.349213,203.385345 270.635132,203.304382 
	C271.715759,202.664032 272.510468,202.104645 273.320862,201.559677 
	C273.336578,201.574112 273.364990,201.544937 273.364990,201.544937 
	C284.788422,195.313507 296.759705,194.850693 309.478882,198.247864 
M287.884979,267.377563 
	C287.884979,267.377563 287.712921,267.362183 288.262817,267.851471 
	C289.219879,268.023193 290.176971,268.194916 291.363922,268.371918 
	C291.363922,268.371918 291.371033,268.142090 292.057495,268.682007 
	C296.389435,267.802643 300.721344,266.923279 305.009583,265.996155 
	C305.009583,265.996155 305.040680,266.050903 305.629791,265.946350 
	C306.240723,265.439270 306.851654,264.932220 307.327820,264.427490 
	C307.327820,264.427490 307.449585,264.485291 308.036285,264.187134 
	C309.394470,262.474854 310.752655,260.762573 312.026550,259.045258 
	C312.026550,259.045258 312.022034,259.129578 312.466095,258.913757 
	C312.746307,258.681915 312.858704,258.386292 313.240295,257.429321 
	C318.384521,246.726273 318.268036,235.899658 313.938507,224.270004 
	C310.712799,216.808136 305.771423,211.586273 296.301270,211.135208 
	C295.555176,211.210449 294.809082,211.285690 293.289062,211.212570 
	C290.650635,212.095551 288.012207,212.978516 285.144867,213.823608 
	C285.144867,213.823608 285.023651,214.021469 284.377655,214.129440 
	C283.223022,215.072235 282.068420,216.015030 280.975830,216.975464 
	C280.975830,216.975464 280.957855,216.913574 280.330627,217.179611 
	C271.455383,227.118088 269.618408,246.601410 276.468048,257.369812 
	C276.468048,257.369812 276.477478,257.444458 276.665436,258.028290 
	C277.257965,258.840179 277.850464,259.652069 278.488708,260.371460 
	C278.488708,260.371460 278.393677,260.331329 278.583923,260.927094 
	C279.029480,261.340637 279.475037,261.754181 279.921021,262.078064 
	C279.921021,262.078064 279.831360,262.078796 280.042053,262.669830 
	C280.684509,263.169800 281.326935,263.669769 282.189728,264.585205 
	C282.414581,264.829712 282.692932,264.959320 283.403992,265.502472 
	C284.179535,265.883850 284.955109,266.265259 285.726898,266.518890 
	C285.726898,266.518890 285.599457,266.528351 286.065887,266.966125 
	C286.666016,267.160522 287.266174,267.354889 287.884979,267.377563 
z"/>
<path fill="#2873B9" opacity="1.000000" stroke="none" 
	d="
M307.210297,301.884125 
	C307.562225,301.954987 307.817596,302.151428 308.129272,302.987732 
	C308.650146,303.953064 309.018127,304.403992 309.386108,304.854950 
	C309.386108,304.854950 309.376038,304.803040 309.393799,304.785065 
	C310.473358,306.269806 311.535217,307.772522 312.916077,309.726715 
	C310.570221,312.358063 310.833710,315.364197 312.878082,319.069977 
	C314.045471,321.185974 313.009399,324.503906 313.007751,327.280670 
	C312.998230,343.461029 313.080841,359.641998 312.953491,375.821350 
	C312.913208,380.940643 312.554443,386.087769 311.848663,391.153503 
	C311.628632,392.732880 309.790833,394.086884 308.398987,395.729767 
	C297.719238,395.928650 287.334076,395.941803 276.614807,395.643799 
	C277.952881,394.055298 279.625092,392.777954 281.256561,391.531738 
	C280.860687,390.029236 279.874390,388.453278 280.247162,387.327087 
	C281.900055,382.333221 279.950195,378.324463 277.070679,374.679871 
	C273.030243,369.565857 273.004700,368.297668 277.251984,363.142944 
	C279.229340,360.743103 282.373047,357.941925 282.237732,355.473389 
	C282.018341,351.470673 280.126801,347.208801 277.883423,343.740601 
	C273.170776,336.455017 272.881653,336.631989 278.170654,329.767029 
	C278.981934,328.714020 279.889526,327.734924 280.758514,326.726746 
	C284.362793,322.545227 284.565857,319.457336 281.294128,315.096161 
	C280.102814,313.508148 278.595886,312.154419 277.211975,310.713898 
	C273.008179,306.338043 273.042603,304.264557 276.834961,299.598175 
	C280.561218,295.013123 284.711090,290.489868 283.080353,283.748962 
	C289.566681,284.044891 295.506317,285.368103 299.004425,292.508179 
	C299.634003,293.341278 299.871948,293.681213 300.109894,294.021149 
	C300.109894,294.021149 299.970490,293.991486 300.173340,294.110291 
	C300.623566,294.486237 300.870941,294.743439 301.118317,295.000610 
	C301.118317,295.000610 301.003296,295.010132 301.175415,295.133057 
	C301.585175,295.496033 301.822815,295.736115 302.060425,295.976196 
	C302.060425,295.976196 302.024353,295.949524 302.071899,296.336670 
	C302.453369,299.788605 303.392334,302.256500 307.210297,301.884125 
z"/>
<path fill="#2873B9" opacity="1.000000" stroke="none" 
	d="
M321.618744,391.003235 
	C320.607391,392.053894 319.214752,393.107819 317.822144,394.161713 
	C317.478516,393.497833 317.134857,392.833923 316.791229,392.170013 
	C318.273315,391.782196 319.755402,391.394348 321.618744,391.003235 
z"/>
<path fill="#2873B9" opacity="1.000000" stroke="none" 
	d="
M330.041382,309.014496 
	C329.682312,309.184479 329.330353,309.187592 328.978363,309.190674 
	C328.984222,309.053894 328.990112,308.917114 328.995972,308.780304 
	C329.346802,308.802765 329.697632,308.825195 330.041382,309.014496 
z"/>
<path fill="#2873B9" opacity="1.000000" stroke="none" 
	d="
M317.198669,384.854736 
	C317.190186,385.040741 317.115021,385.151978 317.039856,385.263214 
	C316.953217,385.166168 316.866577,385.069122 316.779907,384.972076 
	C316.897247,384.908020 317.014618,384.843964 317.198669,384.854736 
z"/>
<path fill="#2873B9" opacity="1.000000" stroke="none" 
	d="
M322.187012,390.935791 
	C322.272522,390.644043 322.545044,390.288116 322.817566,389.932159 
	C322.669739,390.245300 322.521881,390.558441 322.187012,390.935791 
z"/>
<path fill="#2471B8" opacity="1.000000" stroke="none" 
	d="
M282.792725,283.539703 
	C284.711090,290.489868 280.561218,295.013123 276.834961,299.598175 
	C273.042603,304.264557 273.008179,306.338043 277.211975,310.713898 
	C278.595886,312.154419 280.102814,313.508148 281.294128,315.096161 
	C284.565857,319.457336 284.362793,322.545227 280.758514,326.726746 
	C279.889526,327.734924 278.981934,328.714020 278.170654,329.767029 
	C272.881653,336.631989 273.170776,336.455017 277.883423,343.740601 
	C280.126801,347.208801 282.018341,351.470673 282.237732,355.473389 
	C282.373047,357.941925 279.229340,360.743103 277.251984,363.142944 
	C273.004700,368.297668 273.030243,369.565857 277.070679,374.679871 
	C279.950195,378.324463 281.900055,382.333221 280.247162,387.327087 
	C279.874390,388.453278 280.860687,390.029236 281.256561,391.531738 
	C279.625092,392.777954 277.952881,394.055298 276.147125,395.632080 
	C274.271759,395.930176 272.529877,395.928833 270.253174,395.864716 
	C269.486359,395.736298 269.269897,395.774017 269.069031,395.915100 
	C268.594177,395.904022 268.119354,395.892944 267.216431,395.659271 
	C266.182190,395.297546 265.576050,395.158447 264.969879,395.019348 
	C264.227631,395.008698 263.485352,394.998047 262.372009,394.971436 
	C258.763306,394.001160 255.525665,393.046936 251.294144,391.799805 
	C251.451675,389.996765 251.894882,386.972321 251.944916,383.941345 
	C252.062897,376.793884 251.783554,369.634277 252.092758,362.498108 
	C252.237228,359.163513 253.484726,355.889008 253.999298,352.551392 
	C254.177582,351.394958 253.708374,350.117462 253.435944,348.917694 
	C253.003952,347.015259 251.538620,344.698029 252.170380,343.313965 
	C255.175766,336.729767 251.938690,330.405182 251.988602,323.987000 
	C252.040329,317.336884 251.850403,310.680786 252.081741,304.038330 
	C252.164032,301.675568 253.224182,299.356232 253.734360,296.994690 
	C253.959641,295.951874 254.182327,294.799652 253.969788,293.788849 
	C252.604630,287.296173 250.893524,280.866211 249.809738,274.330475 
	C249.486816,272.383148 250.811203,270.162689 252.407990,268.344757 
	C251.806107,265.043457 251.204208,261.742126 250.602310,258.440826 
	C251.192184,258.266937 251.782059,258.093018 252.371948,257.919098 
	C254.157166,261.367065 256.179443,264.716187 257.668762,268.287537 
	C259.615875,272.956604 263.158508,275.428131 268.154724,276.780090 
	C273.200623,278.956787 277.852844,281.143616 282.792725,283.539703 
z"/>
<path fill="#1B6AB3" opacity="1.000000" stroke="none" 
	d="
M212.501526,387.950684 
	C212.048065,387.509369 212.021805,387.082184 212.108887,385.988159 
	C212.292633,384.997589 212.425888,384.673645 212.424438,384.350250 
	C212.292130,354.812042 212.138947,325.273926 212.020660,295.735657 
	C212.005554,291.963928 212.134888,288.171570 217.808731,287.536835 
	C216.400925,286.977509 215.787628,286.733856 215.592712,286.380737 
	C222.362198,284.511505 228.713303,282.751770 235.294403,281.007385 
	C235.524429,281.022736 235.984375,281.054901 235.984375,281.054901 
	C238.125412,287.035828 236.794846,293.216064 237.060532,299.306946 
	C237.454712,308.344482 238.014297,317.374725 238.435608,326.411255 
	C238.478729,327.335938 238.382614,328.670410 237.801224,329.154846 
	C234.253250,332.111206 235.497269,335.311310 237.034836,338.592834 
	C238.419830,341.548676 239.416061,344.200775 236.438278,347.175568 
	C235.456589,348.156281 235.847229,351.303528 236.580078,353.054169 
	C238.525726,357.701935 239.619186,361.890717 236.518692,366.688385 
	C235.129440,368.838074 235.073959,372.125092 235.149368,374.875854 
	C235.242661,378.278259 237.679718,381.856628 232.991058,384.385742 
	C232.284073,384.767090 233.091629,387.956207 233.268997,391.090118 
	C226.338989,390.025330 219.633865,388.995056 212.501526,387.950684 
z"/>
<path fill="#2472B8" opacity="1.000000" stroke="none" 
	d="
M269.085480,204.200104 
	C266.865112,206.346680 264.644745,208.493240 262.138306,210.817551 
	C260.390106,211.870667 258.864624,212.657547 257.484009,213.646637 
	C256.142517,214.607697 254.949600,215.776123 253.932205,216.647308 
	C253.388458,208.915680 252.491470,201.621338 252.448822,194.322021 
	C252.378326,182.255203 253.077194,170.183884 253.005478,158.117111 
	C252.974457,152.899200 252.126495,147.628677 251.093811,142.493835 
	C250.368759,138.888672 251.130951,137.688187 254.723984,138.611145 
	C255.358307,138.774109 256.261505,139.314056 256.580109,139.072525 
	C263.193359,134.059204 270.262085,138.279465 277.509460,137.979797 
	C280.294373,139.311172 282.659668,140.641922 285.389374,142.177734 
	C285.120209,142.558960 284.490814,143.450333 283.849182,144.359055 
	C286.385284,146.620361 288.845459,155.188126 287.604919,158.049210 
	C287.212738,158.953751 286.031311,159.598114 285.090820,160.160355 
	C284.103485,160.750595 282.841705,160.922119 281.930481,161.590851 
	C280.052155,162.969330 278.327301,164.556961 276.539307,166.058533 
	C278.589905,167.576584 280.436523,169.624435 282.731415,170.507828 
	C288.368866,172.677887 289.609375,176.574539 284.791351,180.376892 
	C280.824066,183.507858 278.983612,187.298615 277.626862,191.871216 
	C276.695374,195.010651 274.858459,197.881454 273.395630,201.208633 
	C273.364990,201.544937 273.336578,201.574112 272.977417,201.495193 
	C271.861908,202.072632 271.105560,202.728973 270.349213,203.385345 
	C270.349213,203.385345 270.195557,203.267456 270.031799,203.352539 
	C269.607208,203.691788 269.346344,203.945938 269.085480,204.200104 
z"/>
<path fill="#E8ECF0" opacity="1.000000" stroke="none" 
	d="
M235.064392,280.992035 
	C228.713303,282.751770 222.362198,284.511505 215.144012,286.295929 
	C212.471527,286.344513 210.666138,286.368439 208.496002,286.282837 
	C207.117310,286.181488 206.103363,286.189606 204.678696,286.081482 
	C202.575516,285.948578 200.883026,285.931976 199.040894,285.585175 
	C197.686295,284.739807 196.525116,284.039062 195.268570,283.742828 
	C190.783875,282.685577 188.570480,280.394806 189.191681,275.369751 
	C189.652359,271.643433 189.097992,267.791565 189.089218,263.726624 
	C189.172302,263.081146 189.161926,262.704620 189.464325,262.348755 
	C191.048874,263.057465 192.320648,263.745605 193.640350,264.370056 
	C193.688293,264.306366 193.558807,264.213409 193.729797,264.497192 
	C194.308380,264.934204 194.715973,265.087463 195.234772,265.429535 
	C195.345963,265.618347 195.774582,265.709747 195.927780,265.883179 
	C196.503006,266.225739 196.925049,266.394867 197.393112,266.661072 
	C197.439148,266.758148 197.639343,266.680023 197.904572,266.901855 
	C205.053955,270.111755 212.155884,271.636322 219.454102,269.057312 
	C225.902298,266.778717 227.346954,259.706970 222.283737,255.142670 
	C219.728317,252.839020 216.610504,251.113098 213.610077,249.360275 
	C209.333588,246.861938 204.931274,244.578995 200.980927,242.173584 
	C203.169556,242.143097 204.959976,242.143097 206.841827,242.143097 
	C204.721970,239.277908 202.433609,236.666443 200.767258,233.705002 
	C200.062424,232.452347 200.005371,229.961777 200.805435,228.908890 
	C202.759872,226.336823 205.385910,224.275101 207.896378,222.342789 
	C209.642685,224.847382 210.785141,227.777405 212.915131,229.035492 
	C218.037994,232.061356 223.623703,234.303619 229.022690,236.861984 
	C229.022690,236.861984 229.163910,237.099838 229.513641,237.384247 
	C231.545135,238.822601 233.226883,239.976562 234.908646,241.130508 
	C234.908646,241.130508 234.941879,241.059280 235.032959,241.347794 
	C235.889160,242.277222 236.654282,242.918137 237.419403,243.559036 
	C237.419403,243.559036 237.481155,243.547363 237.656921,243.856079 
	C246.280457,252.037659 247.125580,271.892639 235.064392,280.992035 
M206.776093,231.980103 
	C207.874741,231.864563 208.973404,231.749008 210.072052,231.633469 
	C209.811462,230.963318 209.550858,230.293182 209.290268,229.623032 
	C208.383972,230.218735 207.477661,230.814423 206.776093,231.980103 
z"/>
<path fill="#1A69B2" opacity="1.000000" stroke="none" 
	d="
M229.106873,193.625305 
	C224.512436,193.987091 220.020233,193.870865 215.536621,194.017685 
	C211.435150,194.151962 209.844162,192.264221 209.983734,188.293945 
	C210.338043,178.215363 210.685837,168.133972 210.813171,158.050888 
	C210.898773,151.271545 210.267227,144.467865 210.659241,137.715866 
	C210.799271,135.304260 213.004745,133.012558 214.460907,130.306671 
	C220.602005,131.457779 226.896805,132.637695 233.586121,133.907562 
	C233.108383,136.034210 232.315323,138.109848 231.338867,140.095306 
	C230.550674,141.698029 228.789810,143.175003 228.754578,144.736923 
	C228.559235,153.402878 228.568542,162.054596 232.627579,170.175903 
	C233.432037,171.785446 232.644058,174.305511 232.284241,176.351852 
	C231.880905,178.645630 230.969696,180.850220 230.567886,183.144150 
	C229.981262,186.493088 229.651886,189.887115 229.106873,193.625305 
z"/>
<path fill="#E8ECF0" opacity="1.000000" stroke="none" 
	d="
M230.915298,196.319489 
	C232.082672,196.482956 233.250031,196.646423 234.994415,197.139252 
	C236.361862,197.652557 237.152298,197.836533 237.942719,198.020493 
	C237.942719,198.020493 237.982697,197.981461 238.240448,198.296112 
	C238.996811,200.465240 239.676773,202.293289 239.951950,204.180344 
	C240.375732,207.086670 240.521957,210.033463 240.785950,212.963089 
	C240.837814,213.417572 240.889679,213.872070 240.478149,214.685532 
	C239.495270,215.083313 238.975800,215.122116 238.127350,215.099823 
	C236.173950,214.241730 234.549500,213.444733 232.680939,212.529022 
	C232.095276,212.286697 231.753693,212.163116 231.155426,212.087189 
	C230.580124,212.004074 230.261505,211.873322 229.683578,211.612366 
	C229.062241,211.345428 228.700211,211.208679 228.131378,211.212570 
	C227.618103,211.244095 227.311615,211.134995 226.656219,210.829422 
	C222.877975,210.731522 219.448685,210.830078 215.726227,211.130142 
	C212.923553,213.227341 210.414047,215.123016 207.749268,217.211533 
	C206.686111,217.582657 205.248276,218.186844 204.979050,217.851852 
	C204.392395,217.121857 203.868546,215.345749 204.248962,214.989151 
	C207.821472,211.640289 206.465164,204.113358 213.983780,203.716003 
	C211.488770,203.018341 208.600204,202.122406 207.209930,203.185638 
	C202.969559,206.428558 198.172195,205.076263 193.665863,205.862610 
	C197.910339,200.406876 203.860031,197.886322 210.790894,196.263718 
	C211.554382,196.355225 211.788544,196.276733 211.988937,196.090347 
	C217.738007,196.073547 223.487076,196.056747 229.746460,196.201782 
	C230.256760,196.363617 230.590332,196.420517 230.590332,196.420517 
	C230.590332,196.420517 230.915298,196.319473 230.915298,196.319489 
M214.634476,198.371155 
	C216.379822,198.695511 218.125183,199.019867 219.870529,199.344238 
	C219.845886,198.624680 219.821259,197.905136 219.796616,197.185577 
	C218.147415,197.417435 216.498230,197.649292 214.634476,198.371155 
M235.328171,201.567368 
	C234.394882,200.981277 233.461594,200.395203 232.528305,199.809113 
	C232.260239,200.481781 231.992188,201.154449 231.724121,201.827133 
	C232.846619,201.922745 233.969131,202.018356 235.328171,201.567368 
z"/>
<path fill="#226AAA" opacity="1.000000" stroke="none" 
	d="
M229.942902,211.742554 
	C230.261505,211.873322 230.580124,212.004074 231.349075,212.305191 
	C232.174637,212.532944 232.549835,212.590347 232.925049,212.647751 
	C234.549500,213.444733 236.173950,214.241730 238.303040,215.332809 
	C239.258972,215.976440 239.710266,216.325989 240.161560,216.675537 
	C236.537643,215.695068 232.945526,214.562668 229.277100,213.794876 
	C227.286804,213.378296 224.382843,210.988007 223.801208,215.778015 
	C223.682831,216.752975 220.975235,217.413544 219.454559,218.222580 
	C222.359406,224.543289 221.708328,232.393021 228.913483,236.542938 
	C223.623703,234.303619 218.037994,232.061356 212.915131,229.035492 
	C210.785141,227.777405 209.642685,224.847382 207.939377,221.928070 
	C207.853226,219.791885 207.878891,218.405289 207.904541,217.018692 
	C210.414047,215.123016 212.923553,213.227341 216.182587,211.150299 
	C220.289795,210.987915 223.647476,211.006897 227.005142,211.025879 
	C227.311615,211.134995 227.618103,211.244095 228.319244,211.467987 
	C229.123581,211.636032 229.533249,211.689301 229.942902,211.742554 
z"/>
<path fill="#226AAA" opacity="1.000000" stroke="none" 
	d="
M235.294403,281.007385 
	C247.125580,271.892639 246.280457,252.037659 237.648605,243.886383 
	C241.673370,243.415085 243.421143,246.393143 244.255707,249.633728 
	C246.800049,259.513336 247.427017,269.331299 240.909775,278.148438 
	C239.965149,279.426331 238.156326,280.065491 236.365906,281.027557 
	C235.984375,281.054901 235.524429,281.022736 235.294403,281.007385 
z"/>
<path fill="#E6EAEF" opacity="1.000000" stroke="none" 
	d="
M240.883148,212.510544 
	C240.521957,210.033463 240.375732,207.086670 239.951950,204.180344 
	C239.676773,202.293289 238.996811,200.465240 238.249969,198.322388 
	C238.703537,198.129257 239.405380,198.224487 240.456421,198.397491 
	C240.863876,203.002823 240.922119,207.530411 240.883148,212.510544 
z"/>
<path fill="#226AAA" opacity="1.000000" stroke="none" 
	d="
M234.883484,240.742157 
	C233.226883,239.976562 231.545135,238.822601 229.651855,237.389175 
	C231.905090,237.090897 234.425659,236.978897 234.883484,240.742157 
z"/>
<path fill="#1A69B2" opacity="1.000000" stroke="none" 
	d="
M232.311371,156.995117 
	C232.640381,156.585571 232.969574,156.387970 233.298752,156.190369 
	C233.300873,156.722153 233.302979,157.253952 233.305084,157.785736 
	C232.973907,157.592850 232.642731,157.399963 232.311371,156.995117 
z"/>
<path fill="#226AAA" opacity="1.000000" stroke="none" 
	d="
M237.412048,243.215698 
	C236.654282,242.918137 235.889160,242.277222 234.996735,241.363037 
	C235.714523,241.683960 236.559616,242.278152 237.412048,243.215698 
z"/>
<path fill="#E6EAEF" opacity="1.000000" stroke="none" 
	d="
M240.346161,216.514404 
	C239.710266,216.325989 239.258972,215.976440 238.631989,215.393906 
	C238.975800,215.122116 239.495270,215.083313 240.404572,215.023026 
	C240.706512,215.452118 240.618652,215.902679 240.346161,216.514404 
z"/>
<path fill="#1264AD" opacity="1.000000" stroke="none" 
	d="
M384.969238,266.098206 
	C385.220367,261.689545 385.605774,257.282898 385.671936,252.871460 
	C385.711121,250.258362 385.250549,247.637283 385.007019,245.020523 
	C384.763428,242.403030 384.633698,239.767090 384.227539,237.174728 
	C383.793060,234.401413 382.996521,231.685135 382.553345,228.912735 
	C382.346252,227.617203 382.336151,226.167648 382.713776,224.933884 
	C383.135284,223.556610 384.649994,222.380051 384.734009,221.055557 
	C385.204163,213.644897 385.619995,206.215485 385.606567,198.793304 
	C385.589661,189.430099 385.157318,180.067184 384.860443,170.705536 
	C384.824158,169.561722 384.869659,168.178452 384.272888,167.332474 
	C382.259064,164.477600 382.689209,161.991287 384.191681,159.002777 
	C385.078461,157.238922 385.367737,154.480103 384.617462,152.729446 
	C382.950958,148.841034 383.472900,145.499710 384.947571,141.753983 
	C387.079010,136.339935 384.713531,131.378998 382.228333,126.252350 
	C386.939148,123.840164 391.821228,121.519630 396.900482,119.772156 
	C397.632019,119.520477 400.314972,121.978645 400.377289,123.265892 
	C400.623230,128.347076 400.030304,133.461258 400.024536,138.563507 
	C399.980072,177.836685 399.982483,217.109955 400.035736,256.383087 
	C400.039764,259.353180 400.547638,262.322571 400.546387,265.896057 
	C395.170715,266.365967 390.069977,266.232086 384.969238,266.098206 
z"/>
<path fill="#E8ECF0" opacity="1.000000" stroke="none" 
	d="
M370.946808,196.125381 
	C370.946808,196.125381 371.374054,196.295197 371.686615,196.748566 
	C371.999176,220.746429 371.999176,244.290924 371.999176,268.120209 
	C383.149628,268.120209 393.561401,268.120209 403.973175,268.120209 
	C404.428101,272.914062 404.882996,277.707886 405.417786,282.735229 
	C404.914276,283.256805 404.330353,283.797485 403.747589,283.796204 
	C387.004425,283.759705 370.261444,283.668823 353.317261,282.807739 
	C353.083069,253.749863 353.050018,225.471039 353.016968,197.192215 
	C353.016937,197.192215 353.202271,197.050201 353.523071,196.844940 
	C359.544861,196.468231 365.245819,196.296814 370.946808,196.125381 
z"/>
<path fill="#3872A6" opacity="1.000000" stroke="none" 
	d="
M403.835327,267.832245 
	C393.561401,268.120209 383.149628,268.120209 371.999176,268.120209 
	C371.999176,244.290924 371.999176,220.746429 371.914978,196.774841 
	C372.529144,198.192032 373.819061,200.031357 373.834503,201.881302 
	C373.990021,220.540604 373.917023,239.201691 373.950714,257.862213 
	C373.967407,267.114807 375.226837,268.114532 384.578125,266.179932 
	C390.069977,266.232086 395.170715,266.365967 400.631683,266.312683 
	C401.893738,266.598450 402.795593,267.071381 403.835327,267.832245 
z"/>
<path fill="#3872A6" opacity="1.000000" stroke="none" 
	d="
M352.807251,197.524292 
	C353.050018,225.471039 353.083069,253.749863 353.033630,282.484253 
	C352.635834,281.333618 352.049286,279.727997 352.045746,278.121094 
	C351.989777,252.670105 351.999847,227.218948 352.035126,201.767883 
	C352.036926,200.463791 352.401733,199.160187 352.807251,197.524292 
z"/>
<path fill="#3872A6" opacity="1.000000" stroke="none" 
	d="
M370.948273,195.779694 
	C365.245819,196.296814 359.544861,196.468231 353.518585,196.728271 
	C355.064026,196.152878 356.891571,195.134521 358.814636,194.900345 
	C362.545258,194.446075 366.329559,194.432632 370.477661,194.146500 
	C370.892365,194.515656 370.921051,194.974838 370.948273,195.779694 
z"/>
<path fill="#1A6AB2" opacity="1.000000" stroke="none" 
	d="
M357.961243,285.469971 
	C357.984589,285.443939 357.937927,285.495972 357.961243,285.469971 
z"/>
<path fill="#1A6AB2" opacity="1.000000" stroke="none" 
	d="
M362.494171,285.497467 
	C362.512939,285.491302 362.475403,285.503632 362.494171,285.497467 
z"/>
<path fill="#1A6AB2" opacity="1.000000" stroke="none" 
	d="
M360.494263,285.497467 
	C360.513000,285.491302 360.475494,285.503632 360.494263,285.497467 
z"/>
<path fill="#1566AE" opacity="1.000000" stroke="none" 
	d="
M208.860748,286.392334 
	C210.666138,286.368439 212.471527,286.344513 214.725632,286.405396 
	C215.787628,286.733856 216.400925,286.977509 217.808731,287.536835 
	C212.134888,288.171570 212.005554,291.963928 212.020660,295.735657 
	C212.138947,325.273926 212.292130,354.812042 212.424438,384.350250 
	C212.425888,384.673645 212.292633,384.997589 212.098709,385.666687 
	C205.610641,384.664642 199.246124,383.317230 192.465073,381.947754 
	C191.741241,381.153778 191.433945,380.381836 191.061096,379.304352 
	C191.212387,375.951111 191.419235,372.902710 191.651871,369.856232 
	C191.727402,368.867126 191.993942,367.879211 191.963043,366.897400 
	C191.709229,358.837341 191.224609,350.780090 191.170181,342.719543 
	C191.119080,335.156433 191.615524,327.591156 191.671448,320.025360 
	C191.728607,312.294525 191.401932,304.559570 191.529007,296.831116 
	C191.584412,293.460876 192.352112,290.102295 193.344666,286.371277 
	C195.658859,285.974548 197.424698,285.944946 199.190552,285.915344 
	C200.883026,285.931976 202.575516,285.948578 204.923141,286.229034 
	C206.672440,286.459351 207.766602,286.425873 208.860748,286.392334 
z"/>
<path fill="#1365AE" opacity="1.000000" stroke="none" 
	d="
M376.667328,373.719543 
	C377.059601,373.238495 377.509094,372.982666 377.958557,372.726837 
	C378.063965,373.135590 378.169373,373.544373 378.274750,373.953125 
	C377.758026,373.950317 377.241272,373.947540 376.667328,373.719543 
z"/>
<path fill="#206EB4" opacity="1.000000" stroke="none" 
	d="
M265.190063,395.179504 
	C265.576050,395.158447 266.182190,395.297546 266.860535,395.644226 
	C266.425201,395.681061 265.917725,395.510345 265.190063,395.179504 
z"/>
<path fill="#206EB4" opacity="1.000000" stroke="none" 
	d="
M269.281372,395.917694 
	C269.269897,395.774017 269.486359,395.736298 269.818298,395.855164 
	C269.918243,395.908386 269.493713,395.920288 269.281372,395.917694 
z"/>
<path fill="#E6EAEF" opacity="1.000000" stroke="none" 
	d="
M207.749283,217.211533 
	C207.878891,218.405289 207.853226,219.791885 207.784576,221.593201 
	C205.385910,224.275101 202.759872,226.336823 200.805435,228.908890 
	C200.005371,229.961777 200.062424,232.452347 200.767258,233.705002 
	C202.433609,236.666443 204.721970,239.277908 206.841827,242.143097 
	C204.959976,242.143097 203.169556,242.143097 200.667908,242.100891 
	C198.375534,240.952957 196.794357,239.847244 195.178772,238.797913 
	C195.144363,238.854279 195.251328,238.776779 195.108353,238.475479 
	C193.385666,236.221771 191.805939,234.269363 190.185455,232.002441 
	C189.146057,230.357407 188.147446,229.026871 187.148819,227.696350 
	C187.477264,222.775818 187.805710,217.855286 188.218887,212.529205 
	C189.899826,210.140091 191.496017,208.156525 193.379028,206.017792 
	C198.172195,205.076263 202.969559,206.428558 207.209930,203.185638 
	C208.600204,202.122406 211.488770,203.018341 213.983780,203.716003 
	C206.465164,204.113358 207.821472,211.640289 204.248962,214.989151 
	C203.868546,215.345749 204.392395,217.121857 204.979050,217.851852 
	C205.248276,218.186844 206.686111,217.582657 207.749283,217.211533 
z"/>
<path fill="#1565AD" opacity="1.000000" stroke="none" 
	d="
M189.151550,262.328125 
	C189.161926,262.704620 189.172302,263.081146 188.902985,263.882507 
	C188.385925,264.528778 188.162003,264.763062 187.951523,265.010193 
	C187.451584,263.770233 186.526398,262.529785 186.527832,261.290405 
	C186.533035,256.759827 187.146561,252.216705 186.952209,247.703217 
	C186.789978,243.935562 187.722382,240.948410 191.167694,238.358887 
	C192.895874,238.355011 194.073593,238.565903 195.251328,238.776779 
	C195.251328,238.776779 195.144363,238.854279 195.220917,239.152908 
	C197.628296,241.886551 199.557755,245.625702 202.371490,246.491669 
	C208.701797,248.439835 210.913025,252.569397 211.169662,258.394073 
	C211.271561,260.706543 210.606720,263.052765 210.208313,265.993835 
	C212.184082,265.993835 214.088806,265.993835 215.996735,265.996918 
	C215.999954,266.000000 216.006256,266.004974 215.805939,266.326477 
	C212.648041,267.040344 209.690613,267.738495 206.732803,267.740143 
	C203.701843,267.741821 200.670517,267.061707 197.639343,266.680023 
	C197.639343,266.680023 197.439148,266.758148 197.422424,266.409454 
	C196.861984,265.943756 196.318283,265.826752 195.774582,265.709778 
	C195.774582,265.709747 195.345963,265.618347 194.994217,265.226715 
	C194.281250,264.627869 193.920029,264.420624 193.558807,264.213409 
	C193.558807,264.213409 193.688293,264.306366 193.678406,263.995361 
	C192.684494,262.355072 191.700485,261.025757 190.716461,259.696442 
	C190.194824,260.573669 189.673187,261.450897 189.151550,262.328125 
z"/>
<path fill="#1B68AD" opacity="1.000000" stroke="none" 
	d="
M187.961578,265.425293 
	C188.162003,264.763062 188.385925,264.528778 188.809540,264.151489 
	C189.097992,267.791565 189.652359,271.643433 189.191681,275.369751 
	C188.570480,280.394806 190.783875,282.685577 195.268570,283.742828 
	C196.525116,284.039062 197.686295,284.739807 199.040894,285.585205 
	C197.424698,285.944946 195.658859,285.974548 193.452606,286.007263 
	C187.483490,283.241608 185.894592,280.022400 187.166290,273.101471 
	C187.559418,271.637268 187.744949,270.817200 187.930481,269.997131 
	C187.944214,268.611572 187.957932,267.225983 187.961578,265.425293 
z"/>
<path fill="#1565AD" opacity="1.000000" stroke="none" 
	d="
M187.047729,228.012024 
	C188.147446,229.026871 189.146057,230.357407 190.135651,232.449585 
	C190.073044,233.807404 190.019470,234.403564 189.965897,234.999741 
	C188.959473,232.775726 187.953049,230.551712 187.047729,228.012024 
z"/>
<path fill="#1B68AD" opacity="1.000000" stroke="none" 
	d="
M190.039093,235.309158 
	C190.019470,234.403564 190.073044,233.807404 190.176422,232.764099 
	C191.805939,234.269363 193.385666,236.221771 195.108353,238.475479 
	C194.073593,238.565903 192.895874,238.355011 191.367355,238.066956 
	C190.715134,237.199371 190.413696,236.408981 190.039093,235.309158 
z"/>
<path fill="#1565AD" opacity="1.000000" stroke="none" 
	d="
M187.649353,270.033203 
	C187.744949,270.817200 187.559418,271.637268 187.202728,272.725403 
	C187.143799,272.018707 187.256012,271.044006 187.649353,270.033203 
z"/>
<path fill="#E6EAEF" opacity="1.000000" stroke="none" 
	d="
M237.693253,197.831467 
	C237.152298,197.836533 236.361862,197.652557 235.308838,197.310745 
	C235.845428,197.316086 236.644608,197.479263 237.693253,197.831467 
z"/>
<path fill="#E6EAEF" opacity="1.000000" stroke="none" 
	d="
M230.709274,196.233917 
	C230.915298,196.319473 230.590332,196.420517 230.590332,196.420517 
	C230.590332,196.420517 230.256760,196.363617 230.161240,196.299622 
	C230.065720,196.235641 230.503250,196.148376 230.709274,196.233917 
z"/>
<path fill="#E6EAEF" opacity="1.000000" stroke="none" 
	d="
M211.741302,196.057739 
	C211.788544,196.276733 211.554382,196.355225 211.165100,196.283997 
	C211.043716,196.242188 211.493652,196.025146 211.741302,196.057739 
z"/>
<path fill="#1E6CB4" opacity="1.000000" stroke="none" 
	d="
M373.505585,194.503265 
	C373.486603,194.509552 373.524567,194.496994 373.505585,194.503265 
z"/>
<path fill="#2B73B8" opacity="1.000000" stroke="none" 
	d="
M283.024780,264.973999 
	C282.692932,264.959320 282.414581,264.829712 281.974518,264.076965 
	C281.116669,263.072113 280.473999,262.575439 279.831360,262.078796 
	C279.831360,262.078796 279.921021,262.078064 279.822327,261.827271 
	C279.280304,261.161438 278.837006,260.746368 278.393677,260.331329 
	C278.393677,260.331329 278.488708,260.371460 278.529297,260.054657 
	C277.872375,258.973389 277.174927,258.208923 276.477478,257.444458 
	C276.477478,257.444458 276.468048,257.369812 276.573975,256.948944 
	C276.363739,254.751144 276.269684,252.898392 275.693268,251.210327 
	C273.099304,243.613892 272.928955,236.047104 275.860779,228.545044 
	C277.400330,224.605560 279.248840,220.786835 280.957855,216.913574 
	C280.957855,216.913574 280.975830,216.975464 281.297791,216.951431 
	C282.754395,215.958755 283.889038,214.990112 285.023651,214.021469 
	C285.023651,214.021469 285.144867,213.823608 285.694580,213.862335 
	C288.850525,213.054352 291.456757,212.207657 294.062988,211.360931 
	C294.809082,211.285690 295.555176,211.210449 296.939270,211.418793 
	C302.029663,215.127487 306.502563,218.526520 310.920135,221.995941 
	C312.038116,222.873932 312.979858,223.976318 314.002563,224.975601 
	C318.268036,235.899658 318.384521,246.726273 312.869812,257.895599 
	C312.311005,258.599640 312.151917,258.855530 312.022034,259.129578 
	C312.022034,259.129578 312.026550,259.045258 311.723297,259.120056 
	C310.096558,260.958344 308.773071,262.721802 307.449585,264.485291 
	C307.449585,264.485291 307.327820,264.427490 307.070557,264.434265 
	C306.222412,264.977661 305.631561,265.514282 305.040680,266.050903 
	C305.040680,266.050903 305.009583,265.996155 304.617310,266.017029 
	C299.940369,266.739288 295.655701,267.440674 291.371033,268.142090 
	C291.371033,268.142090 291.363922,268.371918 290.959381,268.135864 
	C289.607544,267.720581 288.660217,267.541382 287.712921,267.362183 
	C287.712921,267.362183 287.884979,267.377563 287.658112,267.213593 
	C286.820648,266.875854 286.210052,266.702087 285.599457,266.528351 
	C285.599457,266.528351 285.726898,266.518890 285.552734,266.291382 
	C284.593994,265.700562 283.809387,265.337280 283.024780,264.973999 
z"/>
<path fill="#3872A6" opacity="1.000000" stroke="none" 
	d="
M280.644226,217.046600 
	C279.248840,220.786835 277.400330,224.605560 275.860779,228.545044 
	C272.928955,236.047104 273.099304,243.613892 275.693268,251.210327 
	C276.269684,252.898392 276.363739,254.751144 276.611145,256.943176 
	C269.618408,246.601410 271.455383,227.118088 280.644226,217.046600 
z"/>
<path fill="#3872A6" opacity="1.000000" stroke="none" 
	d="
M313.970520,224.622803 
	C312.979858,223.976318 312.038116,222.873932 310.920135,221.995941 
	C306.502563,218.526520 302.029663,215.127487 297.305176,211.512146 
	C305.771423,211.586273 310.712799,216.808136 313.970520,224.622803 
z"/>
<path fill="#3872A6" opacity="1.000000" stroke="none" 
	d="
M291.714264,268.412048 
	C295.655701,267.440674 299.940369,266.739288 304.639160,266.040894 
	C300.721344,266.923279 296.389435,267.802643 291.714264,268.412048 
z"/>
<path fill="#3872A6" opacity="1.000000" stroke="none" 
	d="
M293.676025,211.286758 
	C291.456757,212.207657 288.850525,213.054352 285.809021,213.881287 
	C288.012207,212.978516 290.650635,212.095551 293.676025,211.286758 
z"/>
<path fill="#2370B7" opacity="1.000000" stroke="none" 
	d="
M307.092712,301.574310 
	C303.392334,302.256500 302.453369,299.788605 302.095581,296.339233 
	C303.706177,297.724579 305.340637,299.494537 307.092712,301.574310 
z"/>
<path fill="#3872A6" opacity="1.000000" stroke="none" 
	d="
M307.742920,264.336212 
	C308.773071,262.721802 310.096558,260.958344 311.765442,259.122559 
	C310.752655,260.762573 309.394470,262.474854 307.742920,264.336212 
z"/>
<path fill="#3872A6" opacity="1.000000" stroke="none" 
	d="
M284.700653,214.075455 
	C283.889038,214.990112 282.754395,215.958755 281.266785,216.942612 
	C282.068420,216.015030 283.223022,215.072235 284.700653,214.075455 
z"/>
<path fill="#3872A6" opacity="1.000000" stroke="none" 
	d="
M276.571472,257.736389 
	C277.174927,258.208923 277.872375,258.973389 278.506409,260.100891 
	C277.850464,259.652069 277.257965,258.840179 276.571472,257.736389 
z"/>
<path fill="#2973B9" opacity="1.000000" stroke="none" 
	d="
M270.635132,203.304382 
	C271.105560,202.728973 271.861908,202.072632 272.961731,201.480759 
	C272.510468,202.104645 271.715759,202.664032 270.635132,203.304382 
z"/>
<path fill="#3872A6" opacity="1.000000" stroke="none" 
	d="
M279.936707,262.374329 
	C280.473999,262.575439 281.116669,263.072113 281.864349,263.869263 
	C281.326935,263.669769 280.684509,263.169800 279.936707,262.374329 
z"/>
<path fill="#3872A6" opacity="1.000000" stroke="none" 
	d="
M305.335236,265.998627 
	C305.631561,265.514282 306.222412,264.977661 307.137939,264.433105 
	C306.851654,264.932220 306.240723,265.439270 305.335236,265.998627 
z"/>
<path fill="#3872A6" opacity="1.000000" stroke="none" 
	d="
M283.214386,265.238220 
	C283.809387,265.337280 284.593994,265.700562 285.554626,266.355225 
	C284.955109,266.265259 284.179535,265.883850 283.214386,265.238220 
z"/>
<path fill="#3872A6" opacity="1.000000" stroke="none" 
	d="
M287.987854,267.606812 
	C288.660217,267.541382 289.607544,267.720581 290.844421,268.133209 
	C290.176971,268.194916 289.219879,268.023193 287.987854,267.606812 
z"/>
<path fill="#3872A6" opacity="1.000000" stroke="none" 
	d="
M278.488800,260.629211 
	C278.837006,260.746368 279.280304,261.161438 279.822113,261.872101 
	C279.475037,261.754181 279.029480,261.340637 278.488800,260.629211 
z"/>
<path fill="#2370B7" opacity="1.000000" stroke="none" 
	d="
M309.368896,304.542114 
	C309.018127,304.403992 308.650146,303.953064 308.180634,303.231201 
	C308.503265,303.383331 308.927460,303.806305 309.368896,304.542114 
z"/>
<path fill="#3872A6" opacity="1.000000" stroke="none" 
	d="
M285.832672,266.747253 
	C286.210052,266.702087 286.820648,266.875854 287.648773,267.299438 
	C287.266174,267.354889 286.666016,267.160522 285.832672,266.747253 
z"/>
<path fill="#2973B9" opacity="1.000000" stroke="none" 
	d="
M269.375519,204.128510 
	C269.346344,203.945938 269.607208,203.691788 270.091370,203.276199 
	C270.098297,203.428818 269.881927,203.742874 269.375519,204.128510 
z"/>
<path fill="#3872A6" opacity="1.000000" stroke="none" 
	d="
M312.244080,259.021667 
	C312.151917,258.855530 312.311005,258.599640 312.651306,258.194397 
	C312.858704,258.386292 312.746307,258.681915 312.244080,259.021667 
z"/>
<path fill="#2370B7" opacity="1.000000" stroke="none" 
	d="
M301.977051,295.714050 
	C301.822815,295.736115 301.585175,295.496033 301.170563,295.075531 
	C301.293610,295.080719 301.593658,295.266327 301.977051,295.714050 
z"/>
<path fill="#2370B7" opacity="1.000000" stroke="none" 
	d="
M301.047729,294.712555 
	C300.870941,294.743439 300.623566,294.486237 300.188080,294.040527 
	C300.325684,294.042847 300.651398,294.233673 301.047729,294.712555 
z"/>
<path fill="#2370B7" opacity="1.000000" stroke="none" 
	d="
M300.066711,293.690887 
	C299.871948,293.681213 299.634003,293.341278 299.224060,292.738953 
	C299.375885,292.771240 299.699677,293.065948 300.066711,293.690887 
z"/>
<path fill="#1B68AD" opacity="1.000000" stroke="none" 
	d="
M215.993500,265.993835 
	C214.088806,265.993835 212.184082,265.993835 210.208313,265.993835 
	C210.606720,263.052765 211.271561,260.706543 211.169662,258.394073 
	C210.913025,252.569397 208.701797,248.439835 202.371490,246.491669 
	C199.557755,245.625702 197.628296,241.886551 195.255310,239.096527 
	C196.794357,239.847244 198.375534,240.952957 200.269714,242.131378 
	C204.931274,244.578995 209.333588,246.861938 213.610077,249.360275 
	C216.610504,251.113098 219.728317,252.839020 222.283737,255.142670 
	C227.346954,259.706970 225.902298,266.778717 219.454102,269.057312 
	C212.155884,271.636322 205.053955,270.111755 197.904572,266.901855 
	C200.670517,267.061707 203.701843,267.741821 206.732803,267.740143 
	C209.690613,267.738495 212.648041,267.040344 216.068405,266.198059 
	C216.909210,264.996735 217.287231,264.245331 217.665253,263.493927 
	C217.327209,263.368225 216.989182,263.242523 216.651138,263.116852 
	C216.431931,264.075836 216.212708,265.034821 215.993500,265.993835 
M217.131851,258.780060 
	C217.014526,258.844086 216.897186,258.908112 216.779846,258.972137 
	C216.866470,259.069153 216.953110,259.166199 217.039734,259.263214 
	C217.114899,259.152008 217.190048,259.040802 217.131851,258.780060 
z"/>
<path fill="#E6EAEF" opacity="1.000000" stroke="none" 
	d="
M206.673721,231.695099 
	C207.477661,230.814423 208.383972,230.218735 209.290268,229.623032 
	C209.550858,230.293182 209.811462,230.963318 210.072052,231.633453 
	C208.973404,231.749008 207.874741,231.864563 206.673721,231.695099 
z"/>
<path fill="#1B68AD" opacity="1.000000" stroke="none" 
	d="
M189.464325,262.348755 
	C189.673187,261.450897 190.194824,260.573669 190.716461,259.696442 
	C191.700485,261.025757 192.684494,262.355072 193.630463,264.059052 
	C192.320648,263.745605 191.048874,263.057465 189.464325,262.348755 
z"/>
<path fill="#1B68AD" opacity="1.000000" stroke="none" 
	d="
M195.927780,265.883179 
	C196.318283,265.826752 196.861984,265.943756 197.376373,266.312378 
	C196.925049,266.394867 196.503006,266.225739 195.927780,265.883179 
z"/>
<path fill="#1B6AB3" opacity="1.000000" stroke="none" 
	d="
M208.496002,286.282837 
	C207.766602,286.425873 206.672440,286.459351 205.333847,286.345306 
	C206.103363,286.189606 207.117310,286.181488 208.496002,286.282837 
z"/>
<path fill="#1B68AD" opacity="1.000000" stroke="none" 
	d="
M193.729797,264.497192 
	C193.920029,264.420624 194.281250,264.627869 194.883026,265.037903 
	C194.715973,265.087463 194.308380,264.934204 193.729797,264.497192 
z"/>
<path fill="#E6EAEF" opacity="1.000000" stroke="none" 
	d="
M214.741760,198.126160 
	C216.498230,197.649292 218.147415,197.417435 219.796616,197.185577 
	C219.821259,197.905136 219.845886,198.624680 219.870529,199.344238 
	C218.125183,199.019867 216.379822,198.695511 214.741760,198.126160 
z"/>
<path fill="#E6EAEF" opacity="1.000000" stroke="none" 
	d="
M235.209900,201.840668 
	C233.969131,202.018356 232.846619,201.922745 231.724121,201.827118 
	C231.992188,201.154449 232.260239,200.481781 232.528305,199.809113 
	C233.461594,200.395203 234.394882,200.981277 235.209900,201.840668 
z"/>
<path fill="#E6EAEF" opacity="1.000000" stroke="none" 
	d="
M226.656219,210.829422 
	C223.647476,211.006897 220.289795,210.987915 216.475754,210.948792 
	C219.448685,210.830078 222.877975,210.731522 226.656219,210.829422 
z"/>
<path fill="#E6EAEF" opacity="1.000000" stroke="none" 
	d="
M229.683578,211.612366 
	C229.533249,211.689301 229.123581,211.636032 228.526062,211.327347 
	C228.700211,211.208679 229.062241,211.345428 229.683578,211.612366 
z"/>
<path fill="#E6EAEF" opacity="1.000000" stroke="none" 
	d="
M232.680939,212.529022 
	C232.549835,212.590347 232.174637,212.532944 231.605774,212.257553 
	C231.753693,212.163116 232.095276,212.286697 232.680939,212.529022 
z"/>
<path fill="#1565AD" opacity="1.000000" stroke="none" 
	d="
M215.996735,265.996918 
	C216.212708,265.034821 216.431931,264.075836 216.651138,263.116852 
	C216.989182,263.242523 217.327209,263.368225 217.665253,263.493927 
	C217.287231,264.245331 216.909210,264.996735 216.268707,265.876556 
	C216.006256,266.004974 215.999954,266.000000 215.996735,265.996918 
z"/>
<path fill="#1565AD" opacity="1.000000" stroke="none" 
	d="
M217.198517,258.854828 
	C217.190048,259.040802 217.114899,259.152008 217.039734,259.263214 
	C216.953110,259.166199 216.866470,259.069153 216.779846,258.972137 
	C216.897186,258.908112 217.014526,258.844086 217.198517,258.854828 
z"/>
</svg>