<svg version="1.1" id="Layer_1" xmlns="http://www.w3.org/2000/svg" xmlns:xlink="http://www.w3.org/1999/xlink" x="0px" y="0px"
	 width="100%" viewBox="0 0 258 148" enable-background="new 0 0 258 148" xml:space="preserve">
<path fill="#000000" opacity="1.000000" stroke="none" 
	d="
M259.000000,141.000000 
	C259.000000,143.662598 259.000000,146.325180 259.000000,148.953644 
	C172.999985,148.953644 86.999977,148.953644 1.000000,148.953644 
	C1.000000,142.250809 1.000000,135.594330 1.458479,128.371155 
	C3.078963,127.846588 4.240638,127.906898 5.403024,127.927994 
	C15.759113,128.115967 15.756443,128.114029 16.098478,138.357910 
	C16.169630,140.488922 15.763714,142.971985 19.149096,142.848679 
	C22.598398,142.723083 21.805824,140.111710 21.853874,138.086197 
	C22.072800,128.857422 22.054815,128.856689 31.375454,127.946815 
	C31.705820,127.914574 32.164860,128.033035 32.347672,127.856865 
	C33.180740,127.054047 34.283726,126.270828 34.570595,125.273689 
	C34.710110,124.788773 33.147350,123.124901 32.566460,123.224678 
	C22.901033,124.884903 20.433004,120.144821 21.675882,111.582481 
	C21.769501,110.937523 19.850376,109.512604 18.737139,109.352516 
	C18.000622,109.246613 16.426168,110.658180 16.284147,111.557381 
	C15.899225,113.994415 15.932742,116.528580 16.070429,119.009232 
	C16.240625,122.075623 14.904837,123.141167 11.948190,123.017494 
	C8.304924,122.865089 4.649927,122.993149 1.000000,123.000000 
	C1.000000,82.404045 1.000000,41.808086 1.000000,1.000000 
	C44.020660,1.000000 87.041672,1.000000 130.706329,1.428119 
	C131.138489,4.804106 130.927002,7.751974 130.708710,10.794808 
	C128.984711,10.947723 127.511246,11.078417 125.647797,11.150303 
	C124.546570,11.752915 123.835312,12.414333 123.124062,13.075752 
	C123.908211,13.690886 124.622711,14.681401 125.491096,14.842505 
	C127.263725,15.171367 129.119186,15.053793 130.973740,15.533007 
	C131.006943,18.198410 131.006943,20.450918 131.006943,22.703426 
	C131.369476,22.981590 131.732010,23.259754 132.094543,23.537918 
	C133.049179,22.424013 134.357651,21.455029 134.885437,20.166311 
	C136.016312,17.404984 136.743942,14.478498 137.753525,11.245513 
	C137.527405,11.171432 136.263626,10.757410 135.438599,10.487125 
	C134.904312,6.963643 134.452164,3.981821 134.000000,0.999999 
	C175.591522,1.000000 217.183044,1.000000 259.000000,1.000000 
	C259.000000,40.020603 259.000000,79.041641 258.608734,118.576157 
	C257.170898,120.629662 255.474518,122.063927 255.203323,123.730148 
	C254.479935,128.174576 254.369385,132.718750 253.674988,137.300568 
	C251.531845,137.327698 249.728928,137.277557 247.668564,137.034027 
	C247.191772,136.242783 246.972427,135.644928 246.818542,134.582199 
	C246.891830,130.302063 247.224609,126.444252 246.733551,122.694328 
	C246.558624,121.358498 244.385376,120.284363 243.124313,119.090759 
	C242.089386,120.221672 240.283768,121.276360 240.162979,122.497681 
	C239.789398,126.274765 239.669113,130.170929 240.204391,133.912994 
	C240.605026,136.713684 240.459061,140.623291 245.221527,140.867767 
	C245.539215,141.356888 245.793091,141.552780 246.461578,141.745758 
	C247.520874,141.841736 248.232895,141.853409 249.237976,142.103943 
	C250.767166,142.366791 252.003265,142.390762 253.367920,142.407913 
	C253.659073,142.314514 253.765457,142.182495 254.178513,141.959488 
	C255.025085,141.853943 255.508789,141.793915 256.298828,141.673370 
	C257.403473,141.408569 258.201721,141.204285 259.000000,141.000000 
M122.001366,69.000412 
	C122.001366,69.000412 121.973145,69.027153 121.470139,68.360535 
	C117.998680,68.185509 114.527229,68.010490 111.010193,66.941795 
	C110.989449,64.132965 111.199539,61.293659 110.834648,58.530277 
	C110.688095,57.420441 109.278671,56.477360 108.444038,55.458382 
	C107.652107,56.513302 106.296188,57.508583 106.177116,58.634647 
	C105.857872,61.653809 106.068230,64.728973 106.068230,68.062981 
	C102.698326,68.062981 100.183357,67.786064 97.776749,68.176704 
	C96.523483,68.380135 95.461304,69.760803 94.312813,70.609711 
	C95.537834,71.395256 96.674904,72.564964 98.009804,72.870567 
	C99.737450,73.266075 101.665466,72.740494 103.424217,73.063469 
	C104.450768,73.251991 105.315308,74.322731 106.099167,75.877708 
	C106.123383,78.263466 106.147598,80.649216 106.080536,83.440392 
	C106.080536,83.440392 106.160423,83.848198 106.158867,84.653076 
	C107.559082,85.149841 108.959290,85.646606 110.825386,86.308655 
	C110.825386,82.809975 110.825386,80.400253 110.925957,77.319160 
	C110.880089,76.870102 110.834229,76.421036 110.924385,75.331871 
	C110.896957,74.898499 110.869530,74.465118 111.235291,73.429176 
	C112.164009,73.229805 113.092735,73.030434 114.878372,72.959702 
	C117.489670,72.601158 120.100960,72.242607 122.818619,71.260925 
	C122.780251,70.842804 122.741882,70.424683 122.714256,69.544510 
	C122.559563,69.245560 122.315186,69.075493 122.001366,69.000412 
M114.826324,123.155739 
	C114.826324,123.155739 114.746681,123.129784 114.691467,122.449997 
	C112.770561,121.403252 110.849655,120.356506 108.216446,119.215073 
	C107.500267,119.218155 106.784088,119.221230 105.216545,119.091278 
	C99.258980,119.382957 101.428764,114.832733 100.701042,111.834244 
	C100.365608,110.452110 98.930397,109.336891 97.993843,108.100655 
	C97.015511,109.136009 95.209465,110.155510 95.189262,111.209229 
	C95.021698,119.951752 95.011047,128.708679 95.418411,137.439545 
	C95.485680,138.881042 97.820770,140.216721 99.738388,141.734329 
	C100.163521,141.797836 100.588654,141.861343 101.576385,142.492096 
	C109.148987,143.685532 113.768608,141.881470 116.264320,136.539520 
	C116.486526,136.010605 116.708733,135.481705 117.462059,134.555756 
	C117.549683,133.699371 117.637299,132.842972 117.809090,131.211380 
	C117.442528,129.485489 117.075966,127.759605 116.755615,125.414085 
	C116.121613,124.687698 115.487617,123.961319 114.826324,123.155739 
M204.610535,139.398300 
	C204.610535,139.398300 204.700241,139.398666 205.016541,140.012329 
	C210.400681,143.687897 215.939148,144.178802 221.964294,140.338486 
	C222.057938,139.030182 222.290848,137.714386 222.221130,136.414856 
	C221.915894,130.724518 224.756378,124.759453 220.195419,119.315697 
	C219.810257,119.352974 219.425095,119.390251 218.478531,119.356163 
	C217.990524,119.583862 217.502533,119.811562 216.499741,120.130241 
	C216.326843,120.152046 216.153961,120.173851 215.584763,119.627571 
	C214.700546,119.496017 213.816315,119.364471 212.288651,119.190872 
	C211.859650,119.214317 211.430649,119.237762 210.243118,119.110481 
	C204.970779,119.193573 202.411957,122.327423 201.176956,127.927032 
	C201.197784,129.931000 201.218613,131.934982 201.192184,134.629669 
	C202.326752,136.189713 203.461319,137.749756 204.610535,139.398300 
M97.006134,45.051941 
	C96.669350,42.706108 96.332565,40.360271 95.995781,38.014439 
	C95.331131,38.027885 94.666489,38.041332 94.001846,38.054783 
	C93.478004,40.599857 92.954155,43.144932 92.403358,45.820942 
	C90.384178,45.945522 88.449776,46.064869 86.350418,46.194393 
	C86.350418,47.865128 86.350418,49.236301 86.350418,50.720119 
	C88.684723,50.949192 90.742043,51.151085 92.768105,51.349907 
	C92.967300,54.060459 93.134331,56.333252 93.301361,58.606049 
	C93.806892,58.828011 94.312424,59.049969 94.817955,59.271931 
	C95.539818,58.038860 96.336502,56.842506 96.964249,55.563248 
	C97.716972,54.029331 98.325600,52.424698 99.810532,50.967377 
	C101.506355,50.174927 103.202179,49.382473 104.898003,48.590023 
	C103.266792,47.727173 101.686783,46.736229 99.982925,46.055130 
	C99.121742,45.710880 98.036499,45.927170 97.006134,45.051941 
M135.912857,76.308907 
	C135.618607,75.534187 135.324356,74.759468 134.631378,73.458214 
	C133.773514,73.391647 132.915634,73.325081 131.346313,73.507477 
	C130.888580,76.334526 130.430847,79.161575 129.313858,82.065804 
	C128.874374,82.114639 128.434891,82.163475 127.504723,82.120728 
	C127.504723,82.120728 127.013725,82.210594 126.260132,82.130463 
	C125.505424,82.177658 124.750710,82.224861 123.581413,82.283577 
	C123.290886,82.437881 123.189758,82.673508 123.155510,83.724075 
	C123.201347,84.463120 123.247185,85.202156 123.408066,86.479439 
	C123.928848,86.570045 124.449638,86.660645 125.712654,86.875542 
	C126.463188,86.851364 127.213715,86.827187 128.747162,87.059616 
	C129.464890,89.579369 130.182617,92.099121 130.931473,94.728119 
	C137.066696,95.812119 136.055557,91.612900 136.359970,87.379646 
	C138.330795,85.932419 142.991989,88.959824 142.706345,84.305344 
	C142.441925,79.996643 138.066406,83.094154 135.798340,81.590294 
	C135.798340,80.124695 135.798340,78.546059 135.912857,76.308907 
M182.760452,129.269379 
	C181.701080,124.910583 179.993149,120.968750 175.319580,119.420685 
	C170.044006,117.673210 164.139923,119.917702 161.373001,124.526062 
	C158.922546,128.607330 159.794739,136.476196 163.025787,139.437241 
	C166.908371,142.995392 176.403061,144.288223 179.871628,141.523361 
	C180.709000,140.855865 180.881714,139.354538 181.360062,138.236649 
	C180.277954,137.792831 179.218079,137.049866 178.109100,136.967392 
	C175.794556,136.795227 173.416321,137.246628 171.134186,136.932968 
	C168.519577,136.573593 166.060501,135.596512 167.657257,132.528946 
	C171.624847,132.676819 175.604385,133.044952 179.552292,132.830490 
	C180.652939,132.770721 181.660065,130.988785 182.760452,129.269379 
M60.314270,142.504776 
	C63.403244,142.313400 66.546135,142.394547 69.555183,141.799194 
	C70.793121,141.554291 72.627937,139.894058 72.678215,138.807632 
	C72.974136,132.411667 72.823799,125.995056 72.823799,119.089066 
	C69.400719,119.089066 66.622429,119.223267 63.861183,119.063271 
	C56.338974,118.627396 52.589512,121.161842 51.362980,128.037491 
	C50.223354,134.425903 52.569962,141.177658 60.314270,142.504776 
M145.087982,51.927124 
	C149.542572,51.966244 149.010315,49.233147 148.563934,45.898006 
	C144.269852,45.898006 140.337372,45.898006 135.827698,45.898006 
	C135.827698,41.076958 135.827698,36.678608 135.827698,32.303383 
	C133.630859,32.303383 132.035019,32.303383 129.876373,32.303383 
	C129.876373,36.948318 129.876373,41.346867 129.876373,46.113556 
	C125.374420,46.113556 121.433571,46.113556 117.419563,46.113556 
	C117.419563,48.214825 117.419563,49.910919 117.419563,52.038460 
	C121.708786,52.038460 125.640366,52.038460 130.142746,52.038460 
	C130.142746,56.859390 130.142746,61.255173 130.142746,65.478569 
	C134.795639,66.664413 136.229050,64.909233 135.966934,60.957291 
	C135.774048,58.048988 135.929092,55.117607 135.929092,51.928898 
	C139.214417,51.928898 141.698578,51.928898 145.087982,51.927124 
M154.045181,19.420889 
	C153.950317,20.846949 153.855438,22.273010 153.733231,24.109924 
	C149.711792,24.109924 146.111450,24.109924 141.752228,24.109924 
	C143.366699,32.445633 150.332962,26.830608 154.063995,30.091082 
	C154.063995,33.105064 154.063995,36.690716 154.063995,40.634895 
	C155.676880,40.634895 157.694565,40.825432 157.739990,40.606529 
	C158.514771,36.874508 159.045242,33.091766 159.706024,28.826567 
	C163.263840,28.826567 166.851654,28.826567 170.647751,28.826567 
	C170.647751,27.213266 170.825104,25.166342 170.621460,25.127710 
	C166.853714,24.412951 163.040512,23.937815 158.796448,23.351280 
	C158.796448,19.289766 158.796448,15.365880 158.796448,11.271869 
	C151.410126,10.455294 154.975525,15.837604 154.045181,19.420889 
M141.907791,119.505661 
	C141.903748,115.181046 142.142502,110.833748 141.742142,106.546143 
	C141.627609,105.319771 139.661819,104.266273 138.544891,103.133507 
	C137.713928,104.273964 136.176697,105.404625 136.160706,106.556396 
	C135.992249,118.696518 135.986130,130.841370 136.190384,142.980606 
	C136.212311,144.284576 137.847900,145.561386 138.734955,146.850784 
	C139.787079,145.553574 141.695663,144.290756 141.749344,142.953461 
	C142.049423,135.480042 141.901016,127.988625 141.907791,119.505661 
M101.466797,24.022902 
	C99.374512,24.022902 97.282227,24.022902 94.873299,24.022902 
	C95.118759,26.095873 95.282387,27.477804 95.484390,29.183796 
	C99.149757,29.183796 102.409485,29.183796 106.150330,29.183796 
	C106.150330,33.286758 106.150330,37.019634 106.150330,41.083988 
	C108.065552,40.880699 109.442734,40.734520 111.137764,40.554607 
	C111.137764,36.578869 111.137764,32.986492 111.137764,29.923529 
	C114.770592,26.852943 121.694290,32.587048 123.250450,23.999966 
	C118.830208,23.999966 115.092537,23.999966 110.917274,23.999966 
	C110.917274,19.728674 110.917274,15.993509 110.917274,11.975906 
	C109.046829,12.076683 107.660347,12.151384 106.007500,12.240438 
	C106.007500,15.230386 105.818932,17.878227 106.057701,20.486959 
	C106.324966,23.407070 105.152672,24.426550 101.466797,24.022902 
M169.568344,71.383102 
	C168.908676,70.604828 168.385498,69.383080 167.564117,69.130295 
	C164.959244,68.328682 161.196609,68.736374 159.854111,67.078865 
	C158.412125,65.298500 159.203171,61.709755 159.018738,58.910187 
	C158.996857,58.577919 159.087814,58.159973 158.921646,57.929165 
	C158.244202,56.988037 157.487122,56.104244 156.759369,55.199326 
	C155.911957,56.060959 154.577301,56.801182 154.325638,57.811256 
	C153.894028,59.543404 153.956482,61.462532 154.138123,63.270336 
	C154.518433,67.055428 152.819504,68.449677 149.215530,68.069817 
	C148.227875,67.965714 147.131256,67.812881 146.240341,68.125755 
	C144.887543,68.600822 143.670792,69.463295 142.396240,70.161201 
	C143.700104,71.072754 144.932236,72.634384 146.319794,72.787491 
	C153.796204,73.612511 153.809570,73.491859 154.074890,81.311493 
	C154.091827,81.810776 153.921478,82.436256 154.158539,82.785843 
	C154.882202,83.852974 155.762497,84.813904 156.581848,85.816154 
	C157.378876,84.779030 158.381897,83.834534 158.903931,82.673729 
	C159.281540,81.834099 159.151932,80.689888 159.022232,79.711502 
	C158.375671,74.834274 159.735260,72.012993 165.372116,72.885651 
	C166.544907,73.067230 167.857605,72.345154 169.568344,71.383102 
M166.730713,51.874329 
	C166.866501,53.684998 166.738144,55.573433 167.239502,57.276489 
	C167.529343,58.261116 168.834442,58.946873 169.682617,59.767143 
	C170.430176,58.928474 171.652756,58.176388 171.824738,57.232811 
	C172.165207,55.364700 171.925278,53.390804 171.925278,51.799545 
	C174.865372,50.094692 180.082581,52.800644 178.952454,46.497749 
	C176.802078,46.194202 174.600754,45.883465 172.305527,45.559467 
	C172.066360,43.039978 171.852417,40.786369 171.620743,38.345997 
	C164.239288,36.975456 168.671875,43.798313 166.183502,45.620674 
	C159.531174,46.453239 159.531174,46.453239 159.786011,50.600731 
	C161.872833,50.821510 163.992752,51.045792 166.730713,51.874329 
z"/>
<path fill="#16386D" opacity="1.000000" stroke="none" 
	d="
M1.000000,123.416664 
	C4.649927,122.993149 8.304924,122.865089 11.948190,123.017494 
	C14.904837,123.141167 16.240625,122.075623 16.070429,119.009232 
	C15.932742,116.528580 15.899225,113.994415 16.284147,111.557381 
	C16.426168,110.658180 18.000622,109.246613 18.737139,109.352516 
	C19.850376,109.512604 21.769501,110.937523 21.675882,111.582481 
	C20.433004,120.144821 22.901033,124.884903 32.566460,123.224678 
	C33.147350,123.124901 34.710110,124.788773 34.570595,125.273689 
	C34.283726,126.270828 33.180740,127.054047 32.347672,127.856865 
	C32.164860,128.033035 31.705820,127.914574 31.375454,127.946815 
	C22.054815,128.856689 22.072800,128.857422 21.853874,138.086197 
	C21.805824,140.111710 22.598398,142.723083 19.149096,142.848679 
	C15.763714,142.971985 16.169630,140.488922 16.098478,138.357910 
	C15.756443,128.114029 15.759113,128.115967 5.403024,127.927994 
	C4.240638,127.906898 3.078963,127.846588 1.458479,127.902229 
	C1.000000,126.611107 1.000000,125.222221 1.000000,123.416664 
z"/>
<path fill="#10346B" opacity="1.000000" stroke="none" 
	d="
M246.114273,141.661453 
	C245.793091,141.552780 245.539215,141.356888 245.199844,140.594406 
	C245.026794,139.746872 245.006561,139.378677 245.271332,138.885544 
	C246.338791,138.495590 247.121246,138.230606 248.059998,138.205307 
	C250.149261,138.037750 252.082260,137.630524 254.015228,137.223282 
	C254.369385,132.718750 254.479935,128.174576 255.203323,123.730148 
	C255.474518,122.063927 257.170898,120.629662 258.608734,119.044815 
	C259.000000,125.687645 259.000000,132.375290 258.689728,139.564362 
	C257.583801,140.621841 256.788147,141.177872 255.992477,141.733887 
	C255.508789,141.793915 255.025085,141.853943 254.077744,142.021835 
	C253.614090,142.129700 253.239380,142.414749 253.239380,142.414749 
	C252.003265,142.390762 250.767166,142.366791 249.027328,141.966522 
	C247.720490,141.613983 246.917389,141.637711 246.114273,141.661453 
z"/>
<path fill="#567F92" opacity="1.000000" stroke="none" 
	d="
M133.625000,0.999999 
	C134.452164,3.981821 134.904312,6.963643 135.438599,10.487125 
	C136.263626,10.757410 137.527405,11.171432 137.753525,11.245513 
	C136.743942,14.478498 136.016312,17.404984 134.885437,20.166311 
	C134.357651,21.455029 133.049179,22.424013 132.094543,23.537918 
	C131.732010,23.259754 131.369476,22.981590 131.006943,22.703426 
	C131.006943,20.450918 131.006943,18.198410 130.839844,15.228643 
	C129.127747,13.410629 127.582756,12.309872 126.037773,11.209112 
	C127.511246,11.078417 128.984711,10.947723 130.708710,10.794808 
	C130.927002,7.751974 131.138489,4.804106 131.174988,1.428119 
	C131.750000,1.000000 132.500000,1.000000 133.625000,0.999999 
z"/>
<path fill="#163261" opacity="1.000000" stroke="none" 
	d="
M256.298828,141.673370 
	C256.788147,141.177872 257.583801,140.621841 258.689728,140.032898 
	C259.000000,140.000000 259.000000,140.500000 259.000000,140.750000 
	C258.201721,141.204285 257.403473,141.408569 256.298828,141.673370 
z"/>
<path fill="#15366E" opacity="1.000000" stroke="none" 
	d="
M59.946075,142.329742 
	C52.569962,141.177658 50.223354,134.425903 51.362980,128.037491 
	C52.589512,121.161842 56.338974,118.627396 63.861183,119.063271 
	C66.622429,119.223267 69.400719,119.089066 72.823799,119.089066 
	C72.823799,125.995056 72.974136,132.411667 72.678215,138.807632 
	C72.627937,139.894058 70.793121,141.554291 69.555183,141.799194 
	C66.546135,142.394547 63.403244,142.313400 59.946075,142.329742 
M62.736729,136.987320 
	C69.482208,137.390167 66.419197,132.234573 66.981651,129.281586 
	C67.672630,125.653816 65.474579,124.237785 62.346336,125.108673 
	C60.663933,125.577042 58.300598,127.272408 58.106678,128.672134 
	C57.663315,131.872345 56.786331,135.988113 62.736729,136.987320 
z"/>
<path fill="#DA712B" opacity="1.000000" stroke="none" 
	d="
M144.635361,51.928009 
	C141.698578,51.928898 139.214417,51.928898 135.929092,51.928898 
	C135.929092,55.117607 135.774048,58.048988 135.966934,60.957291 
	C136.229050,64.909233 134.795639,66.664413 130.142746,65.478569 
	C130.142746,61.255173 130.142746,56.859390 130.142746,52.038460 
	C125.640366,52.038460 121.708786,52.038460 117.419563,52.038460 
	C117.419563,49.910919 117.419563,48.214825 117.419563,46.113556 
	C121.433571,46.113556 125.374420,46.113556 129.876373,46.113556 
	C129.876373,41.346867 129.876373,36.948318 129.876373,32.303383 
	C132.035019,32.303383 133.630859,32.303383 135.827698,32.303383 
	C135.827698,36.678608 135.827698,41.076958 135.827698,45.898006 
	C140.337372,45.898006 144.269852,45.898006 148.563934,45.898006 
	C149.010315,49.233147 149.542572,51.966244 144.635361,51.928009 
z"/>
<path fill="#14356B" opacity="1.000000" stroke="none" 
	d="
M167.001740,132.020065 
	C166.060501,135.596512 168.519577,136.573593 171.134186,136.932968 
	C173.416321,137.246628 175.794556,136.795227 178.109100,136.967392 
	C179.218079,137.049866 180.277954,137.792831 181.360077,138.236649 
	C180.881714,139.354538 180.709000,140.855865 179.871628,141.523361 
	C176.403061,144.288223 166.908371,142.995392 163.025787,139.437241 
	C159.794739,136.476196 158.922546,128.607330 161.373001,124.526062 
	C164.139923,119.917702 170.044006,117.673210 175.319580,119.420685 
	C179.993149,120.968750 181.701080,124.910583 182.438995,129.636993 
	C181.722153,130.007706 181.326767,130.010803 180.556076,130.009750 
	C178.484619,129.144836 176.866516,127.839981 175.074463,127.525177 
	C172.234024,127.026184 169.277252,127.189423 166.369690,127.072479 
	C166.583908,128.397842 166.798111,129.723190 167.009979,131.291428 
	C167.007645,131.534302 167.001740,132.020065 167.001740,132.020065 
z"/>
<path fill="#57788D" opacity="1.000000" stroke="none" 
	d="
M154.045502,18.952026 
	C154.975525,15.837604 151.410126,10.455294 158.796448,11.271869 
	C158.796448,15.365880 158.796448,19.289766 158.796448,23.351280 
	C163.040512,23.937815 166.853714,24.412951 170.621460,25.127710 
	C170.825104,25.166342 170.647751,27.213266 170.647751,28.826567 
	C166.851654,28.826567 163.263840,28.826567 159.706024,28.826567 
	C159.045242,33.091766 158.514771,36.874508 157.739990,40.606529 
	C157.694565,40.825432 155.676880,40.634895 154.063995,40.634895 
	C154.063995,36.690716 154.063995,33.105064 154.063995,30.091082 
	C150.332962,26.830608 143.366699,32.445633 141.752228,24.109924 
	C146.111450,24.109924 149.711792,24.109924 153.733231,24.109924 
	C153.855438,22.273010 153.950317,20.846949 154.045502,18.952026 
z"/>
<path fill="#18396D" opacity="1.000000" stroke="none" 
	d="
M141.906815,120.004509 
	C141.901016,127.988625 142.049423,135.480042 141.749344,142.953461 
	C141.695663,144.290756 139.787079,145.553574 138.734955,146.850784 
	C137.847900,145.561386 136.212311,144.284576 136.190384,142.980606 
	C135.986130,130.841370 135.992249,118.696518 136.160706,106.556396 
	C136.176697,105.404625 137.713928,104.273964 138.544891,103.133507 
	C139.661819,104.266273 141.627609,105.319771 141.742142,106.546143 
	C142.142502,110.833748 141.903748,115.181046 141.906815,120.004509 
z"/>
<path fill="#DF8C32" opacity="1.000000" stroke="none" 
	d="
M101.934601,24.022547 
	C105.152672,24.426550 106.324966,23.407070 106.057701,20.486959 
	C105.818932,17.878227 106.007500,15.230386 106.007500,12.240438 
	C107.660347,12.151384 109.046829,12.076683 110.917274,11.975906 
	C110.917274,15.993509 110.917274,19.728674 110.917274,23.999966 
	C115.092537,23.999966 118.830208,23.999966 123.250450,23.999966 
	C121.694290,32.587048 114.770592,26.852943 111.137764,29.923529 
	C111.137764,32.986492 111.137764,36.578869 111.137764,40.554607 
	C109.442734,40.734520 108.065552,40.880699 106.150330,41.083988 
	C106.150330,37.019634 106.150330,33.286758 106.150330,29.183796 
	C102.409485,29.183796 99.149757,29.183796 95.484390,29.183796 
	C95.282387,27.477804 95.118759,26.095873 94.873299,24.022902 
	C97.282227,24.022902 99.374512,24.022902 101.934601,24.022547 
z"/>
<path fill="#14346A" opacity="1.000000" stroke="none" 
	d="
M169.337082,71.711319 
	C167.857605,72.345154 166.544907,73.067230 165.372116,72.885651 
	C159.735260,72.012993 158.375671,74.834274 159.022232,79.711502 
	C159.151932,80.689888 159.281540,81.834099 158.903931,82.673729 
	C158.381897,83.834534 157.378876,84.779030 156.581848,85.816154 
	C155.762497,84.813904 154.882202,83.852974 154.158539,82.785843 
	C153.921478,82.436256 154.091827,81.810776 154.074890,81.311493 
	C153.809570,73.491859 153.796204,73.612511 146.319794,72.787491 
	C144.932236,72.634384 143.700104,71.072754 142.396240,70.161201 
	C143.670792,69.463295 144.887543,68.600822 146.240341,68.125755 
	C147.131256,67.812881 148.227875,67.965714 149.215530,68.069817 
	C152.819504,68.449677 154.518433,67.055428 154.138123,63.270336 
	C153.956482,61.462532 153.894028,59.543404 154.325638,57.811256 
	C154.577301,56.801182 155.911957,56.060959 156.759369,55.199326 
	C157.487122,56.104244 158.244202,56.988037 158.921646,57.929165 
	C159.087814,58.159973 158.996857,58.577919 159.018738,58.910187 
	C159.203171,61.709755 158.412125,65.298500 159.854111,67.078865 
	C161.196609,68.736374 164.959244,68.328682 167.564117,69.130295 
	C168.385498,69.383080 168.908676,70.604828 169.337082,71.711319 
z"/>
<path fill="#B41928" opacity="1.000000" stroke="none" 
	d="
M106.252739,74.996559 
	C105.315308,74.322731 104.450768,73.251991 103.424217,73.063469 
	C101.665466,72.740494 99.737450,73.266075 98.009804,72.870567 
	C96.674904,72.564964 95.537834,71.395256 94.312813,70.609711 
	C95.461304,69.760803 96.523483,68.380135 97.776749,68.176704 
	C100.183357,67.786064 102.698326,68.062981 106.068230,68.062981 
	C106.068230,64.728973 105.857872,61.653809 106.177116,58.634647 
	C106.296188,57.508583 107.652107,56.513302 108.444038,55.458382 
	C109.278671,56.477360 110.688095,57.420441 110.834648,58.530277 
	C111.199539,61.293659 110.989449,64.132965 111.359688,67.626289 
	C115.130501,68.549568 118.551826,68.788361 121.973145,69.027153 
	C121.973145,69.027153 122.001366,69.000412 122.079483,69.201523 
	C122.303070,69.636940 122.485046,69.838249 122.703522,70.006561 
	C122.741882,70.424683 122.780251,70.842804 122.352890,71.600449 
	C119.265266,72.237000 116.643356,72.534035 114.021454,72.831070 
	C113.092735,73.030434 112.164009,73.229805 110.927193,73.909058 
	C110.675514,74.916626 110.731934,75.444298 110.788361,75.971977 
	C110.834229,76.421036 110.880089,76.870102 110.718567,77.973251 
	C109.234093,80.511925 111.429405,85.290215 106.160423,83.848198 
	C106.160423,83.848198 106.080536,83.440392 106.292587,82.896912 
	C106.420670,79.901146 106.336700,77.448853 106.252739,74.996559 
z"/>
<path fill="#454F79" opacity="1.000000" stroke="none" 
	d="
M166.421692,51.572201 
	C163.992752,51.045792 161.872833,50.821510 159.786011,50.600731 
	C159.531174,46.453239 159.531174,46.453239 166.183502,45.620674 
	C168.671875,43.798313 164.239288,36.975456 171.620743,38.345997 
	C171.852417,40.786369 172.066360,43.039978 172.305527,45.559467 
	C174.600754,45.883465 176.802078,46.194202 178.952454,46.497749 
	C180.082581,52.800644 174.865372,50.094692 171.925278,51.799545 
	C171.925278,53.390804 172.165207,55.364700 171.824738,57.232811 
	C171.652756,58.176388 170.430176,58.928474 169.682617,59.767143 
	C168.834442,58.946873 167.529343,58.261116 167.239502,57.276489 
	C166.738144,55.573433 166.866501,53.684998 166.421692,51.572201 
z"/>
<path fill="#0D2C60" opacity="1.000000" stroke="none" 
	d="
M99.107803,141.601303 
	C97.820770,140.216721 95.485680,138.881042 95.418411,137.439545 
	C95.011047,128.708679 95.021698,119.951752 95.189262,111.209229 
	C95.209465,110.155510 97.015511,109.136009 97.993843,108.100655 
	C98.930397,109.336891 100.365608,110.452110 100.701042,111.834244 
	C101.428764,114.832733 99.258980,119.382957 105.667847,119.488815 
	C107.414932,121.588013 108.710716,123.289665 109.642670,124.989601 
	C106.859055,125.018044 104.439270,125.048210 102.133812,124.824448 
	C102.495697,124.074577 102.743248,123.578644 102.876793,122.783249 
	C101.520531,121.588013 100.278275,120.692253 99.036018,119.796486 
	C98.580292,119.974205 98.124573,120.151924 97.668846,120.329643 
	C98.148499,127.420197 98.628151,134.510742 99.107803,141.601303 
z"/>
<path fill="#1A407C" opacity="1.000000" stroke="none" 
	d="
M110.006500,124.991325 
	C108.710716,123.289665 107.414932,121.588013 106.093529,119.555328 
	C106.784088,119.221230 107.500267,119.218155 108.716782,119.543915 
	C111.060303,120.958435 112.903488,122.044106 114.746681,123.129784 
	C114.746681,123.129784 114.826324,123.155739 114.890312,123.488541 
	C115.539337,124.558800 116.124374,125.296257 116.709412,126.033714 
	C117.075966,127.759605 117.442528,129.485489 117.532127,131.719421 
	C117.147087,133.135910 117.039009,134.044342 116.930939,134.952789 
	C116.708733,135.481705 116.486526,136.010605 115.722443,136.842285 
	C110.458305,138.738297 105.736046,140.331573 101.013786,141.924850 
	C100.588654,141.861343 100.163521,141.797836 99.423096,141.667816 
	C98.628151,134.510742 98.148499,127.420197 97.668846,120.329643 
	C98.124573,120.151924 98.580292,119.974205 99.036018,119.796486 
	C100.278275,120.692253 101.520531,121.588013 102.516808,122.885452 
	C100.070602,125.620110 98.790962,135.289093 100.805588,137.289749 
	C101.498680,137.978043 103.584915,137.263458 105.401321,137.149292 
	C106.503937,137.124985 107.239967,137.141113 108.093582,137.368134 
	C111.666809,137.595062 111.666809,137.595062 113.167809,132.757233 
	C113.527405,132.060150 113.711090,131.565109 113.892624,130.713486 
	C113.882256,129.881592 113.874039,129.406265 113.741714,128.769485 
	C113.437920,128.401367 113.235275,128.220413 112.901154,127.766266 
	C111.864960,126.643318 110.937279,125.819298 110.004959,124.997910 
	C110.000320,125.000549 110.006500,124.991325 110.006500,124.991325 
z"/>
<path fill="#183F7F" opacity="1.000000" stroke="none" 
	d="
M211.001648,119.261208 
	C211.430649,119.237762 211.859650,119.214317 212.567947,119.543564 
	C211.408035,121.164429 210.052399,122.546196 208.513214,123.678459 
	C204.613403,126.547256 203.701157,132.522125 206.678955,136.371017 
	C209.539429,140.068298 214.120026,140.317963 216.968918,136.964615 
	C216.997879,136.998932 216.930206,136.939468 217.267365,136.765182 
	C219.910446,132.338150 219.727448,128.225250 217.161560,124.094620 
	C216.469452,122.980461 216.358673,121.505180 215.981064,120.195656 
	C216.153961,120.173851 216.326843,120.152046 217.026978,120.070023 
	C218.049438,119.815712 218.544693,119.621613 219.039932,119.427521 
	C219.425095,119.390251 219.810257,119.352974 220.535553,119.787827 
	C220.865112,126.798943 220.854568,133.337921 220.460251,139.992981 
	C214.951065,139.872269 209.825653,139.635468 204.700241,139.398666 
	C204.700241,139.398666 204.610535,139.398300 204.634216,138.999542 
	C203.518417,137.046844 202.378937,135.492905 201.239441,133.938950 
	C201.218613,131.934982 201.197784,129.931000 201.524124,127.368454 
	C204.914749,124.293655 207.958206,121.777435 211.001648,119.261208 
z"/>
<path fill="#495782" opacity="1.000000" stroke="none" 
	d="
M127.964249,86.803009 
	C127.213715,86.827187 126.463188,86.851364 125.157791,86.665108 
	C124.166298,86.283516 123.729660,86.112358 123.293030,85.941208 
	C123.247185,85.202156 123.201347,84.463120 123.356354,83.258804 
	C123.733070,82.644623 123.879341,82.470802 123.996002,82.272057 
	C124.750710,82.224861 125.505424,82.177658 126.750977,82.240501 
	C127.241829,82.350540 127.635567,82.376343 127.635567,82.376343 
	C127.635567,82.376343 127.995407,82.212311 127.995407,82.212311 
	C128.434891,82.163475 128.874374,82.114639 129.970642,81.852592 
	C131.104218,78.845764 131.580994,76.052147 132.057770,73.258522 
	C132.915634,73.325081 133.773514,73.391647 134.837463,74.035393 
	C135.295151,75.397522 135.546753,76.182480 135.798340,76.967430 
	C135.798340,78.546059 135.798340,80.124695 135.798340,81.590294 
	C138.066406,83.094154 142.441925,79.996643 142.706345,84.305344 
	C142.991989,88.959824 138.330795,85.932419 135.943680,87.990349 
	C134.890854,89.859802 134.254318,91.118546 133.617783,92.377289 
	C132.258575,90.634537 132.197937,89.178047 131.713867,87.879387 
	C131.025558,86.032784 129.967575,84.511551 127.964249,86.803009 
z"/>
<path fill="#587F8F" opacity="1.000000" stroke="none" 
	d="
M98.996628,50.850685 
	C98.325600,52.424698 97.716972,54.029331 96.964249,55.563248 
	C96.336502,56.842506 95.539818,58.038860 94.817955,59.271931 
	C94.312424,59.049969 93.806892,58.828011 93.301361,58.606049 
	C93.134331,56.333252 92.967300,54.060459 92.768105,51.349907 
	C90.742043,51.151085 88.684723,50.949192 86.350418,50.720119 
	C86.350418,49.236301 86.350418,47.865128 86.350418,46.194393 
	C88.449776,46.064869 90.384178,45.945522 92.403358,45.820942 
	C92.954155,43.144932 93.478004,40.599857 94.001846,38.054783 
	C94.666489,38.041332 95.331131,38.027885 95.995781,38.014439 
	C96.332565,40.360271 96.669350,42.706108 96.978401,45.732613 
	C97.632652,47.892418 98.314636,49.371552 98.996628,50.850685 
z"/>
<path fill="#0F2F63" opacity="1.000000" stroke="none" 
	d="
M215.782913,119.911613 
	C216.358673,121.505180 216.469452,122.980461 217.161560,124.094620 
	C219.727448,128.225250 219.910446,132.338150 217.287506,136.312622 
	C216.976852,134.047775 216.914917,132.058060 217.005341,130.075302 
	C217.145309,127.006302 216.428619,125.012451 212.699234,124.989166 
	C209.200119,124.967323 207.447632,126.431999 207.039536,129.778305 
	C206.357208,135.373337 208.706665,137.070694 216.939957,136.930298 
	C214.120026,140.317963 209.539429,140.068298 206.678955,136.371017 
	C203.701157,132.522125 204.613403,126.547256 208.513214,123.678459 
	C210.052399,122.546196 211.408035,121.164429 212.889679,119.564590 
	C213.816315,119.364471 214.700546,119.496017 215.782913,119.911613 
z"/>
<path fill="#163261" opacity="1.000000" stroke="none" 
	d="
M244.986313,139.010498 
	C245.006561,139.378677 245.026794,139.746872 245.068710,140.388397 
	C240.459061,140.623291 240.605026,136.713684 240.204391,133.912994 
	C239.669113,130.170929 239.789398,126.274765 240.162979,122.497681 
	C240.283768,121.276360 242.089386,120.221672 243.124313,119.090759 
	C244.385376,120.284363 246.558624,121.358498 246.733551,122.694328 
	C247.224609,126.444252 246.891830,130.302063 246.521637,134.356323 
	C245.497589,130.275726 244.835892,125.956146 244.174179,121.636559 
	C243.671082,121.702103 243.167999,121.767647 242.664902,121.833191 
	C243.275513,127.573105 241.090378,133.555374 244.986313,139.010498 
z"/>
<path fill="#1A3F7F" opacity="1.000000" stroke="none" 
	d="
M245.271332,138.885544 
	C241.090378,133.555374 243.275513,127.573105 242.664902,121.833191 
	C243.167999,121.767647 243.671082,121.702103 244.174179,121.636559 
	C244.835892,125.956146 245.497589,130.275726 246.456177,134.821198 
	C246.972427,135.644928 247.191772,136.242783 247.663055,137.218506 
	C247.914978,137.596375 247.903702,137.965607 247.903702,137.965607 
	C247.121246,138.230606 246.338791,138.495590 245.271332,138.885544 
z"/>
<path fill="#40486E" opacity="1.000000" stroke="none" 
	d="
M128.355713,86.931305 
	C129.967575,84.511551 131.025558,86.032784 131.713867,87.879387 
	C132.197937,89.178047 132.258575,90.634537 133.617783,92.377289 
	C134.254318,91.118546 134.890854,89.859802 135.691650,88.312210 
	C136.055557,91.612900 137.066696,95.812119 130.931473,94.728119 
	C130.182617,92.099121 129.464890,89.579369 128.355713,86.931305 
z"/>
<path fill="#193A6F" opacity="1.000000" stroke="none" 
	d="
M167.329498,132.274506 
	C167.001740,132.020065 167.007645,131.534302 167.471130,131.275696 
	C172.266861,130.682678 176.599136,130.348282 180.931396,130.013901 
	C181.326767,130.010803 181.722153,130.007706 182.413803,130.000763 
	C181.660065,130.988785 180.652939,132.770721 179.552292,132.830490 
	C175.604385,133.044952 171.624847,132.676819 167.329498,132.274506 
z"/>
<path fill="#638590" opacity="1.000000" stroke="none" 
	d="
M99.403580,50.909031 
	C98.314636,49.371552 97.632652,47.892418 97.001617,46.151649 
	C98.036499,45.927170 99.121742,45.710880 99.982925,46.055130 
	C101.686783,46.736229 103.266792,47.727173 104.898003,48.590019 
	C103.202179,49.382473 101.506355,50.174927 99.403580,50.909031 
z"/>
<path fill="#0D2C60" opacity="1.000000" stroke="none" 
	d="
M101.295090,142.208466 
	C105.736046,140.331573 110.458305,138.738297 115.506393,137.034943 
	C113.768608,141.881470 109.148987,143.685532 101.295090,142.208466 
z"/>
<path fill="#021B5E" opacity="1.000000" stroke="none" 
	d="
M220.844025,139.876907 
	C220.854568,133.337921 220.865112,126.798943 220.824585,119.822556 
	C224.756378,124.759453 221.915894,130.724518 222.221130,136.414856 
	C222.290848,137.714386 222.057938,139.030182 221.664368,140.438721 
	C221.178940,140.327713 221.005478,140.107025 220.844025,139.876907 
z"/>
<path fill="#0F2F63" opacity="1.000000" stroke="none" 
	d="
M220.460251,139.992981 
	C221.005478,140.107025 221.178940,140.327713 221.514313,140.678986 
	C215.939148,144.178802 210.400681,143.687897 204.858398,139.705505 
	C209.825653,139.635468 214.951065,139.872269 220.460251,139.992981 
z"/>
<path fill="#0F2F63" opacity="1.000000" stroke="none" 
	d="
M210.622375,119.185852 
	C207.958206,121.777435 204.914749,124.293655 201.579956,126.942513 
	C202.411957,122.327423 204.970779,119.193573 210.622375,119.185852 
z"/>
<path fill="#496F7C" opacity="1.000000" stroke="none" 
	d="
M125.647797,11.150306 
	C127.582756,12.309872 129.127747,13.410629 130.806641,14.815750 
	C129.119186,15.053793 127.263725,15.171367 125.491096,14.842505 
	C124.622711,14.681401 123.908211,13.690886 123.124062,13.075752 
	C123.835312,12.414333 124.546570,11.752915 125.647797,11.150306 
z"/>
<path fill="#40486E" opacity="1.000000" stroke="none" 
	d="
M131.702057,73.382996 
	C131.580994,76.052147 131.104218,78.845764 130.300278,81.814003 
	C130.430847,79.161575 130.888580,76.334526 131.702057,73.382996 
z"/>
<path fill="#A52333" opacity="1.000000" stroke="none" 
	d="
M106.159645,84.250641 
	C111.429405,85.290215 109.234093,80.511925 110.668289,78.308929 
	C110.825386,80.400253 110.825386,82.809975 110.825386,86.308655 
	C108.959290,85.646606 107.559082,85.149841 106.159645,84.250641 
z"/>
<path fill="#0D2C60" opacity="1.000000" stroke="none" 
	d="
M114.719070,122.789886 
	C112.903488,122.044106 111.060303,120.958435 109.072929,119.591255 
	C110.849655,120.356506 112.770561,121.403252 114.719070,122.789886 
z"/>
<path fill="#9B252E" opacity="1.000000" stroke="none" 
	d="
M121.721642,68.693848 
	C118.551826,68.788361 115.130501,68.549568 111.382477,68.073120 
	C114.527229,68.010490 117.998680,68.185509 121.721642,68.693848 
z"/>
<path fill="#0F2F63" opacity="1.000000" stroke="none" 
	d="
M201.215820,134.284302 
	C202.378937,135.492905 203.518417,137.046844 204.626892,138.955292 
	C203.461319,137.749756 202.326752,136.189713 201.215820,134.284302 
z"/>
<path fill="#163261" opacity="1.000000" stroke="none" 
	d="
M248.059998,138.205292 
	C247.903702,137.965607 247.914978,137.596375 247.920502,137.411896 
	C249.728928,137.277557 251.531845,137.327698 253.675003,137.300568 
	C252.082260,137.630524 250.149261,138.037750 248.059998,138.205292 
z"/>
<path fill="#9B252E" opacity="1.000000" stroke="none" 
	d="
M114.449913,72.895386 
	C116.643356,72.534035 119.265266,72.237000 122.299713,71.912018 
	C120.100960,72.242607 117.489670,72.601158 114.449913,72.895386 
z"/>
<path fill="#A52333" opacity="1.000000" stroke="none" 
	d="
M106.175949,75.437134 
	C106.336700,77.448853 106.420670,79.901146 106.338226,82.694206 
	C106.147598,80.649216 106.123383,78.263466 106.175949,75.437134 
z"/>
<path fill="#0D2C60" opacity="1.000000" stroke="none" 
	d="
M117.196503,134.754272 
	C117.039009,134.044342 117.147087,133.135910 117.490044,132.107025 
	C117.637299,132.842972 117.549683,133.699371 117.196503,134.754272 
z"/>
<path fill="#0D2C60" opacity="1.000000" stroke="none" 
	d="
M116.732513,125.723900 
	C116.124374,125.296257 115.539337,124.558800 114.903961,123.528137 
	C115.487617,123.961319 116.121613,124.687698 116.732513,125.723900 
z"/>
<path fill="#163261" opacity="1.000000" stroke="none" 
	d="
M246.461578,141.745758 
	C246.917389,141.637711 247.720490,141.613983 248.734253,141.727676 
	C248.232895,141.853409 247.520874,141.841736 246.461578,141.745758 
z"/>
<path fill="#40486E" opacity="1.000000" stroke="none" 
	d="
M135.855591,76.638168 
	C135.546753,76.182480 135.295151,75.397522 135.036835,74.298660 
	C135.324356,74.759468 135.618607,75.534187 135.855591,76.638168 
z"/>
<path fill="#021B5E" opacity="1.000000" stroke="none" 
	d="
M218.759232,119.391838 
	C218.544693,119.621613 218.049438,119.815712 217.284363,120.024536 
	C217.502533,119.811562 217.990524,119.583862 218.759232,119.391838 
z"/>
<path fill="#A52333" opacity="1.000000" stroke="none" 
	d="
M110.856369,75.651924 
	C110.731934,75.444298 110.675514,74.916626 110.730598,74.210342 
	C110.869530,74.465118 110.896957,74.898499 110.856369,75.651924 
z"/>
<path fill="#40486E" opacity="1.000000" stroke="none" 
	d="
M123.350548,86.210327 
	C123.729660,86.112358 124.166298,86.283516 124.786682,86.602959 
	C124.449638,86.660645 123.928848,86.570045 123.350548,86.210327 
z"/>
<path fill="#9B252E" opacity="1.000000" stroke="none" 
	d="
M122.708893,69.775536 
	C122.485046,69.838249 122.303070,69.636940 122.069366,69.218475 
	C122.315186,69.075493 122.559563,69.245560 122.708893,69.775536 
z"/>
<path fill="#40486E" opacity="1.000000" stroke="none" 
	d="
M123.788712,82.277817 
	C123.879341,82.470802 123.733070,82.644623 123.417610,82.891998 
	C123.189758,82.673508 123.290886,82.437881 123.788712,82.277817 
z"/>
<path fill="#40486E" opacity="1.000000" stroke="none" 
	d="
M127.750061,82.166519 
	C127.995407,82.212311 127.635567,82.376343 127.635567,82.376343 
	C127.635567,82.376343 127.241829,82.350540 127.127777,82.280563 
	C127.013725,82.210594 127.504723,82.120728 127.750061,82.166519 
z"/>
<path fill="#163261" opacity="1.000000" stroke="none" 
	d="
M253.367920,142.407913 
	C253.239380,142.414749 253.614090,142.129700 253.714859,142.067352 
	C253.765457,142.182495 253.659073,142.314514 253.367920,142.407913 
z"/>
<path fill="#000000" opacity="1.000000" stroke="none" 
	d="
M62.306797,136.971588 
	C56.786331,135.988113 57.663315,131.872345 58.106678,128.672134 
	C58.300598,127.272408 60.663933,125.577042 62.346336,125.108673 
	C65.474579,124.237785 67.672630,125.653816 66.981651,129.281586 
	C66.419197,132.234573 69.482208,137.390167 62.306797,136.971588 
z"/>
<path fill="#043069" opacity="1.000000" stroke="none" 
	d="
M180.556076,130.009750 
	C176.599136,130.348282 172.266861,130.682678 167.473450,131.032806 
	C166.798111,129.723190 166.583908,128.397842 166.369690,127.072479 
	C169.277252,127.189423 172.234024,127.026184 175.074463,127.525177 
	C176.866516,127.839981 178.484619,129.144836 180.556076,130.009750 
z"/>
<path fill="#000000" opacity="1.000000" stroke="none" 
	d="
M107.975990,137.157242 
	C107.239967,137.141113 106.503937,137.124985 105.001434,137.046692 
	C103.463280,135.778366 102.175179,134.632187 102.026688,133.353653 
	C101.710556,130.631653 101.986305,127.840935 102.019478,125.078384 
	C104.439270,125.048210 106.859055,125.018044 109.642670,124.989601 
	C110.006500,124.991325 110.000320,125.000549 110.044754,125.363686 
	C112.290421,130.074142 112.463921,134.046585 107.975990,137.157242 
z"/>
<path fill="#0C2B64" opacity="1.000000" stroke="none" 
	d="
M102.133812,124.824448 
	C101.986305,127.840935 101.710556,130.631653 102.026688,133.353653 
	C102.175179,134.632187 103.463280,135.778366 104.634842,137.087128 
	C103.584915,137.263458 101.498680,137.978043 100.805588,137.289749 
	C98.790962,135.289093 100.070602,125.620110 102.630814,123.184914 
	C102.743248,123.578644 102.495697,124.074577 102.133812,124.824448 
z"/>
<path fill="#0D2C60" opacity="1.000000" stroke="none" 
	d="
M108.093582,137.368134 
	C112.463921,134.046585 112.290421,130.074142 110.049385,125.361053 
	C110.937279,125.819298 111.864960,126.643318 113.034424,127.919952 
	C113.459351,128.572845 113.655891,128.758972 113.865822,128.930939 
	C113.874039,129.406265 113.882256,129.881592 113.737473,130.925095 
	C113.386948,131.981934 113.189423,132.470612 112.991898,132.959274 
	C111.666809,137.595062 111.666809,137.595062 108.093582,137.368134 
z"/>
<path fill="#0C2B64" opacity="1.000000" stroke="none" 
	d="
M113.167809,132.757233 
	C113.189423,132.470612 113.386948,131.981934 113.739624,131.281662 
	C113.711090,131.565109 113.527405,132.060150 113.167809,132.757233 
z"/>
<path fill="#0C2B64" opacity="1.000000" stroke="none" 
	d="
M113.741714,128.769485 
	C113.655891,128.758972 113.459351,128.572845 113.142929,128.218872 
	C113.235275,128.220413 113.437920,128.401367 113.741714,128.769485 
z"/>
<path fill="#000000" opacity="1.000000" stroke="none" 
	d="
M216.968918,136.964615 
	C208.706665,137.070694 206.357208,135.373337 207.039536,129.778305 
	C207.447632,126.431999 209.200119,124.967323 212.699234,124.989166 
	C216.428619,125.012451 217.145309,127.006302 217.005341,130.075302 
	C216.914917,132.058060 216.976852,134.047775 216.950363,136.486908 
	C216.930206,136.939468 216.997879,136.998932 216.968918,136.964615 
z"/>
</svg>