<svg version="1.1" id="Layer_1" xmlns="http://www.w3.org/2000/svg" xmlns:xlink="http://www.w3.org/1999/xlink" x="0px" y="0px"
	 width="100%" viewBox="0 0 155 148" enable-background="new 0 0 155 148" xml:space="preserve">
<path fill="#000000" opacity="1.000000" stroke="none" 
	d="
M79.000000,1.000000 
	C104.629448,1.000000 130.258896,1.000000 155.944168,1.000000 
	C155.944168,50.224510 155.944168,99.449097 155.944168,149.000000 
	C130.646698,149.000000 105.292007,149.000000 79.116577,148.771118 
	C79.519257,147.537872 80.638229,146.357346 81.984024,145.559372 
	C88.119354,141.921417 94.318428,138.390961 100.965546,134.806763 
	C101.624466,133.510788 101.972221,132.230316 101.975563,130.948975 
	C102.007568,118.696693 101.981323,106.444260 102.260635,94.156563 
	C103.035355,94.355995 103.521233,94.590729 104.243576,94.901108 
	C104.480042,94.976753 104.970047,95.056984 105.128052,95.371437 
	C110.310249,98.463669 115.334450,101.241440 120.974373,104.359642 
	C120.974373,96.671448 120.685509,89.750313 121.069244,82.866676 
	C121.356529,77.713425 120.707542,73.629814 114.730011,72.119827 
	C114.521698,72.032829 114.077362,71.952713 113.932678,71.636375 
	C111.544266,70.193741 109.300537,69.067451 107.030693,67.970291 
	C107.004578,67.999435 107.050346,67.937828 106.925247,67.651917 
	C106.206024,67.306396 105.611916,67.246796 104.786507,67.114304 
	C104.555214,67.041405 104.074463,66.977310 103.994873,66.731674 
	C103.618065,66.385201 103.320839,66.284363 102.672363,66.003410 
	C101.799103,60.280952 101.277084,54.738613 100.723106,48.856991 
	C102.811111,49.455765 103.877281,49.761509 104.962479,50.042282 
	C104.981514,50.017307 104.930626,50.053024 105.049683,50.351494 
	C106.085411,51.094643 107.002090,51.539322 107.921173,52.031696 
	C107.923576,52.079391 108.019058,52.077263 108.161674,52.385361 
	C110.504295,53.789867 112.704300,54.886276 114.908905,56.042995 
	C114.913498,56.103302 115.034317,56.097366 115.080482,56.315998 
	C115.126648,56.534630 115.450478,56.839565 115.450478,56.839565 
	C115.450478,56.839565 115.890625,56.776131 116.166718,56.867233 
	C116.632507,56.998188 116.822189,57.038044 117.077240,57.309189 
	C117.333458,57.828590 117.600647,57.991955 117.945549,58.046356 
	C117.946915,58.062141 117.975479,58.075863 118.108185,58.387703 
	C120.156967,59.734814 122.073029,60.770092 124.313866,61.955307 
	C128.161926,64.285561 131.607162,66.613609 135.262177,68.544594 
	C136.201782,69.041000 137.802261,68.286461 139.468140,67.871765 
	C139.887695,58.573738 139.973877,49.510441 139.944901,40.447517 
	C139.941177,39.280933 139.340118,38.116264 139.005829,36.977570 
	C138.995911,37.004433 139.052994,36.999794 138.949280,36.702553 
	C138.453583,36.328941 138.061584,36.252579 137.387238,35.943733 
	C135.446960,34.716080 133.855453,33.579739 132.114685,32.760609 
	C129.815979,31.678934 127.400246,30.845951 124.878403,29.595997 
	C121.837624,27.827322 118.953255,26.368715 115.989609,24.669415 
	C115.623207,24.270901 115.336090,24.113077 115.025772,23.973701 
	C115.002586,23.992151 115.040817,23.945551 114.976730,23.704704 
	C114.724709,23.146248 114.446266,22.990625 114.081688,22.937496 
	C114.086067,22.878004 113.971352,22.845232 113.808960,22.539246 
	C110.089050,20.437536 106.531532,18.641811 102.925629,16.634840 
	C102.708710,16.143948 102.461899,16.020588 102.130882,15.954977 
	C102.124962,15.856440 101.927551,15.859426 101.895805,15.661018 
	C101.708061,15.164393 101.480331,15.092238 100.862411,15.146730 
	C100.333588,14.975111 100.123230,14.902908 99.749588,14.531351 
	C94.563515,11.747653 89.400192,9.502540 84.580772,6.671922 
	C82.372009,5.374638 80.839302,2.926322 79.000000,1.000000 
z"/>
<path fill="#000000" opacity="1.000000" stroke="none" 
	d="
M68.000000,149.000000 
	C45.701359,149.000000 23.402714,149.000000 1.052035,149.000000 
	C1.052035,99.778030 1.052035,50.555996 1.052035,1.000000 
	C23.019770,1.000000 45.041225,1.000000 67.887337,1.234440 
	C68.127388,1.997200 67.612999,2.645246 66.947472,3.035603 
	C58.925121,7.740996 50.880421,12.408292 42.528534,17.210337 
	C31.890974,23.285179 21.566422,29.235203 10.923667,35.139606 
	C10.337629,35.409580 10.069796,35.725178 9.659463,36.058495 
	C9.516965,36.076221 9.254502,36.192814 8.955773,36.141296 
	C8.429914,36.389290 8.202785,36.688805 7.988140,36.994312 
	C8.000625,37.000305 7.980451,36.981144 7.623183,37.225143 
	C7.265915,48.165657 7.265915,58.862171 7.265915,70.170959 
	C8.390125,69.696579 9.299021,69.313057 10.511248,68.775726 
	C21.879356,62.096622 32.944130,55.571316 44.401756,49.233280 
	C44.874279,75.976257 45.088272,102.532898 44.903633,129.086777 
	C44.872242,133.601135 46.567871,135.797806 50.254200,137.684265 
	C56.293285,140.774719 62.132683,144.256638 68.020821,147.635284 
	C68.211975,147.744965 68.015678,148.529861 68.000000,149.000000 
z"/>
<path fill="#FC8305" opacity="1.000000" stroke="none" 
	d="
M42.841545,17.085518 
	C50.880421,12.408292 58.925121,7.740996 66.947472,3.035603 
	C67.612999,2.645246 68.127388,1.997200 68.355995,1.234440 
	C68.750000,1.000000 69.500000,1.000000 70.473709,1.359398 
	C70.785728,4.561724 70.949333,7.404605 70.951088,10.247585 
	C70.979507,56.498383 70.987442,102.749191 71.000000,149.000000 
	C70.250000,149.000000 69.500000,149.000000 68.375000,149.000000 
	C68.015678,148.529861 68.211975,147.744965 68.020821,147.635284 
	C62.132683,144.256638 56.293285,140.774719 50.254200,137.684265 
	C46.567871,135.797806 44.872242,133.601135 44.903633,129.086777 
	C45.088272,102.532898 44.874279,75.976257 44.236267,48.883259 
	C43.119053,45.786957 42.079693,43.225842 42.090847,40.669315 
	C42.125149,32.807106 42.561466,24.946653 42.841545,17.085518 
z"/>
<path fill="#FD8D05" opacity="1.000000" stroke="none" 
	d="
M100.494583,134.821854 
	C94.318428,138.390961 88.119354,141.921417 81.984024,145.559372 
	C80.638229,146.357346 79.519257,147.537872 78.647919,148.771118 
	C77.933327,149.000000 76.866661,149.000000 75.676239,148.597641 
	C75.381279,146.233673 75.062225,144.272202 75.060532,142.310455 
	C75.019760,95.206985 75.012955,48.103489 75.000000,1.000000 
	C76.066673,1.000000 77.133339,1.000000 78.600006,1.000000 
	C80.839302,2.926322 82.372009,5.374638 84.580772,6.671922 
	C89.400192,9.502540 94.563515,11.747653 99.362671,14.581564 
	C95.745216,14.912807 94.375511,15.905593 94.485985,19.962963 
	C94.782669,30.859961 94.140755,41.779919 94.216339,52.688374 
	C94.227486,54.297302 95.751930,56.594120 97.208321,57.342358 
	C99.852676,58.700935 99.901443,59.491180 98.084091,61.687691 
	C96.636086,63.437790 95.302261,65.774948 95.092613,67.964020 
	C94.481018,74.350204 94.147675,80.804504 94.389633,87.206238 
	C94.464310,89.182060 96.736061,91.074852 98.140976,93.281937 
	C99.124115,94.373070 99.968102,95.187935 100.830994,96.375229 
	C100.814957,97.491920 100.780022,98.236191 100.408340,99.034714 
	C96.228325,101.990303 96.499481,106.623955 100.757988,110.462692 
	C100.784004,116.281876 100.761993,121.635681 100.421021,127.044449 
	C99.506172,127.769608 98.910278,128.439819 98.314384,129.110016 
	C99.148254,129.744202 99.982117,130.378372 100.852188,131.395370 
	C100.757118,132.792740 100.625854,133.807297 100.494583,134.821854 
z"/>
<path fill="#000000" opacity="1.000000" stroke="none" 
	d="
M74.600006,1.000000 
	C75.012955,48.103489 75.019760,95.206985 75.060532,142.310455 
	C75.062225,144.272202 75.381279,146.233673 75.276245,148.597641 
	C73.933327,149.000000 72.866661,149.000000 71.399994,149.000000 
	C70.987442,102.749191 70.979507,56.498383 70.951088,10.247585 
	C70.949333,7.404605 70.785728,4.561724 70.848709,1.359398 
	C72.066673,1.000000 73.133339,1.000000 74.600006,1.000000 
z"/>
<path fill="#FC9305" opacity="1.000000" stroke="none" 
	d="
M98.001839,93.005661 
	C96.736061,91.074852 94.464310,89.182060 94.389633,87.206238 
	C94.147675,80.804504 94.481018,74.350204 95.092613,67.964020 
	C95.302261,65.774948 96.636086,63.437790 98.084091,61.687691 
	C99.901443,59.491180 99.852676,58.700935 97.208321,57.342358 
	C95.751930,56.594120 94.227486,54.297302 94.216339,52.688374 
	C94.140755,41.779919 94.782669,30.859961 94.485985,19.962963 
	C94.375511,15.905593 95.745216,14.912807 99.525948,14.880919 
	C100.123230,14.902908 100.333588,14.975111 100.960709,15.277085 
	C101.535332,15.664151 101.718689,15.781674 101.927551,15.859426 
	C101.927551,15.859426 102.124962,15.856440 102.245102,16.112030 
	C102.537399,16.566250 102.740318,16.725739 102.974014,16.846085 
	C106.531532,18.641811 110.089050,20.437536 113.425720,22.580116 
	C111.016174,22.582760 108.827492,22.238546 106.059509,21.803225 
	C107.791023,25.326210 108.257698,28.202814 104.943451,28.639517 
	C104.943451,36.134293 104.943451,43.100773 104.943451,50.067253 
	C103.877281,49.761509 102.811111,49.455765 100.723106,48.856991 
	C101.277084,54.738613 101.799103,60.280952 102.832535,66.154861 
	C103.569023,66.677483 103.812523,66.841118 104.074463,66.977310 
	C104.074463,66.977310 104.555214,67.041405 105.013977,67.269928 
	C105.998611,67.644905 106.524475,67.791367 107.050346,67.937828 
	C107.050346,67.937828 107.004578,67.999435 107.133018,68.302261 
	C109.533424,69.720963 111.805389,70.836838 114.077362,71.952713 
	C114.077362,71.952713 114.521698,72.032829 114.707802,72.506721 
	C114.933525,75.531700 113.914307,79.149200 115.209778,80.435455 
	C119.218803,84.416000 118.384064,89.284897 118.831253,93.867615 
	C118.982826,95.420921 117.355888,97.147774 116.541702,98.795326 
	C114.816727,97.682533 112.776230,96.854240 111.449265,95.382568 
	C109.904503,93.669373 108.984299,91.393013 107.680756,89.169472 
	C106.532570,91.663269 105.751305,93.360123 104.970047,95.056984 
	C104.970047,95.056984 104.480042,94.976753 104.146568,94.585716 
	C101.876007,93.798340 99.938927,93.402000 98.001839,93.005661 
M113.089920,87.313545 
	C113.053879,87.110359 113.017838,86.907173 112.981796,86.703987 
	C112.933342,86.904137 112.884880,87.104286 113.089920,87.313545 
z"/>
<path fill="#FD9802" opacity="1.000000" stroke="none" 
	d="
M104.962479,50.042282 
	C104.943451,43.100773 104.943451,36.134293 104.943451,28.639517 
	C108.257698,28.202814 107.791023,25.326210 106.059509,21.803225 
	C108.827492,22.238546 111.016174,22.582760 113.588104,22.886103 
	C113.971352,22.845232 114.086067,22.878004 114.218353,23.118744 
	C114.551964,23.588671 114.782028,23.784027 115.040817,23.945551 
	C115.040817,23.945551 115.002586,23.992151 115.172577,24.157845 
	C115.554245,24.556746 115.796349,24.752270 116.068886,24.910107 
	C118.953255,26.368715 121.837624,27.827322 124.960709,29.919960 
	C126.623764,39.783459 126.758087,48.956425 123.566818,58.001465 
	C121.416084,58.025513 119.695778,58.050686 117.975479,58.075863 
	C117.975479,58.075863 117.946915,58.062141 117.813904,57.864388 
	C117.488533,57.435551 117.265526,57.239307 117.011879,57.077896 
	C116.822189,57.038044 116.632507,56.998188 116.047279,56.728073 
	C115.469772,56.327591 115.263962,56.194107 115.034317,56.097366 
	C115.034317,56.097366 114.913498,56.103302 114.812325,55.718185 
	C112.480453,54.247803 110.249756,53.162533 108.019058,52.077263 
	C108.019058,52.077263 107.923576,52.079391 107.813217,51.727577 
	C106.778786,50.934853 105.854706,50.493938 104.930626,50.053024 
	C104.930626,50.053024 104.981514,50.017307 104.962479,50.042282 
z"/>
<path fill="#FC9F07" opacity="1.000000" stroke="none" 
	d="
M123.997253,58.002594 
	C126.758087,48.956425 126.623764,39.783459 125.117126,30.230026 
	C127.400246,30.845951 129.815979,31.678934 132.114685,32.760609 
	C133.855453,33.579739 135.446960,34.716080 137.585358,36.136673 
	C138.394867,36.707989 138.723938,36.853889 139.052994,36.999794 
	C139.052994,36.999794 138.995911,37.004433 138.951950,37.446800 
	C138.971710,47.961643 139.035431,58.034122 139.099152,68.106598 
	C137.802261,68.286461 136.201782,69.041000 135.262177,68.544594 
	C131.607162,66.613609 128.161926,64.285561 124.317619,61.575027 
	C123.996826,60.030735 123.997040,59.016663 123.997253,58.002594 
z"/>
<path fill="#F9980B" opacity="1.000000" stroke="none" 
	d="
M105.128052,95.371437 
	C105.751305,93.360123 106.532570,91.663269 107.680756,89.169472 
	C108.984299,91.393013 109.904503,93.669373 111.449265,95.382568 
	C112.776230,96.854240 114.816727,97.682533 116.541702,98.795326 
	C117.355888,97.147774 118.982826,95.420921 118.831253,93.867615 
	C118.384064,89.284897 119.218803,84.416000 115.209778,80.435455 
	C113.914307,79.149200 114.933525,75.531700 114.916122,72.593719 
	C120.707542,73.629814 121.356529,77.713425 121.069244,82.866676 
	C120.685509,89.750313 120.974373,96.671448 120.974373,104.359642 
	C115.334450,101.241440 110.310249,98.463669 105.128052,95.371437 
z"/>
<path fill="#E2A34B" opacity="1.000000" stroke="none" 
	d="
M100.965546,134.806763 
	C100.625854,133.807297 100.757118,132.792740 100.894188,130.993530 
	C100.846649,129.135757 100.793320,128.062622 100.739983,126.989494 
	C100.761993,121.635681 100.784004,116.281876 100.819641,110.008347 
	C100.803879,105.719231 100.774483,102.349846 100.745087,98.980453 
	C100.780022,98.236191 100.814957,97.491920 100.942154,96.123695 
	C101.346878,95.063782 101.659340,94.627823 101.971794,94.191872 
	C101.981323,106.444260 102.007568,118.696693 101.975563,130.948975 
	C101.972221,132.230316 101.624466,133.510788 100.965546,134.806763 
z"/>
<path fill="#DFA553" opacity="1.000000" stroke="none" 
	d="
M139.468140,67.871758 
	C139.035431,58.034122 138.971710,47.961643 138.961884,37.419937 
	C139.340118,38.116264 139.941177,39.280933 139.944901,40.447517 
	C139.973877,49.510441 139.887695,58.573738 139.468140,67.871758 
z"/>
<path fill="#FA9408" opacity="1.000000" stroke="none" 
	d="
M102.260635,94.156563 
	C101.659340,94.627823 101.346878,95.063782 100.923264,95.751266 
	C99.968102,95.187935 99.124115,94.373070 98.140976,93.281937 
	C99.938927,93.402000 101.876007,93.798340 103.910110,94.510071 
	C103.521233,94.590729 103.035355,94.355995 102.260635,94.156563 
z"/>
<path fill="#F9980B" opacity="1.000000" stroke="none" 
	d="
M113.932678,71.636375 
	C111.805389,70.836838 109.533424,69.720963 107.159134,68.273117 
	C109.300537,69.067451 111.544266,70.193741 113.932678,71.636375 
z"/>
<path fill="#FC9305" opacity="1.000000" stroke="none" 
	d="
M108.161674,52.385361 
	C110.249756,53.162533 112.480453,54.247803 114.807724,55.657883 
	C112.704300,54.886276 110.504295,53.789867 108.161674,52.385361 
z"/>
<path fill="#FC9305" opacity="1.000000" stroke="none" 
	d="
M123.566818,58.001465 
	C123.997040,59.016663 123.996826,60.030735 123.992851,61.425087 
	C122.073029,60.770092 120.156967,59.734814 118.108185,58.387703 
	C119.695778,58.050686 121.416084,58.025513 123.566818,58.001465 
z"/>
<path fill="#FC9305" opacity="1.000000" stroke="none" 
	d="
M105.049683,50.351494 
	C105.854706,50.493938 106.778786,50.934853 107.810822,51.679882 
	C107.002090,51.539322 106.085411,51.094643 105.049683,50.351494 
z"/>
<path fill="#F9980B" opacity="1.000000" stroke="none" 
	d="
M106.925247,67.651917 
	C106.524475,67.791367 105.998611,67.644905 105.245270,67.342819 
	C105.611916,67.246796 106.206024,67.306396 106.925247,67.651917 
z"/>
<path fill="#F9980B" opacity="1.000000" stroke="none" 
	d="
M103.994873,66.731674 
	C103.812523,66.841118 103.569023,66.677483 103.183792,66.334976 
	C103.320839,66.284363 103.618065,66.385201 103.994873,66.731674 
z"/>
<path fill="#FD8D05" opacity="1.000000" stroke="none" 
	d="
M101.895805,15.661018 
	C101.718689,15.781674 101.535332,15.664151 101.279175,15.376501 
	C101.480331,15.092238 101.708061,15.164393 101.895805,15.661018 
z"/>
<path fill="#FD8D05" opacity="1.000000" stroke="none" 
	d="
M102.925629,16.634842 
	C102.740318,16.725739 102.537399,16.566250 102.251022,16.210567 
	C102.461899,16.020588 102.708710,16.143948 102.925629,16.634842 
z"/>
<path fill="#FC9305" opacity="1.000000" stroke="none" 
	d="
M114.976730,23.704704 
	C114.782028,23.784027 114.551964,23.588671 114.213974,23.178236 
	C114.446266,22.990625 114.724709,23.146248 114.976730,23.704704 
z"/>
<path fill="#DFA553" opacity="1.000000" stroke="none" 
	d="
M138.949280,36.702553 
	C138.723938,36.853889 138.394867,36.707989 137.867706,36.369148 
	C138.061584,36.252579 138.453583,36.328941 138.949280,36.702553 
z"/>
<path fill="#FC9305" opacity="1.000000" stroke="none" 
	d="
M117.077240,57.309189 
	C117.265526,57.239307 117.488533,57.435551 117.812538,57.848598 
	C117.600647,57.991955 117.333458,57.828590 117.077240,57.309189 
z"/>
<path fill="#FC9305" opacity="1.000000" stroke="none" 
	d="
M115.989609,24.669415 
	C115.796349,24.752270 115.554245,24.556746 115.195770,24.139395 
	C115.336090,24.113077 115.623207,24.270901 115.989609,24.669415 
z"/>
<path fill="#FC9305" opacity="1.000000" stroke="none" 
	d="
M115.080482,56.315998 
	C115.263962,56.194107 115.469772,56.327591 115.771179,56.636971 
	C115.890625,56.776131 115.450478,56.839565 115.450478,56.839565 
	C115.450478,56.839565 115.126648,56.534630 115.080482,56.315998 
z"/>
<path fill="#FB7705" opacity="1.000000" stroke="none" 
	d="
M42.528534,17.210335 
	C42.561466,24.946653 42.125149,32.807106 42.090847,40.669315 
	C42.079693,43.225842 43.119053,45.786957 43.843414,48.695992 
	C32.944130,55.571316 21.879356,62.096622 10.145103,68.614594 
	C8.979755,66.805885 8.086898,65.011414 8.055399,63.201950 
	C7.903285,54.463894 7.982972,45.721806 7.980451,36.981144 
	C7.980451,36.981144 8.000625,37.000305 8.230174,36.915352 
	C8.724649,36.617867 8.989575,36.405342 9.254502,36.192814 
	C9.254502,36.192814 9.516965,36.076221 9.930349,35.973061 
	C10.643113,35.641678 10.942492,35.413452 11.241871,35.185226 
	C21.566422,29.235203 31.890974,23.285179 42.528534,17.210335 
z"/>
<path fill="#D8702C" opacity="1.000000" stroke="none" 
	d="
M7.623183,37.225143 
	C7.982972,45.721806 7.903285,54.463894 8.055399,63.201950 
	C8.086898,65.011414 8.979755,66.805885 9.841772,68.768394 
	C9.299021,69.313057 8.390125,69.696579 7.265915,70.170959 
	C7.265915,58.862171 7.265915,48.165657 7.623183,37.225143 
z"/>
<path fill="#D8702C" opacity="1.000000" stroke="none" 
	d="
M10.923668,35.139606 
	C10.942492,35.413452 10.643113,35.641678 10.072847,35.955338 
	C10.069796,35.725178 10.337629,35.409580 10.923668,35.139606 
z"/>
<path fill="#D8702C" opacity="1.000000" stroke="none" 
	d="
M8.955773,36.141296 
	C8.989575,36.405342 8.724649,36.617867 8.217690,36.909355 
	C8.202785,36.688805 8.429914,36.389290 8.955773,36.141296 
z"/>
<path fill="#FA9408" opacity="1.000000" stroke="none" 
	d="
M100.408340,99.034714 
	C100.774483,102.349846 100.803879,105.719231 100.771614,109.542969 
	C96.499481,106.623955 96.228325,101.990303 100.408340,99.034714 
z"/>
<path fill="#FA9408" opacity="1.000000" stroke="none" 
	d="
M100.421021,127.044449 
	C100.793320,128.062622 100.846649,129.135757 100.857986,130.610718 
	C99.982117,130.378372 99.148254,129.744202 98.314384,129.110016 
	C98.910278,128.439819 99.506172,127.769608 100.421021,127.044449 
z"/>
<path fill="#F9980B" opacity="1.000000" stroke="none" 
	d="
M112.963165,87.308990 
	C112.884880,87.104286 112.933342,86.904137 112.981796,86.703987 
	C113.017838,86.907173 113.053879,87.110359 112.963165,87.308990 
z"/>
</svg>