<svg version="1.1" id="Layer_1" xmlns="http://www.w3.org/2000/svg" xmlns:xlink="http://www.w3.org/1999/xlink" x="0px" y="0px"
	 width="100%" viewBox="0 0 148 148" enable-background="new 0 0 148 148" xml:space="preserve">
<path fill="#FDFDFD" opacity="1.000000" stroke="none" 
	d="
M149.000000,87.000000 
	C149.000000,107.633385 149.000000,128.266769 149.000000,148.950073 
	C99.779449,148.950073 50.558826,148.950073 1.000000,148.950073 
	C1.000000,128.647018 1.000000,108.292168 1.370567,87.573891 
	C4.766857,100.824043 10.146071,113.272339 19.475788,123.863342 
	C28.021460,133.564285 38.470188,140.359222 50.538673,144.770050 
	C53.887093,145.993820 56.207260,144.466461 56.535297,141.235428 
	C56.975548,136.899124 56.644367,132.484497 56.644367,129.236343 
	C51.511715,128.894333 47.319622,128.684235 43.141045,128.319366 
	C37.666580,127.841354 34.590359,124.462021 31.841520,119.904060 
	C29.190861,115.508896 25.341183,111.843842 22.102936,107.790390 
	C21.417482,106.932381 21.099028,105.781174 20.478308,104.487511 
	C28.404018,102.433540 32.250340,107.049446 35.830345,111.991112 
	C40.618767,118.600807 46.250931,120.880615 53.553028,118.646584 
	C54.887749,118.238228 56.283287,117.003250 56.985264,115.770805 
	C58.344318,113.384735 59.229874,110.728966 60.483044,107.781975 
	C58.917892,107.507080 57.194283,107.529839 55.759838,106.897072 
	C48.908424,103.874771 39.864395,102.436768 35.789387,97.184853 
	C26.178375,84.798088 24.829247,66.780518 32.506042,55.225925 
	C34.413597,52.354809 35.037273,49.829285 34.449364,46.265419 
	C33.821995,42.462334 34.694950,38.358440 35.249138,34.433331 
	C35.593025,31.997684 37.142689,30.488661 39.867680,31.580654 
	C44.610455,33.481239 49.277569,35.576672 54.056805,37.376980 
	C55.745777,38.013203 57.670959,38.286034 59.486465,38.278584 
	C69.067963,38.239273 78.654549,38.207806 88.226990,37.846004 
	C91.716446,37.714115 95.257942,36.970665 98.620171,35.978935 
	C102.569756,34.813957 106.335350,33.035477 110.208740,31.598518 
	C113.100174,30.525846 114.847069,31.756428 115.069229,34.675560 
	C115.432419,39.447876 115.423805,44.248051 115.764214,49.022770 
	C115.890411,50.792839 116.441986,52.562458 117.000923,54.266228 
	C118.727844,59.530201 121.791489,64.688461 122.109261,70.020485 
	C123.127411,87.104851 116.961632,101.530449 97.365570,106.192375 
	C94.925362,106.772903 92.624557,107.939423 90.389725,108.785019 
	C91.464981,111.646065 92.486244,114.363464 93.554504,117.543465 
	C93.769806,126.325264 93.938118,134.644455 94.148605,143.351227 
	C96.619583,143.849777 99.362213,144.759872 101.428780,143.948349 
	C122.580048,135.642441 136.975708,120.609421 144.816452,99.305824 
	C146.312424,95.241226 147.610596,91.103821 149.000000,87.000000 
z"/>
<path fill="#1D2124" opacity="1.000000" stroke="none" 
	d="
M93.507515,117.080864 
	C92.486244,114.363464 91.464981,111.646065 90.389725,108.785019 
	C92.624557,107.939423 94.925362,106.772903 97.365570,106.192375 
	C116.961632,101.530449 123.127411,87.104851 122.109261,70.020485 
	C121.791489,64.688461 118.727844,59.530201 117.000923,54.266228 
	C116.441986,52.562458 115.890411,50.792839 115.764214,49.022770 
	C115.423805,44.248051 115.432419,39.447876 115.069229,34.675560 
	C114.847069,31.756428 113.100174,30.525846 110.208740,31.598518 
	C106.335350,33.035477 102.569756,34.813957 98.620171,35.978935 
	C95.257942,36.970665 91.716446,37.714115 88.226990,37.846004 
	C78.654549,38.207806 69.067963,38.239273 59.486465,38.278584 
	C57.670959,38.286034 55.745777,38.013203 54.056805,37.376980 
	C49.277569,35.576672 44.610455,33.481239 39.867680,31.580654 
	C37.142689,30.488661 35.593025,31.997684 35.249138,34.433331 
	C34.694950,38.358440 33.821995,42.462334 34.449364,46.265419 
	C35.037273,49.829285 34.413597,52.354809 32.506042,55.225925 
	C24.829247,66.780518 26.178375,84.798088 35.789387,97.184853 
	C39.864395,102.436768 48.908424,103.874771 55.759838,106.897072 
	C57.194283,107.529839 58.917892,107.507080 60.483044,107.781975 
	C59.229874,110.728966 58.344318,113.384735 56.985264,115.770805 
	C56.283287,117.003250 54.887749,118.238228 53.553028,118.646584 
	C46.250931,120.880615 40.618767,118.600807 35.830345,111.991112 
	C32.250340,107.049446 28.404018,102.433540 20.478308,104.487511 
	C21.099028,105.781174 21.417482,106.932381 22.102936,107.790390 
	C25.341183,111.843842 29.190861,115.508896 31.841520,119.904060 
	C34.590359,124.462021 37.666580,127.841354 43.141045,128.319366 
	C47.319622,128.684235 51.511715,128.894333 56.644367,129.236343 
	C56.644367,132.484497 56.975548,136.899124 56.535297,141.235428 
	C56.207260,144.466461 53.887093,145.993820 50.538673,144.770050 
	C38.470188,140.359222 28.021460,133.564285 19.475788,123.863342 
	C10.146071,113.272339 4.766857,100.824043 1.370567,87.105232 
	C1.000000,79.312424 1.000000,71.624847 1.370754,63.363724 
	C2.087011,61.687202 2.497143,60.599876 2.768564,59.478962 
	C9.559831,31.432331 26.744467,13.021337 54.126091,4.068014 
	C57.401581,2.996984 60.707947,2.020375 64.000000,1.000000 
	C69.688042,1.000000 75.376083,1.000000 81.831146,1.264542 
	C115.465546,6.292365 136.748215,24.578468 146.535141,56.291607 
	C147.330597,58.869144 148.177185,61.430904 149.000000,64.000000 
	C149.000000,71.354256 149.000000,78.708504 149.000000,86.531380 
	C147.610596,91.103821 146.312424,95.241226 144.816452,99.305824 
	C136.975708,120.609421 122.580048,135.642441 101.428780,143.948349 
	C99.362213,144.759872 96.619583,143.849777 94.431641,143.049591 
	C94.775047,134.712814 94.920822,127.065216 94.914337,119.417747 
	C94.913673,118.638390 93.998375,117.859810 93.507515,117.080864 
z"/>
<path fill="#FCFCFC" opacity="1.000000" stroke="none" 
	d="
M149.000000,63.531342 
	C148.177185,61.430904 147.330597,58.869144 146.535141,56.291607 
	C136.748215,24.578468 115.465546,6.292365 82.299080,1.264542 
	C104.257912,1.000000 126.515831,1.000000 149.000000,1.000000 
	C149.000000,21.687012 149.000000,42.374847 149.000000,63.531342 
z"/>
<path fill="#FDFDFD" opacity="1.000000" stroke="none" 
	d="
M63.531342,1.000000 
	C60.707947,2.020375 57.401581,2.996984 54.126091,4.068014 
	C26.744467,13.021337 9.559831,31.432331 2.768564,59.478962 
	C2.497143,60.599876 2.087011,61.687202 1.370754,62.895088 
	C1.000000,42.405926 1.000000,21.811853 1.000000,1.000000 
	C21.687052,1.000000 42.374866,1.000000 63.531342,1.000000 
z"/>
<path fill="#000000" opacity="1.000000" stroke="none" 
	d="
M93.554504,117.543465 
	C93.998375,117.859810 94.913673,118.638390 94.914337,119.417747 
	C94.920822,127.065216 94.775047,134.712814 94.389481,142.662018 
	C93.938118,134.644455 93.769806,126.325264 93.554504,117.543465 
z"/>
</svg>